<svg width="243" height="208" viewBox="0 0 243 208" fill="none" xmlns="http://www.w3.org/2000/svg">
<g clip-path="url(#clip0_4101_74722)">
<path d="M108.205 105.479L27.3548 106.03L27.1311 31.6073C27.1311 29.5281 28.7782 27.8363 30.893 27.8363L104.26 27.2859C106.335 27.2859 108.022 28.937 108.022 31.057L108.205 105.479Z" stroke="#6439FF" stroke-width="2.00564" stroke-miterlimit="10"/>
<path d="M52.1814 95.2317L84.3146 62.8677" stroke="#06083F" stroke-width="4.77152" stroke-miterlimit="10" stroke-linecap="round"/>
<path d="M84.3144 95.1005L52.1812 63.0417" stroke="#06083F" stroke-width="4.77152" stroke-miterlimit="10" stroke-linecap="round"/>
<path d="M28.0195 50.307L108.545 49.7566" stroke="#6439FF" stroke-width="2.00564" stroke-miterlimit="10"/>
<path d="M141.986 50.6824L157.815 57.6041L157.041 88.4067L157.48 92.7981L130.218 93.4464L132.626 89.3896L133.066 86.9847L133.631 83.0325L129.234 79.1847L126.805 74.8979L125.591 67.3279L126.03 63.5848L127.035 59.3188L141.986 50.6824Z" fill="#00FFB3"/>
<path d="M126.736 89.652C127.322 89.5057 127.887 89.3802 128.453 89.2756C131.908 92.977 152.846 94.859 161.641 89.5266C162.75 89.7357 163.839 89.9657 164.928 90.2167C184.276 94.7335 199.331 104.813 210.114 117.841C224.918 135.741 232.665 158.493 236.937 181.307C237.879 186.347 238.549 191.972 235.701 196.238C233.524 199.5 229.357 201.34 225.462 200.734H149.371H55.5857C55.5857 117.276 102.195 95.3818 126.736 89.652Z" fill="#6D56FE"/>
<path d="M154.878 175.056C130.882 175.056 131.405 188.084 131.447 193.751H155.255C155.255 193.751 155.527 175.056 154.878 175.056Z" fill="#00FFB3"/>
<path d="M187.238 153.119C189.059 159.288 190.902 165.457 192.724 171.626C192.849 172.044 192.514 172.463 192.075 172.463C179.909 172.463 167.744 172.463 155.578 172.463C155.809 172.233 156.018 172.023 156.248 171.793C156.248 180.409 156.248 189.004 156.248 197.619C156.248 198.476 154.929 198.476 154.929 197.619C154.929 189.004 154.929 180.409 154.929 171.793C154.929 171.438 155.243 171.124 155.599 171.124C167.765 171.124 179.93 171.124 192.096 171.124C191.886 171.396 191.677 171.689 191.446 171.961C189.625 165.792 187.782 159.623 185.96 153.454C185.709 152.659 187.007 152.304 187.238 153.119Z" fill="#06083F"/>
<path d="M48.4041 200.832H169.221C171.503 200.832 173.346 198.992 173.346 196.713C173.346 194.433 171.503 192.593 169.221 192.593H48.4041V200.832Z" fill="#06083F"/>
<path d="M35.5876 200.824H129.058C133.874 200.824 137.518 196.454 136.638 191.728L125.059 128.972C124.389 125.313 121.185 122.657 117.479 122.657H24.0085C19.1926 122.657 15.5492 127.027 16.4286 131.753L28.0078 194.509C28.6778 198.189 31.8605 200.824 35.5876 200.824Z" fill="#06083F"/>
<path d="M158.08 79.9481C157.242 83.6704 157.075 87.7481 157.703 91.5122C157.766 91.9304 157.117 92.1186 157.054 91.7004C156.384 87.7899 156.551 83.6494 157.431 79.7808C157.514 79.3417 158.164 79.509 158.08 79.9481Z" fill="#06083F"/>
<path d="M127.772 59.2343C123.626 68.3099 126.306 80.5849 136.775 83.7635C137.194 83.8889 137.006 84.5372 136.587 84.4117C125.678 81.1077 122.851 68.3726 127.185 58.8997C127.353 58.5024 127.939 58.837 127.772 59.2343Z" fill="#06083F"/>
<path d="M139.015 77.4566C136.188 74.278 131.645 74.3407 127.876 75.6163C127.457 75.7627 127.645 76.411 128.064 76.2646C131.603 75.0726 135.874 74.9472 138.554 77.9375C138.827 78.2512 139.308 77.7702 139.015 77.4566Z" fill="#06083F"/>
<path d="M130.619 73.534C130.64 73.7013 130.64 73.8686 130.556 73.994C130.452 74.1613 130.242 74.2032 130.033 74.2241C127.729 74.5168 125.217 74.5377 122.893 74.2868C122.62 74.2659 122.327 74.2241 122.097 74.0777C121.657 73.8058 121.511 73.1994 121.615 72.6766C121.72 72.1538 122.034 71.7147 122.348 71.2965C123.667 69.519 125.238 67.8252 126.745 66.215C127.269 65.6294 127.855 65.0439 128.63 64.8557C128.965 64.7721 129.467 64.6675 129.656 64.9603C130.41 66.1731 130.41 71.3801 130.619 73.534Z" fill="#6D56FE"/>
<path d="M133.739 82.8406C133.76 85.8309 133.383 89.3232 131.519 91.7698C131.268 92.1044 130.682 91.7698 130.933 91.4352C132.734 89.0722 133.09 85.7264 133.069 82.8406C133.069 82.4014 133.739 82.4014 133.739 82.8406Z" fill="#06083F"/>
<path d="M160.568 89.9232C173.55 90.5923 179.413 49.564 158.474 39.6938C138.562 30.3045 121.308 46.2182 122.46 55.5656C122.836 58.6187 127.736 60.3125 130.835 60.9817C135.798 62.0691 142.33 61.9018 148.151 58.6605C148.445 60.5425 149.219 64.0347 150.518 65.4358C151.837 66.8578 154.475 67.276 155.689 65.7913C155.71 65.8122 145.618 89.2749 160.568 89.9232Z" fill="#06083F"/>
<path d="M163.96 92.9555C157.867 97.1377 148.737 97.1587 141.66 96.8032C138.038 96.615 134.332 96.2386 130.835 95.2139C128.971 94.6702 126.375 93.8546 125.495 91.9099C125.139 91.1362 126.291 90.467 126.647 91.2407C127.568 93.29 130.96 93.9174 132.887 94.3565C136.258 95.1302 139.734 95.423 143.189 95.5276C149.659 95.7158 157.762 95.5903 163.29 91.7844C164.002 91.3243 164.672 92.4745 163.96 92.9555Z" fill="#06083F"/>
<path d="M150.289 96.4588C146.604 100.16 143.568 104.322 141.181 108.964C140.783 109.717 139.652 109.048 140.029 108.295C142.479 103.569 145.578 99.3028 149.347 95.5178C149.954 94.9114 150.875 95.8524 150.289 96.4588Z" fill="#06083F"/>
<path d="M134.248 94.7995C136.237 97.6435 137.556 100.801 138.226 104.21C138.394 105.046 137.117 105.402 136.949 104.565C136.321 101.261 135.044 98.229 133.117 95.4687C132.615 94.7786 133.745 94.1094 134.248 94.7995Z" fill="#06083F"/>
<path d="M69.9872 150.111L67.9352 154.272C67.7467 154.669 67.3698 154.92 66.9511 154.983L62.3445 155.652C61.2557 155.799 60.8369 157.137 61.6117 157.89L64.9409 161.131C65.255 161.424 65.4016 161.863 65.3178 162.302L64.5222 166.882C64.3337 167.948 65.4644 168.785 66.4276 168.262L70.5316 166.108C70.9085 165.899 71.3692 165.899 71.7461 166.108L75.8501 168.262C76.8132 168.764 77.9439 167.948 77.7555 166.882L76.9598 162.302C76.897 161.884 77.0226 161.445 77.3367 161.131L80.666 157.89C81.4407 157.137 81.0219 155.799 79.9331 155.652L75.3266 154.983C74.9078 154.92 74.5309 154.648 74.3425 154.272L72.2905 150.111C71.8507 149.149 70.4688 149.149 69.9872 150.111Z" fill="white"/>
</g>
<defs>
<clipPath id="clip0_4101_74722">
<rect width="242.154" height="207.561" fill="white" transform="translate(0.422852 0.219482)"/>
</clipPath>
</defs>
</svg>
