<svg width="141" height="120" viewBox="0 0 141 120" fill="none" xmlns="http://www.w3.org/2000/svg">
<g clip-path="url(#clip0_2544_15115)">
<path d="M41.7426 34.4735L43.5039 27.4863C42.0935 27.779 40.709 28.2397 39.3776 28.8678C40.1164 30.7569 40.8433 32.6541 41.7426 34.4735Z" fill="#9696FF"/>
<path d="M19.6409 57.2482C18.1894 56.5323 16.7425 55.6675 15.3578 54.6738C16.4118 57.4456 17.9134 59.9284 19.7521 62.0688C20.2485 60.6986 20.8831 59.3676 21.6211 58.0919C20.9005 57.8246 20.2334 57.54 19.6409 57.2482Z" fill="#9696FF"/>
<path d="M30.9254 58.1177C33.4359 57.9731 36.6908 57.2498 38.0238 54.8351C39.0236 53.0101 39.2458 49.8499 37.0241 48.7482C32.8138 46.6673 27.7816 52.4426 25.571 55.3135C25.0993 55.9258 24.6215 56.5739 24.1562 57.2503C26.354 57.9126 28.6409 58.2488 30.9254 58.1177Z" fill="#9696FF"/>
<path d="M26.8809 36.4199C30.3691 34.0497 33.0907 30.7114 36.6233 28.4079C36.8383 28.2673 37.0568 28.1329 37.2773 28.0021C37.0648 27.4986 36.848 26.9956 36.6234 26.494C35.7918 24.6422 34.765 22.7076 33.4588 21.0254C32.3302 21.2757 31.2159 21.6034 30.1247 22.0095C22.851 24.7191 17.5503 30.5256 15.1493 37.3943C16.9354 38.0136 18.7898 38.555 20.6711 38.5119C22.9262 38.4673 25.0146 37.6884 26.8809 36.4199Z" fill="#9696FF"/>
<path d="M38.7335 27.2325C40.3934 26.4443 42.1649 25.912 43.9789 25.6314L44.9061 21.9535C45.006 21.5418 44.7505 21.1078 44.3395 21.0188C41.3688 20.3606 38.3102 20.2537 35.3187 20.6857C35.4675 20.8907 35.6125 21.098 35.7525 21.308C36.988 23.167 37.9003 25.1798 38.7335 27.2325Z" fill="#9696FF"/>
<path d="M44.2336 61.9197C39.4799 62.8171 35.9678 66.2096 33.7806 70.3669C38.2923 71.3264 43.107 71.068 47.7106 69.353C50.0552 68.4792 52.1941 67.2827 54.0977 65.8335C51.9083 62.7064 48.1514 61.1736 44.2336 61.9197Z" fill="#9696FF"/>
<path d="M63.5372 45.886C61.0822 48.8682 56.461 49.3912 53.0173 48.0559C50.2912 47.0039 47.8304 45.2359 45.7508 43.1221L40.3311 45.1405C39.7312 45.3741 39.1203 44.8289 39.2869 44.2057L41.1495 36.8164C39.9056 34.4939 38.9446 32.0619 37.9462 29.6191C36.9437 30.2013 35.9792 30.8832 35.0655 31.6648C31.9439 34.3355 28.9446 37.8184 25.001 39.2984C21.4374 40.6371 18.0848 40.056 14.6563 38.9561C13.4987 43.1007 13.3767 47.5622 14.4828 51.9223C15.499 52.7947 16.5792 53.5871 17.7026 54.2874C19.1994 55.2186 20.8094 56.0375 22.4882 56.6791C23.5036 55.136 24.6601 53.6897 25.8898 52.3734C28.2226 49.8697 31.7219 46.3534 35.5099 46.6316C38.9425 46.8875 40.9865 50.0032 40.32 53.3304C38.8334 60.7851 29.6838 60.5631 23.2457 58.6359C22.3196 60.1348 21.5059 61.7435 20.9818 63.4045C24.0817 66.5238 27.9462 68.7751 32.1382 69.9617C35.0191 64.3815 40.354 59.5084 47.0297 60.0848C50.5556 60.3857 53.5197 62.1408 55.4039 64.7651C61.0227 59.8524 64.2432 52.6017 64.1051 45.1176C63.9331 45.3771 63.7453 45.6336 63.5372 45.886Z" fill="#9696FF"/>
<path d="M63.686 41.3357C63.6918 41.236 63.6946 41.1366 63.6973 41.0372C63.4845 39.8881 63.1906 38.7425 62.8085 37.6079C62.6752 37.1962 62.2197 36.9959 61.8198 37.1406L47.4465 42.4932C48.8758 43.8762 50.4713 45.055 52.2218 45.898C56.432 47.9344 63.3528 47.2222 63.686 41.3357Z" fill="#9696FF"/>
<path d="M47.0358 60.0845C40.3602 59.5081 35.0253 64.3813 32.1444 69.9615C32.6857 70.1147 33.2323 70.2504 33.7836 70.3677C35.9707 66.2105 39.4828 62.8179 44.2366 61.9206C48.1544 61.1745 51.9114 62.7073 54.1007 65.8344C54.5507 65.4919 54.987 65.1348 55.4102 64.7648C53.5259 62.1406 50.5618 60.3854 47.0358 60.0845Z" fill="#9696FF"/>
<path d="M53.0215 48.0567C56.4652 49.392 61.0865 48.869 63.5415 45.8868C63.7496 45.6344 63.9374 45.3779 64.1094 45.1185C64.0843 43.7614 63.9489 42.3969 63.6971 41.0371C63.6945 41.1365 63.6917 41.236 63.6859 41.3356C63.3526 47.2221 56.4319 47.9343 52.2217 45.8979C50.4712 45.0549 48.8757 43.8761 47.4464 42.4931L45.7551 43.1229C47.8347 45.2367 50.2955 47.0047 53.0215 48.0567Z" fill="#9696FF"/>
<path d="M40.3257 53.3316C40.9922 50.0044 38.9482 46.8887 35.5156 46.6327C31.7275 46.3545 28.2283 49.8709 25.8954 52.3746C24.6657 53.6909 23.5093 55.1372 22.4938 56.6802C20.8151 56.0387 19.2051 55.2197 17.7083 54.2886C16.5849 53.5883 15.5047 52.7959 14.4884 51.9235C14.7066 52.7837 14.9713 53.6398 15.2866 54.4889C15.3097 54.5511 15.3346 54.6123 15.3581 54.6741C16.743 55.6677 18.1898 56.5326 19.6412 57.2485C20.2338 57.5403 20.9009 57.8249 21.6215 58.0922C20.8836 59.3679 20.2489 60.6989 19.7524 62.0691C20.1489 62.5307 20.5609 62.9765 20.9875 63.4057C21.5117 61.7445 22.3254 60.1359 23.2513 58.637C29.6895 60.5642 38.8391 60.7862 40.3257 53.3316ZM25.5733 55.3123C27.7839 52.4414 32.8162 46.6661 37.0264 48.747C39.2481 49.8486 39.026 53.0089 38.0262 54.8338C36.6931 57.2485 33.4383 57.9718 30.9277 58.1165C28.6432 58.2476 26.3563 57.9114 24.1585 57.2491C24.6238 56.5726 25.1016 55.9245 25.5733 55.3123Z" fill="#9696FF"/>
<path d="M25.0039 39.2994C28.9475 37.8194 31.9469 34.3365 35.0685 31.6658C35.982 30.8842 36.9467 30.2023 37.9492 29.6201C38.9476 32.063 39.9086 34.495 41.1525 36.8174L41.7429 34.475C40.8436 32.6557 40.1166 30.7585 39.3779 28.8692C40.7094 28.2412 42.0938 27.7804 43.5042 27.4877L43.9727 25.6292C42.1585 25.9097 40.387 26.4421 38.7272 27.2302C37.8941 25.1775 36.9817 23.1648 35.7462 21.3059C35.6062 21.0959 35.4613 20.8885 35.3124 20.6836C34.6913 20.7733 34.0732 20.8867 33.4594 21.0228C34.7654 22.7049 35.7922 24.6396 36.6239 26.4913C36.8485 26.993 37.0654 27.4961 37.2779 27.9995C37.0575 28.1302 36.839 28.2647 36.6238 28.4053C33.0912 30.7087 30.3696 34.047 26.8814 36.4172C25.0152 37.6858 22.9267 38.4647 20.6717 38.5092C18.7903 38.5524 16.9359 38.0111 15.1498 37.3917C14.9694 37.9077 14.8066 38.4299 14.6594 38.957C18.0878 40.057 21.4404 40.6381 25.0039 39.2994Z" fill="#9696FF"/>
<path d="M42.9576 40.7027C42.7577 41.5484 43.6019 42.2606 44.424 41.9267L67.2302 32.713C67.7745 32.4905 68.0411 31.8785 67.8079 31.3555C64.3308 23.5995 57.5545 18.2582 49.7562 16.2663C49.1896 16.1328 48.612 16.4889 48.4787 17.0564L42.9576 40.7027Z" fill="#FCD600"/>
<rect width="23.9999" height="23.9999" rx="12" transform="matrix(-1 8.74228e-08 8.74228e-08 1 50.9102 34.3711)" fill="white"/>
<path d="M36.0692 51.2699L36.0692 50.1812C36.0692 49.6037 36.2986 49.0499 36.7069 48.6416C37.1153 48.2332 37.6691 48.0038 38.2466 48.0038L42.057 48.0038C42.6345 48.0038 43.1883 48.2332 43.5966 48.6416C44.005 49.0499 44.2344 49.6037 44.2344 50.1812L44.2344 51.2699M33.8918 44.1934L33.8918 47.4595M32.2588 45.8264L35.5249 45.8264M37.9744 43.6491C37.9744 44.8516 38.9493 45.8264 40.1518 45.8264C41.3543 45.8264 42.3292 44.8516 42.3292 43.6491C42.3292 42.4465 41.3543 41.4717 40.1518 41.4717C38.9493 41.4717 37.9744 42.4465 37.9744 43.6491Z" stroke="#6439FF" stroke-width="1.08869" stroke-linecap="round" stroke-linejoin="round"/>
<path d="M81.4553 28.9551L90.6071 32.9568L90.1592 50.7652L90.4134 53.304L74.6519 53.6788L76.0441 51.3334L76.2983 49.943L76.6251 47.6581L74.0829 45.4335L72.6787 42.9551L71.9766 38.5786L72.2308 36.4145L72.8118 33.9482L81.4553 28.9551Z" fill="#00FFB3"/>
<path d="M72.6388 51.4852C72.9778 51.4006 73.3046 51.328 73.6315 51.2676C75.6289 53.4075 87.7345 54.4956 92.8189 51.4127C93.4605 51.5336 94.09 51.6665 94.7195 51.8116C105.905 54.423 114.609 60.2503 120.843 67.7823C129.402 78.1312 133.881 91.285 136.351 104.475C136.895 107.389 137.283 110.641 135.637 113.107C134.378 114.993 131.969 116.057 129.717 115.706H85.725H31.5039C31.5039 67.4559 58.451 54.7978 72.6388 51.4852Z" fill="#6D56FE"/>
<path d="M88.9099 100.861C75.0368 100.861 75.3394 108.393 75.3637 111.67H89.1278C89.1278 111.67 89.2851 100.861 88.9099 100.861Z" fill="#00FFB3"/>
<path d="M107.618 88.1781C108.672 91.7446 109.737 95.3111 110.79 98.8776C110.863 99.1194 110.669 99.3612 110.415 99.3612C103.381 99.3612 96.3481 99.3612 89.3147 99.3612C89.4479 99.2282 89.569 99.1073 89.7021 98.9743C89.7021 103.955 89.7021 108.924 89.7021 113.905C89.7021 114.401 88.9395 114.401 88.9395 113.905C88.9395 108.924 88.9395 103.955 88.9395 98.9743C88.9395 98.7688 89.121 98.5874 89.3268 98.5874C96.3602 98.5874 103.394 98.5874 110.427 98.5874C110.306 98.7446 110.185 98.9139 110.052 99.071C108.998 95.5045 107.933 91.938 106.88 88.3715C106.735 87.9121 107.485 87.7066 107.618 88.1781Z" fill="#06083F"/>
<path d="M27.3516 115.762H97.201C98.5205 115.762 99.5858 114.699 99.5858 113.381C99.5858 112.063 98.5205 110.999 97.201 110.999H27.3516V115.762Z" fill="#06083F"/>
<path d="M19.9417 115.758H73.9813C76.7655 115.758 78.8719 113.231 78.3635 110.499L71.6691 74.2175C71.2817 72.1018 69.4295 70.5664 67.2868 70.5664H13.2473C10.463 70.5664 8.35666 73.0932 8.86509 75.8255L15.5595 112.107C15.9469 114.235 17.7869 115.758 19.9417 115.758Z" fill="#06083F"/>
<path d="M90.7602 45.8744C90.2759 48.0264 90.1791 50.3839 90.5423 52.5601C90.5786 52.8019 90.2033 52.9107 90.167 52.6689C89.7796 50.4081 89.8765 48.0143 90.3849 45.7777C90.4333 45.5238 90.8086 45.6205 90.7602 45.8744Z" fill="#06083F"/>
<path d="M73.2375 33.8992C70.8406 39.1462 72.3901 46.2429 78.443 48.0806C78.6851 48.1531 78.5761 48.5279 78.334 48.4554C72.027 46.5452 70.3927 39.1824 72.8986 33.7058C72.9954 33.476 73.3344 33.6695 73.2375 33.8992Z" fill="#06083F"/>
<path d="M79.7383 43.2335C78.1041 45.0712 75.4771 45.0349 73.2981 44.2974C73.056 44.2128 73.165 43.838 73.4071 43.9227C75.4529 44.6118 77.9225 44.6843 79.472 42.9555C79.6294 42.7741 79.9078 43.0522 79.7383 43.2335Z" fill="#06083F"/>
<path d="M74.8843 42.1663C74.8964 42.263 74.8964 42.3598 74.848 42.4323C74.7874 42.529 74.6664 42.5532 74.5453 42.5653C73.2137 42.7345 71.761 42.7466 70.4173 42.6016C70.2599 42.5895 70.0904 42.5653 69.9573 42.4807C69.7031 42.3235 69.6183 41.9729 69.6789 41.6706C69.7394 41.3684 69.921 41.1145 70.1026 40.8727C70.8652 39.8451 71.7731 38.8658 72.6447 37.9349C72.9474 37.5964 73.2863 37.2578 73.7342 37.149C73.9279 37.1007 74.2185 37.0402 74.3274 37.2095C74.7632 37.9107 74.7632 40.9211 74.8843 42.1663Z" fill="#6D56FE"/>
<path d="M76.6889 47.5469C76.701 49.2757 76.483 51.2947 75.4056 52.7092C75.2604 52.9027 74.9214 52.7092 75.0667 52.5158C76.1078 51.1496 76.3136 49.2153 76.3015 47.5469C76.3015 47.293 76.6889 47.293 76.6889 47.5469Z" fill="#06083F"/>
<path d="M92.1985 51.6419C99.704 52.0287 103.094 28.3085 90.988 22.6021C79.4755 17.1737 69.5005 26.3741 70.1663 31.7782C70.3842 33.5434 73.2169 34.5226 75.0085 34.9095C77.8776 35.5382 81.6545 35.4415 85.0199 33.5675C85.1894 34.6556 85.6373 36.6746 86.3878 37.4846C87.1505 38.3068 88.6758 38.5486 89.3779 37.6902C89.39 37.7023 83.5551 51.2671 92.1985 51.6419Z" fill="#06083F"/>
<path d="M94.1598 53.395C90.6371 55.813 85.359 55.8251 81.2673 55.6196C79.1731 55.5108 77.0304 55.2931 75.0087 54.7007C73.9313 54.3864 72.4302 53.9149 71.9218 52.7905C71.716 52.3432 72.3818 51.9563 72.5876 52.4037C73.1203 53.5885 75.0814 53.9512 76.1951 54.205C78.1441 54.6524 80.1536 54.8216 82.1511 54.8821C85.8917 54.9909 90.5766 54.9183 93.7725 52.718C94.184 52.452 94.5714 53.117 94.1598 53.395Z" fill="#06083F"/>
<path d="M86.2568 55.4199C84.1263 57.5598 82.3709 59.9657 80.9909 62.6497C80.7609 63.0849 80.1072 62.698 80.3251 62.2628C81.7414 59.5305 83.5331 57.0641 85.7121 54.8759C86.0632 54.5253 86.5958 55.0693 86.2568 55.4199Z" fill="#06083F"/>
<path d="M76.9823 54.4617C78.1324 56.106 78.895 57.9315 79.2824 59.9022C79.3793 60.3858 78.6408 60.5913 78.544 60.1077C78.1808 58.1975 77.4424 56.4445 76.3286 54.8486C76.0381 54.4497 76.6918 54.0628 76.9823 54.4617Z" fill="#06083F"/>
<path d="M39.8317 86.4396L38.6454 88.8454C38.5364 89.0751 38.3185 89.2202 38.0764 89.2565L35.4132 89.6434C34.7837 89.728 34.5416 90.5017 34.9895 90.937L36.9143 92.8109C37.0959 92.9802 37.1806 93.2341 37.1322 93.4879L36.6722 96.1356C36.5632 96.7522 37.2169 97.2358 37.7738 96.9335L40.1465 95.6883C40.3644 95.5674 40.6307 95.5674 40.8486 95.6883L43.2213 96.9335C43.7782 97.2237 44.4319 96.7522 44.3229 96.1356L43.8629 93.4879C43.8266 93.2461 43.8992 92.9923 44.0808 92.8109L46.0056 90.937C46.4535 90.5017 46.2114 89.728 45.5819 89.6434L42.9187 89.2565C42.6765 89.2202 42.4586 89.0631 42.3497 88.8454L41.1633 86.4396C40.9091 85.8834 40.1101 85.8834 39.8317 86.4396Z" fill="white"/>
</g>
<defs>
<clipPath id="clip0_2544_15115">
<rect width="140.571" height="120" fill="white" transform="translate(0.214844)"/>
</clipPath>
</defs>
</svg>
