<svg width="59" height="58" viewBox="0 0 59 58" fill="none" xmlns="http://www.w3.org/2000/svg">
<path d="M7.32822 27.8949C7.32822 27.8827 7.32896 27.8707 7.32905 27.8585H7.32812L7.38929 54.8729L50.3905 54.7751L50.3294 27.7607H50.3284C50.3286 27.7729 50.3294 27.7849 50.3295 27.7971L7.32822 27.8949ZM44.6427 30.5668C45.9621 30.5638 47.034 31.6333 47.037 32.9555L47.0421 35.1877L42.2642 35.1986L42.2591 32.9663C42.2561 31.644 43.3232 30.5698 44.6427 30.5668ZM37.7143 30.5835C39.0337 30.5779 40.1077 31.6453 40.1133 32.9674C40.1133 32.969 40.1133 32.9704 40.1133 32.972L40.1183 35.2042L35.3357 35.2151L35.3307 32.9829C35.3278 31.6608 36.3949 30.5864 37.7143 30.5835ZM28.8388 29.8452C30.4221 29.8452 31.7057 31.1315 31.7057 32.7182C31.7057 34.3049 30.4221 35.5912 28.8388 35.5912C27.2554 35.5912 25.9718 34.3049 25.9718 32.7182C25.9718 31.1315 27.2554 29.8452 28.8388 29.8452ZM19.9568 30.6238C21.2762 30.6209 22.3482 31.6903 22.3512 33.0125L22.3562 35.2447L17.5783 35.2556L17.5732 33.0234C17.5703 31.7011 18.6374 30.6269 19.9568 30.6238ZM10.5179 33.0586C10.5179 31.7364 11.5874 30.6646 12.9068 30.6646C14.2262 30.663 15.297 31.7336 15.2986 33.0558C15.2986 33.0568 15.2986 33.0577 15.2986 33.0586V35.2908H10.5179V33.0586ZM10.73 52.9893L10.706 42.3751C10.7012 40.2598 12.4085 38.5411 14.5193 38.5364C14.5196 38.5364 14.52 38.5364 14.5202 38.5364L17.3863 38.5298C19.4971 38.525 21.2121 40.2359 21.2168 42.3513L21.2409 52.9655L10.73 52.9893ZM24.8253 53.0363L24.8034 43.3802C24.7989 41.1327 26.613 39.3069 28.8557 39.3018C31.0987 39.2967 32.9212 41.1148 32.9263 43.3627L32.9482 53.0179L24.8253 53.0363ZM36.5305 52.9297L36.5065 42.3165C36.5016 40.2012 38.209 38.4825 40.3198 38.4778L40.3207 38.4768L43.1877 38.4703C45.2985 38.4655 47.0135 40.1765 47.0182 42.2918L47.0423 52.9059L36.5305 52.9297Z" fill="#6D56FE"/>
<path d="M37.0405 20.2867C37.0154 20.2503 36.9898 20.2141 36.9651 20.1774C34.8608 18.1135 31.9788 16.8435 28.8018 16.8506C28.8011 16.8506 28.8006 16.8506 28.7999 16.8506C25.506 16.8581 22.5353 18.2369 20.4236 20.4461C20.2357 21.0845 19.7929 21.6328 19.2078 21.9493C18.5489 22.9174 18.032 23.9899 17.6865 25.137L39.9526 25.0864C39.6054 23.9521 39.0905 22.8916 38.4367 21.934C37.9193 21.433 37.4513 20.8812 37.0405 20.2867Z" fill="#6D56FE"/>
<path d="M28.855 39.2979C26.6123 39.303 24.7982 41.1287 24.8027 43.3762L24.8246 53.0324L32.9475 53.0139L32.9256 43.3586C32.9205 41.1108 31.098 39.2927 28.855 39.2979Z" fill="#311B92"/>
<path d="M15.2983 33.0571C15.2983 33.0562 15.2983 33.0553 15.2983 33.0543C15.2967 31.7321 14.2259 30.6615 12.9065 30.6631C11.5871 30.6631 10.5176 31.7349 10.5176 33.0571V35.2893H15.2983V33.0571Z" fill="#9696FF"/>
<path d="M22.3572 35.242L22.3521 33.0098C22.3492 31.6875 21.2771 30.6181 19.9578 30.6211C18.6384 30.6241 17.5713 31.6984 17.5742 33.0205L17.5793 35.2528L22.3572 35.242Z" fill="#9696FF"/>
<path d="M40.1167 35.2009L40.1117 32.9687C40.1117 32.9671 40.1117 32.9656 40.1117 32.964C40.1061 31.6418 39.032 30.5745 37.7127 30.5801C36.3933 30.5831 35.3261 31.6574 35.3291 32.9795L35.3341 35.2117L40.1167 35.2009Z" fill="#9696FF"/>
<path d="M47.0418 35.1834L47.0367 32.9512C47.0337 31.6289 45.9617 30.5595 44.6424 30.5625C43.323 30.5655 42.2558 31.6398 42.2588 32.9619L42.2639 35.1942L47.0418 35.1834Z" fill="#9696FF"/>
<path d="M17.3834 38.5293L14.5174 38.5358C14.5171 38.5358 14.5167 38.5358 14.5165 38.5358C12.4057 38.5407 10.6984 40.2593 10.7031 42.3746L10.7272 52.9887L21.238 52.9648L21.214 42.3507C21.2093 40.2354 19.4942 38.5245 17.3834 38.5293Z" fill="#9696FF"/>
<path d="M43.1861 38.4707L40.3192 38.4772L40.3182 38.4782C38.2074 38.483 36.5002 40.2016 36.5049 42.3169L36.5289 52.9301L47.0407 52.9062L47.0167 42.2921C47.012 40.1769 45.2969 38.466 43.1861 38.4707Z" fill="#9696FF"/>
<path d="M29.2983 35.5496C30.8613 35.2954 31.9226 33.8196 31.669 32.2533C31.4153 30.6871 29.9427 29.6234 28.3798 29.8776C26.8168 30.1318 25.7554 31.6076 26.0091 33.1739C26.2627 34.7401 27.7354 35.8038 29.2983 35.5496Z" fill="white"/>
<path d="M17.6885 25.1403L10.045 25.1577C8.55323 25.161 7.34502 26.366 7.32896 27.8564C7.32887 27.8686 7.32812 27.8806 7.32812 27.8928L50.3294 27.795C50.3294 27.7828 50.3286 27.7708 50.3284 27.7586C50.3055 26.2684 49.0918 25.0689 47.6001 25.0723L39.9547 25.0897L17.6885 25.1403Z" fill="#9696FF"/>
<path d="M20.4252 20.4496C20.6011 19.8522 20.5546 19.1772 20.1891 18.5407C19.5488 17.4251 19.872 16.0035 20.9316 15.2761C22.772 14.0121 22.1177 11.14 19.9107 10.8024C18.6412 10.6083 17.734 9.46865 17.827 8.18513C17.9895 5.95292 15.3416 4.67498 13.7016 6.19381C12.7584 7.06735 11.3035 7.06735 10.3604 6.19381C8.72041 4.67498 6.07251 5.95292 6.23493 8.18513C6.32765 9.46753 5.42144 10.6061 4.15317 10.8005C1.94427 11.1391 1.28995 14.0103 3.13225 15.2743C4.19178 16.0017 4.51504 17.4232 3.87474 18.5389C2.76193 20.479 4.59495 22.7819 6.72961 22.1262C7.95964 21.7468 9.27366 22.3808 9.74505 23.5809C10.5646 25.6624 13.5039 25.6624 14.3234 23.5809C14.7954 22.3838 16.1061 21.7513 17.3342 22.1281C18.0197 22.3384 18.6735 22.2425 19.2094 21.9528C19.7945 21.6363 20.2373 21.088 20.4252 20.4496Z" fill="#FFDD00"/>
<path d="M43.4822 24.3154C43.48 24.318 43.4778 24.3204 43.4754 24.3227C43.4694 24.3286 43.4621 24.3317 43.4551 24.3357C43.46 24.3499 43.465 24.3644 43.4699 24.3784C43.4861 24.3713 43.5022 24.3631 43.5178 24.3538C43.5062 24.3408 43.4929 24.3293 43.4822 24.3154Z" fill="#311B92"/>
<path d="M44.021 3.48247L44.1964 3.29646C44.2024 3.29013 44.2086 3.28474 44.215 3.28027C44.0913 3.30092 43.968 3.32315 43.8457 3.34798L44.0099 3.50107C44.0127 3.49438 44.0165 3.48815 44.021 3.48247Z" fill="#311B92"/>
<path d="M44.3503 3.44225L44.1749 3.62827C44.1592 3.64594 44.1372 3.65692 44.1137 3.65896C44.1126 3.66808 44.1097 3.67673 44.1063 3.68519C44.2109 3.61404 44.3125 3.54568 44.4469 3.52968C44.4912 3.52363 44.5213 3.54279 44.5374 3.57191C44.5348 3.56326 44.5316 3.55489 44.5313 3.54549V3.45248C44.5297 3.39389 44.5759 3.34524 44.6343 3.34366C44.6928 3.34208 44.7414 3.38831 44.7429 3.4469V3.53991C44.7445 3.59851 44.6984 3.64715 44.6399 3.64873C44.5996 3.64975 44.5651 3.62725 44.5464 3.59451C44.5628 3.65422 44.5326 3.73439 44.4534 3.74546C44.3364 3.76127 44.2436 3.85893 44.1508 3.91939C44.1498 3.92013 44.1487 3.92087 44.1475 3.92162C44.1048 3.94989 44.0472 3.93808 44.019 3.8952C44.0223 3.9099 44.0226 3.92506 44.0198 3.93985C44.0086 3.99937 43.9513 4.03853 43.8919 4.02728L43.8185 4.01146C43.7823 4.00188 43.7538 3.97398 43.7434 3.93799L43.7239 3.86544C43.6895 3.73244 43.8909 3.66826 43.9262 3.80313V3.81429H43.9392C43.9591 3.81791 43.9771 3.82852 43.9902 3.84405C43.9823 3.81057 43.9918 3.77643 44.0138 3.7516C43.9871 3.7529 43.9598 3.74425 43.9383 3.725L43.6229 3.42635C43.5528 3.62232 43.4851 3.81782 43.4196 4.01267C43.4366 4.01518 43.4533 4.02179 43.4686 4.03472C43.5652 4.11656 43.7146 4.25794 43.8501 4.26352C43.9856 4.2691 43.9921 4.48581 43.8557 4.48023C43.8425 4.47939 43.8295 4.47725 43.8165 4.4753C43.8442 4.50134 43.8553 4.54031 43.8499 4.57714C43.8835 4.61974 43.881 4.68122 43.8408 4.71926C43.8474 4.71684 43.8543 4.71526 43.8612 4.71461L44.0413 4.70996C44.1008 4.70838 44.1501 4.75544 44.1517 4.81506C44.1533 4.87468 44.1063 4.92416 44.0468 4.92574L43.8668 4.93039C43.842 4.92974 43.8182 4.92062 43.7992 4.90463C43.753 4.86556 43.7471 4.79637 43.786 4.74995C43.7631 4.75479 43.7393 4.75079 43.7192 4.73879C43.6292 4.6895 43.5485 4.62625 43.4556 4.57231C43.4013 4.58412 43.3456 4.58691 43.2904 4.58068C43.2693 4.57817 43.2531 4.57063 43.2409 4.56031C43.2225 4.61844 43.2057 4.67611 43.1878 4.73414H43.2181C43.2776 4.73256 43.327 4.77963 43.3286 4.83924C43.3302 4.89886 43.2832 4.94834 43.2237 4.94992H43.1309C43.1279 4.94964 43.1254 4.94816 43.1225 4.9476C42.7108 6.31166 42.4086 7.64392 42.1963 8.93349C44.4254 9.19977 47.0194 9.27483 49.85 8.92874C49.5797 7.28584 49.1639 5.57392 48.5613 3.81596L48.4131 3.81977C48.4467 3.85019 48.4544 3.90041 48.4295 3.93892C48.4629 4.01518 48.4072 4.12307 48.3144 4.08959C48.2612 4.07043 48.2112 4.04346 48.1659 4.00961C48.0063 3.99472 47.9181 3.83847 47.8253 3.70082C47.8036 3.66808 47.8016 3.62604 47.8201 3.59134C47.8478 3.53926 47.9125 3.51954 47.9645 3.54735C48.0445 3.59618 48.1149 3.65915 48.1724 3.73337C48.1742 3.73123 48.1761 3.72928 48.1781 3.72732C48.2117 3.69421 48.2622 3.69217 48.3001 3.71709C48.3001 3.71626 48.2996 3.7156 48.2995 3.71477C48.298 3.65515 48.3449 3.60567 48.4044 3.60409L48.4867 3.60195C48.4619 3.53135 48.4382 3.46095 48.4129 3.39017C48.388 3.38459 48.363 3.37929 48.3382 3.37389C48.3385 3.37724 48.3403 3.38021 48.3404 3.38366C48.342 3.44225 48.2958 3.4909 48.2374 3.49248C48.1789 3.49406 48.1304 3.44783 48.1288 3.38924C48.1282 3.36868 48.1352 3.35036 48.1448 3.3338C47.777 3.26126 47.4026 3.2074 47.0227 3.1729C47.0267 3.17978 47.0303 3.18703 47.0327 3.19485C47.1496 3.18648 47.1969 3.36971 47.0735 3.40319C46.9584 3.44932 46.8276 3.39593 46.7774 3.28228C46.7703 3.27325 46.7652 3.26275 46.7626 3.25158C46.7624 3.24945 46.7624 3.24721 46.7626 3.24507V3.23577C46.7621 3.23112 46.7621 3.22647 46.7626 3.22182C46.7584 3.19727 46.7649 3.17309 46.7786 3.15337C46.5295 3.13635 46.2782 3.12695 46.0247 3.12695C45.9479 3.12695 45.8713 3.12825 45.7948 3.12983C45.8478 3.13439 45.8905 3.17653 45.892 3.23112C45.8936 3.28972 45.8475 3.33836 45.789 3.33994C45.7305 3.34152 45.682 3.2953 45.6804 3.2367C45.6789 3.18164 45.7202 3.13681 45.7736 3.13012C45.5615 3.13495 45.3509 3.14583 45.142 3.16267C45.1623 3.17429 45.1788 3.19382 45.1867 3.22368V3.23949C45.202 3.24266 45.2178 3.24266 45.2331 3.23949C45.3326 3.21531 45.3912 3.32394 45.3601 3.39454C45.3919 3.39379 45.4242 3.40682 45.4475 3.44039C45.4656 3.47443 45.5018 3.4948 45.5403 3.49248C45.6758 3.50271 45.6823 3.71849 45.5458 3.70826C45.5262 3.70621 45.5067 3.70314 45.4874 3.69896C45.476 3.70556 45.4637 3.70993 45.4508 3.71189C45.394 3.72053 45.341 3.68147 45.3324 3.62455C45.3099 3.60288 45.2894 3.57916 45.2711 3.55386C45.2452 3.51815 45.2462 3.48215 45.2618 3.45341C45.1987 3.46513 45.1336 3.46011 45.0734 3.43667C45.0038 3.40877 44.9964 3.35668 44.9806 3.28879C44.9688 3.23773 44.9897 3.19717 45.0224 3.17327C44.778 3.19559 44.5359 3.22573 44.2964 3.26386C44.3643 3.28376 44.4134 3.37473 44.3503 3.44225ZM43.4306 6.11253C43.4187 6.11365 43.4068 6.11393 43.3949 6.11337C43.2468 6.10714 43.1319 5.98176 43.1381 5.8335C43.1411 5.78226 43.1803 5.7405 43.2311 5.73436C43.2891 5.72738 43.3419 5.76887 43.3488 5.827C43.3488 5.88187 43.3711 5.89675 43.4249 5.89675C43.5614 5.88931 43.567 6.10509 43.4306 6.11253ZM43.8844 5.56378H43.7916C43.7425 5.55876 43.703 5.52109 43.6954 5.47226C43.6862 5.41292 43.7267 5.35721 43.786 5.348H43.8789C43.9384 5.34642 43.9877 5.39348 43.9893 5.4531C43.9909 5.51272 43.9439 5.5622 43.8844 5.56378ZM47.6591 5.37497H47.5662C47.5066 5.37655 47.4569 5.32921 47.4553 5.26941C47.4538 5.2096 47.501 5.15984 47.5607 5.15826H47.6535C47.7059 5.16161 47.7485 5.20207 47.7546 5.25443C47.7613 5.31415 47.7186 5.36809 47.6591 5.37497ZM48.1533 5.43078C48.0953 5.43757 48.0426 5.3959 48.0359 5.33777C48.0391 5.28661 48.0784 5.24513 48.1291 5.23918C48.1872 5.23239 48.2398 5.27406 48.2465 5.33219C48.2433 5.38334 48.204 5.42483 48.1533 5.43078ZM48.6995 5.26057C48.7134 5.27545 48.7273 5.29034 48.7403 5.30615C48.7746 5.34047 48.7829 5.39311 48.7607 5.43636L48.7496 5.46984C48.7719 5.60471 48.5695 5.66981 48.5473 5.53309C48.5394 5.49226 48.5394 5.45022 48.5473 5.40939L48.5417 5.40288C48.5339 5.39572 48.527 5.38753 48.5213 5.37869C48.5129 5.36753 48.5036 5.35823 48.4953 5.34614C48.4359 5.26243 48.5259 5.17314 48.6067 5.18523C48.6498 5.18951 48.6863 5.21909 48.6995 5.26057ZM48.5519 4.41884L48.6252 4.4886C48.7245 4.58347 48.5807 4.73879 48.4804 4.64578L48.4062 4.5751C48.3078 4.48116 48.4507 4.32304 48.5519 4.41884ZM47.5876 3.36691H47.6238C47.6833 3.36533 47.7327 3.4124 47.7342 3.47201C47.7358 3.53163 47.6888 3.58111 47.6294 3.5827H47.5922C47.5327 3.584 47.4836 3.53675 47.4823 3.47713C47.481 3.41751 47.5281 3.36822 47.5876 3.36691ZM47.3361 3.45341C47.3945 3.45183 47.4431 3.49806 47.4447 3.55665C47.4462 3.61525 47.4001 3.66389 47.3416 3.66547C47.2832 3.66705 47.2346 3.62083 47.2331 3.56223C47.2315 3.50364 47.2776 3.45499 47.3361 3.45341ZM47.2813 4.90249C47.2497 4.8784 47.2383 4.83599 47.2535 4.79925C47.2628 4.77321 47.272 4.74716 47.2822 4.72112C47.2173 4.64857 47.2637 4.50999 47.3686 4.5351C47.4187 4.43921 47.5196 4.38685 47.6211 4.39429C47.6173 4.38378 47.6139 4.37299 47.6135 4.36127C47.6119 4.30268 47.658 4.25403 47.7165 4.25245C47.775 4.25087 47.8235 4.2971 47.8251 4.35569C47.8261 4.39392 47.8056 4.42656 47.7758 4.446C47.804 4.45921 47.8319 4.47344 47.8585 4.48962C47.8799 4.47381 47.9021 4.45893 47.9225 4.44312C47.9406 4.42945 47.9631 4.42275 47.9857 4.42452C47.9058 4.35476 47.8631 4.25431 47.7852 4.18548C47.6964 4.12614 47.6112 4.0615 47.53 3.99203C47.5142 3.97454 47.5047 3.95231 47.503 3.92878C47.4728 3.91595 47.4442 3.89976 47.4177 3.88042C47.3091 3.79764 47.4539 3.64045 47.5615 3.7316C47.62 3.77345 47.6905 3.79113 47.7471 3.83484C47.7777 3.85502 47.7916 3.89269 47.7815 3.92785C47.8358 3.9591 47.8862 3.99658 47.9318 4.03946C47.9962 4.12475 48.0654 4.20641 48.1388 4.28407C48.227 4.35755 48.1388 4.47846 48.046 4.46451C48.0464 4.46488 48.0466 4.46516 48.047 4.46553C48.0913 4.51046 48.0909 4.58291 48.046 4.62728C48.1493 4.71294 48.2461 4.80622 48.3356 4.9063C48.4265 5.00768 48.2827 5.16673 48.1898 5.06349C48.089 4.94899 47.9764 4.84547 47.8539 4.7547C47.8056 4.78148 47.7533 4.79999 47.6989 4.80957C47.625 4.81934 47.55 4.81459 47.478 4.79562C47.4724 4.81794 47.4668 4.83934 47.4622 4.85422C47.4446 4.90435 47.3941 4.93514 47.3415 4.92769C47.3583 4.94072 47.37 4.95913 47.375 4.97978V4.99094H47.3889C47.5235 5.01512 47.4724 5.22904 47.3378 5.20114L47.2645 5.18533C47.228 5.17621 47.1993 5.14813 47.1893 5.11185L47.1698 5.0393C47.1672 5.0287 47.166 5.01782 47.1666 5.00694C47.1696 4.9463 47.2209 4.89961 47.2813 4.90249ZM44.7336 4.87645C44.6659 4.96481 44.6278 5.06525 44.5601 5.15082C44.4747 5.26057 44.3234 5.10897 44.407 5.00201C44.4738 4.91365 44.5118 4.8132 44.5796 4.72763C44.6659 4.61788 44.8172 4.76949 44.7336 4.87645ZM45.7555 5.42427H45.6627C45.6032 5.42585 45.5538 5.37879 45.5522 5.31917C45.5507 5.25955 45.5976 5.21007 45.6571 5.20849H45.7499C45.8094 5.20691 45.8588 5.25397 45.8604 5.31359C45.862 5.37321 45.815 5.42269 45.7555 5.42427ZM46.6363 4.82622C46.5695 4.91923 46.5314 5.01968 46.4636 5.10525C46.3783 5.215 46.227 5.06339 46.3105 4.95643C46.3773 4.86342 46.4154 4.76391 46.4831 4.67741C46.5695 4.56859 46.7207 4.72019 46.6363 4.82622ZM46.7551 4.73321L46.6623 4.64578C46.563 4.55185 46.7068 4.3928 46.8071 4.4886L46.8999 4.57696C46.9992 4.6709 46.8553 4.82622 46.7551 4.73321ZM45.8288 3.75383V3.76499H45.8427C45.8627 3.76862 45.8807 3.77922 45.8938 3.79476C45.8874 3.76815 45.893 3.74137 45.9062 3.71886C45.8973 3.69096 45.8995 3.66008 45.9143 3.63366C45.9433 3.58167 46.0089 3.56298 46.0608 3.59209C46.0633 3.59358 46.0656 3.59544 46.0681 3.59702C46.1533 3.54131 46.2406 3.4935 46.3494 3.48048C46.4341 3.46885 46.4676 3.54884 46.4481 3.61497C46.4604 3.60185 46.4749 3.59051 46.4933 3.58465C46.6108 3.53693 46.745 3.5573 46.8432 3.63766C46.8702 3.66594 46.8802 3.70649 46.8693 3.74416C46.8525 3.80238 46.7917 3.83596 46.7336 3.81903C46.7334 3.82117 46.7334 3.8234 46.7336 3.82554C46.7541 3.96319 46.5424 3.96691 46.522 3.83112C46.5257 3.85623 46.4942 3.81252 46.4868 3.80601C46.4737 3.79569 46.4618 3.78378 46.4515 3.77067C46.4378 3.75783 46.4277 3.74174 46.422 3.72388C46.415 3.70212 46.4171 3.68045 46.4229 3.65999C46.4068 3.6784 46.3844 3.69217 46.355 3.69617C46.3128 3.70193 46.2738 3.71867 46.2366 3.74025C46.2476 3.75262 46.2585 3.7649 46.2687 3.77801C46.2705 3.77597 46.2725 3.77411 46.2744 3.77225C46.3144 3.73542 46.3766 3.73793 46.4134 3.77801L46.5062 3.86544C46.5412 3.89632 46.5498 3.94757 46.5267 3.98821C46.5592 4.06448 46.5035 4.17237 46.4107 4.13889C46.3571 4.12047 46.307 4.0935 46.2622 4.0589C46.1551 4.04895 46.0804 3.97501 46.0147 3.88618C45.9795 3.89223 45.9425 3.87772 45.9215 3.84591C45.9246 3.86023 45.9249 3.87493 45.9222 3.88934C45.9111 3.94896 45.8539 3.98821 45.7944 3.97705L45.7211 3.96217C45.6849 3.95259 45.6564 3.92469 45.6459 3.88869L45.6264 3.81615C45.5922 3.68222 45.7936 3.61804 45.8288 3.75383ZM45.5476 4.34165C45.5721 4.37587 45.6114 4.39662 45.6534 4.39745C45.6779 4.3981 45.6967 4.40703 45.7127 4.41866C45.7123 4.41671 45.7111 4.41522 45.711 4.41326C45.7142 4.36211 45.7535 4.32063 45.8042 4.31467C45.8622 4.30788 45.9149 4.34955 45.9216 4.40768C45.9184 4.45884 45.8791 4.50032 45.8284 4.50627C45.8013 4.50943 45.7757 4.50125 45.7551 4.48655C45.7668 4.54608 45.7369 4.61323 45.6599 4.61323C45.5612 4.61444 45.467 4.57231 45.4019 4.4979C45.3091 4.39652 45.4511 4.23748 45.5476 4.34165ZM45.2525 5.77584C45.2525 5.83165 45.2738 5.84653 45.3286 5.84653C45.465 5.83816 45.4706 6.05487 45.3341 6.06231C45.3229 6.06333 45.3117 6.06352 45.3004 6.06315C45.152 6.05747 45.0361 5.93219 45.0418 5.78328C45.0445 5.73185 45.0835 5.68981 45.1346 5.68348C45.1926 5.67642 45.2453 5.71771 45.2525 5.77584ZM45.1179 4.68299C45.1703 4.68634 45.2129 4.72679 45.219 4.77916C45.2258 4.83887 45.183 4.89282 45.1235 4.8997H45.0306C44.9768 4.90109 44.9331 4.86203 44.9234 4.8106C44.8994 4.81153 44.8744 4.80371 44.8515 4.78251L44.7587 4.69508C44.6594 4.60114 44.8033 4.4421 44.9035 4.53883L44.9963 4.62625C45.0148 4.64374 45.0248 4.66327 45.0282 4.68299H45.1179ZM45.0427 4.34351C45.0443 4.40312 44.9973 4.45261 44.9378 4.45419H44.845C44.7855 4.45577 44.7362 4.4087 44.7346 4.34909C44.733 4.28947 44.78 4.23999 44.8395 4.23841H44.9323C44.9918 4.23682 45.0411 4.28389 45.0427 4.34351ZM44.846 3.8952C44.8475 3.95482 44.8006 4.0043 44.7411 4.00588L44.561 4.01054C44.5015 4.01212 44.4522 3.96505 44.4506 3.90544C44.449 3.84582 44.496 3.79634 44.5555 3.79476L44.7355 3.7901C44.795 3.78852 44.8444 3.83558 44.846 3.8952Z" fill="#311B92"/>
<path d="M41.8205 4.27555C41.7993 4.24364 41.7868 4.20681 41.7843 4.16859C41.7827 4.10971 41.8286 4.06042 41.8873 4.05791C41.9342 4.05763 41.9806 4.06814 42.0228 4.0886C42.0326 4.05949 42.0551 4.03642 42.0841 4.02628C42.2233 3.97513 42.3208 4.07651 42.4572 4.08116C42.5081 4.08293 42.5409 4.11362 42.5549 4.15138C42.5671 4.11362 42.5797 4.07576 42.592 4.03791C42.5657 4.01884 42.5472 3.98964 42.5463 3.95467C42.5447 3.89505 42.5917 3.84557 42.6512 3.84399L42.6553 3.84389C42.6721 3.79339 42.688 3.74317 42.7051 3.69266C42.6842 3.68689 42.6667 3.67536 42.653 3.65918C42.279 3.78074 41.9137 3.92146 41.5586 4.08116C41.5599 4.08218 41.5612 4.08283 41.5625 4.08395C41.6407 4.1577 41.7273 4.22207 41.8205 4.27555Z" fill="#311B92"/>
<path d="M41.9736 24.1741C41.9192 24.1427 41.8684 24.1052 41.8223 24.0625C41.7581 23.9772 41.6894 23.8955 41.6162 23.8179C41.529 23.7444 41.6162 23.6235 41.7091 23.6384C41.6647 23.5929 41.6647 23.5202 41.7091 23.4747C41.6059 23.3887 41.5092 23.2955 41.4195 23.1957C41.3295 23.0943 41.4724 22.9352 41.5652 23.0385C41.666 23.1532 41.7786 23.2571 41.9012 23.3482C41.9494 23.3212 42.0018 23.3024 42.0562 23.2924C42.13 23.2825 42.205 23.2873 42.2771 23.3063C42.2836 23.284 42.2882 23.2636 42.2938 23.2477C42.2942 23.2463 42.2952 23.2454 42.2958 23.2441C42.2668 23.1446 42.2379 23.043 42.2088 22.9392C42.2036 22.9402 42.199 22.9426 42.1935 22.9428H42.1007C42.0412 22.9443 41.9918 22.8973 41.9903 22.8377C41.9887 22.778 42.0357 22.7286 42.0951 22.727H42.1506C41.8869 21.7566 41.6264 20.6121 41.4203 19.3213C40.01 19.5298 38.546 19.8442 37.043 20.2929C37.4538 20.8875 37.9217 21.4392 38.439 21.9402C38.9836 22.4676 39.5827 22.9385 40.2271 23.344C40.2761 23.344 40.3251 23.3498 40.3727 23.3623C40.3792 23.34 40.3838 23.3195 40.3894 23.3037C40.4067 23.2534 40.4576 23.2228 40.51 23.2312C40.4933 23.2182 40.4815 23.1997 40.4766 23.1791V23.1679H40.4636C40.329 23.1438 40.3801 22.9298 40.5147 22.9577L40.5871 22.9726C40.6236 22.9819 40.6525 23.0098 40.6632 23.0461L40.6827 23.1186C40.6855 23.1296 40.6867 23.1409 40.6862 23.1522C40.6831 23.2128 40.6317 23.2594 40.5713 23.2563C40.603 23.2799 40.6142 23.3224 40.5982 23.3586L40.5704 23.4367C40.6023 23.4724 40.607 23.524 40.5915 23.5643C41.0363 23.8205 41.5009 24.0458 41.9822 24.2382C41.9714 24.2188 41.9674 24.1962 41.9736 24.1741ZM41.6097 22.6618C41.6682 22.6602 41.7168 22.7064 41.7183 22.765C41.7199 22.8236 41.6738 22.8723 41.6153 22.8738C41.5568 22.8754 41.5083 22.8292 41.5067 22.7706C41.5051 22.712 41.5513 22.6634 41.6097 22.6618ZM41.0547 22.8413C41.0399 22.8264 41.026 22.8115 41.013 22.7957C40.9789 22.7612 40.971 22.7086 40.9935 22.6655L41.0046 22.632C40.9823 22.4972 41.1837 22.4321 41.2069 22.5688C41.2144 22.61 41.2144 22.6522 41.2069 22.6934L41.2125 22.6999C41.2202 22.7069 41.2268 22.7151 41.232 22.7241C41.2417 22.7341 41.2507 22.7446 41.2589 22.7557C41.3183 22.8394 41.2255 22.9287 41.1475 22.9176C41.1042 22.9129 41.0678 22.883 41.0547 22.8413ZM41.2023 23.6802L41.1281 23.6105C41.0287 23.5165 41.1726 23.3612 41.2738 23.4542L41.3471 23.524C41.4464 23.617 41.3025 23.7798 41.2023 23.6802Z" fill="#311B92"/>
<path d="M41.3085 9.60587C39.4202 9.33382 37.8189 8.93714 36.5882 8.56445C35.7075 10.0768 35.1785 11.8198 35.1133 13.6811H41.0046C41.02 12.3867 41.112 11.0238 41.3085 9.60587Z" fill="#311B92"/>
<path d="M50.7461 18.5437C52.6305 18.8155 54.2299 19.211 55.459 19.5831C56.3411 18.07 56.8708 16.3258 56.936 14.4629H51.0458C51.0285 15.9276 50.9153 17.2958 50.7461 18.5437Z" fill="#311B92"/>
<path d="M41.0043 14.4629H35.1133C35.1789 16.337 35.7147 18.0911 36.6064 19.6105C38.221 19.1164 39.793 18.7733 41.3051 18.5501C41.1354 17.3005 41.0217 15.93 41.0043 14.4629Z" fill="#311B92"/>
<path d="M42.3887 23.5645C42.3378 23.6613 42.2355 23.7134 42.1329 23.705C42.1362 23.7149 42.1396 23.7247 42.1399 23.7356C42.1415 23.7942 42.0954 23.8428 42.0369 23.8444C41.9785 23.846 41.9299 23.7998 41.9283 23.7412C41.9273 23.7035 41.9473 23.6714 41.9763 23.6518C41.9498 23.6391 41.9237 23.6255 41.8986 23.61L41.8337 23.6565C41.8162 23.6708 41.7939 23.6775 41.7715 23.6751C41.8513 23.7449 41.8931 23.8453 41.972 23.9142C42.0604 23.974 42.1456 24.0386 42.2272 24.1076C42.2426 24.1253 42.252 24.1474 42.2541 24.1709C42.2839 24.1845 42.3125 24.2006 42.3395 24.2192C42.3973 24.265 42.38 24.3325 42.3351 24.3694C42.4523 24.4116 42.5705 24.4517 42.6895 24.4899C42.5943 24.211 42.4942 23.9016 42.392 23.5646C42.3908 23.5645 42.3899 23.5647 42.3887 23.5645Z" fill="#311B92"/>
<path d="M42.4721 4.41867C42.4632 4.41142 42.4542 4.40426 42.445 4.39719C42.4282 4.46062 42.3535 4.51178 42.2921 4.4676C42.2329 4.43588 42.1707 4.41002 42.1065 4.3904C42.0906 4.40714 42.0692 4.41746 42.0461 4.41923C42.049 4.4289 42.0502 4.43904 42.0498 4.44909C42.0477 4.50015 42.005 4.53968 41.9542 4.5381C41.9828 4.574 41.9862 4.62645 41.9653 4.66552C41.9785 4.70375 41.9697 4.74774 41.9384 4.77722C41.945 4.7748 41.9518 4.77322 41.9588 4.77257L42.1389 4.76792C42.1984 4.76634 42.2477 4.8134 42.2493 4.87302C42.2509 4.93264 42.2039 4.98212 42.1444 4.9837H41.9644C41.9396 4.98305 41.9157 4.97394 41.8968 4.95794C41.8506 4.91888 41.8446 4.84968 41.8836 4.80327C41.8609 4.80792 41.8371 4.80429 41.8168 4.79303C41.7268 4.74281 41.646 4.67956 41.5532 4.62562C41.4989 4.63743 41.4431 4.64022 41.388 4.63399C41.3091 4.62469 41.2952 4.54935 41.3231 4.49169C41.285 4.41728 41.336 4.30288 41.4363 4.3345C41.4668 4.34473 41.4965 4.35701 41.5257 4.37031C41.5315 4.36175 41.5383 4.35431 41.5456 4.34761C41.5006 4.31339 41.4576 4.27842 41.4186 4.24521C41.3917 4.22205 41.3816 4.19415 41.383 4.16699C41.2328 4.23777 41.0846 4.3119 40.9383 4.38928C40.9841 4.4449 40.9783 4.53782 40.8915 4.55586C40.8165 4.57493 40.7382 4.5673 40.6684 4.53679C39.2132 5.35946 37.9653 6.50682 37.0225 7.88093C38.1913 8.22581 39.6824 8.58519 41.4264 8.83613C41.6596 7.40947 41.9993 5.9323 42.4721 4.41867ZM41.8828 5.40141H41.9756C42.0351 5.39983 42.0845 5.44689 42.086 5.5065C42.0876 5.56612 42.0407 5.6156 41.9812 5.61719H41.8884C41.8289 5.61877 41.7795 5.5717 41.7779 5.51208C41.7763 5.45247 41.8233 5.40299 41.8828 5.40141ZM41.1923 4.98938L41.0067 4.90381C40.8832 4.84614 40.9844 4.6564 41.1078 4.71872L41.2934 4.80336C41.4169 4.85823 41.3166 5.04797 41.1923 4.98938Z" fill="#311B92"/>
<path d="M51.0451 13.6784H56.9358C56.8702 11.806 56.3354 10.0535 55.4453 8.53516C53.9046 9.00634 52.3321 9.36191 50.7402 9.59694C50.9373 11.017 51.0296 12.3821 51.0451 13.6784Z" fill="#311B92"/>
<path d="M48.8475 23.5531C49.1969 22.4344 49.5802 20.9605 49.8609 19.2075C47.6262 18.94 45.0242 18.8645 42.1846 19.2131C42.4426 20.8218 42.7872 22.1951 43.1125 23.2742C43.1131 23.2735 43.1132 23.2727 43.1138 23.2721C43.1806 23.1791 43.2187 23.0795 43.2864 22.9931C43.3727 22.8833 43.524 23.0358 43.4405 23.1419C43.3727 23.2349 43.3347 23.3344 43.2669 23.4209C43.2377 23.4598 43.1999 23.4653 43.1668 23.4521C43.2214 23.6289 43.2752 23.7973 43.3277 23.9567C43.3325 23.9577 43.337 23.9576 43.342 23.9594C43.3954 23.9788 43.4457 24.0057 43.4914 24.0394C43.5988 24.0494 43.6737 24.1238 43.7396 24.2131C43.7746 24.2075 43.8113 24.2218 43.8321 24.2533C43.8289 24.239 43.8285 24.2243 43.8311 24.2099C43.8418 24.1503 43.8988 24.1106 43.9583 24.1212L44.0316 24.1361C44.0682 24.1454 44.097 24.1733 44.1077 24.2096L44.1263 24.2822C44.1615 24.4161 43.9601 24.4803 43.9239 24.3454V24.3333H43.9109C43.8911 24.3293 43.8729 24.3193 43.859 24.3045C43.866 24.332 43.86 24.3597 43.8456 24.3827C43.8512 24.4074 43.8488 24.4337 43.8365 24.4568C43.8087 24.5095 43.7435 24.5296 43.691 24.5017C43.6901 24.5012 43.6893 24.5004 43.6884 24.4998C43.6414 24.5306 43.5935 24.5584 43.5421 24.58C43.5617 24.6345 43.5808 24.6869 43.5997 24.7384C43.697 24.7605 43.7949 24.7811 43.8933 24.8006C43.9097 24.7839 43.9314 24.7725 43.956 24.7696C44.0034 24.764 44.0457 24.7917 44.0638 24.8333C44.237 24.8648 44.4117 24.892 44.5875 24.9152C44.579 24.9045 44.5722 24.8911 44.5681 24.8747V24.8589C44.5524 24.8562 44.5364 24.8562 44.5207 24.8589C44.4218 24.8832 44.3632 24.7742 44.3943 24.7039C44.3615 24.7053 44.3283 24.6923 44.3054 24.658C44.2887 24.6225 44.2516 24.6013 44.2126 24.605C44.078 24.5957 44.0715 24.379 44.207 24.3892C44.2267 24.3911 44.2462 24.3942 44.2655 24.3985C44.2768 24.3919 44.2892 24.3875 44.3021 24.3856C44.3589 24.3769 44.4119 24.416 44.4205 24.4729C44.4435 24.4944 44.4643 24.518 44.4827 24.5436C44.5098 24.5801 44.5083 24.6166 44.4918 24.6456C44.5548 24.6334 44.6201 24.6381 44.6804 24.6617C44.75 24.6896 44.7574 24.7417 44.7732 24.8096C44.786 24.8654 44.7582 24.909 44.7192 24.9314C45.1472 24.9825 45.5826 25.0096 46.0243 25.0096C46.3068 25.0096 46.5868 24.9988 46.8639 24.9777C46.8201 24.9401 46.7697 24.9109 46.7147 24.8924C46.69 24.8865 46.6707 24.8715 46.6562 24.8529C46.6079 24.9144 46.497 24.9214 46.4743 24.8254L46.4697 24.8096C46.4543 24.8064 46.4386 24.8064 46.4233 24.8096C46.2905 24.8422 46.2302 24.6347 46.362 24.6022C46.4348 24.5813 46.5124 24.5849 46.5829 24.6124C46.6358 24.6334 46.6527 24.668 46.6645 24.7125C46.6901 24.6867 46.7268 24.6731 46.7648 24.6822C46.9476 24.7212 47.0358 24.9184 47.2214 24.9407C47.2247 24.9411 47.2273 24.9421 47.2303 24.9428C47.399 24.9242 47.5665 24.9021 47.7327 24.8759C47.7299 24.8668 47.7265 24.8578 47.7263 24.8477C47.7247 24.7881 47.7717 24.7386 47.8312 24.7371H47.8423L47.7927 24.6906H47.7282C47.7144 24.6906 47.7007 24.6879 47.688 24.6828C47.6452 24.6655 47.6206 24.6235 47.6222 24.5798L47.4572 24.7557C47.3606 24.857 47.2103 24.7064 47.3031 24.6068L47.4785 24.4208C47.4943 24.4032 47.5162 24.3922 47.5398 24.3901C47.5425 24.3687 47.5515 24.3487 47.5658 24.3327C47.6046 24.2889 47.6716 24.2851 47.7152 24.3241L47.7946 24.3993L47.8136 24.4032C47.8501 24.4125 47.879 24.4404 47.8897 24.4766L47.8939 24.4934L48.0864 24.6757C48.1208 24.7061 48.1297 24.7562 48.1078 24.7966C48.1096 24.8005 48.1095 24.805 48.1109 24.8091C48.2232 24.7874 48.335 24.7642 48.4461 24.739C48.5551 24.4414 48.676 24.0926 48.8025 23.6954C48.7741 23.6436 48.7846 23.5758 48.8475 23.5531ZM47.7721 22.4851H47.8649C47.914 22.4902 47.9535 22.5278 47.9611 22.5767C47.9703 22.6361 47.9298 22.6917 47.8705 22.7009H47.7776C47.7182 22.7025 47.6688 22.6554 47.6672 22.5958C47.6656 22.5362 47.7126 22.4867 47.7721 22.4851ZM46.3224 21.9866C46.3339 21.9856 46.3455 21.9852 46.3571 21.9857C46.5056 21.9914 46.6214 22.1167 46.6156 22.2656C46.6177 22.3242 46.572 22.3733 46.5136 22.3754C46.4551 22.3774 46.4061 22.3317 46.404 22.2731C46.405 22.2173 46.3827 22.2024 46.3279 22.2024C46.1915 22.2108 46.1869 21.994 46.3224 21.9866ZM45.8657 22.5354H45.9585C46.018 22.5338 46.0674 22.5808 46.069 22.6405C46.0706 22.7001 46.0236 22.7496 45.9641 22.7511H45.8713C45.8118 22.7527 45.7624 22.7057 45.7609 22.646C45.7593 22.5864 45.8062 22.5369 45.8657 22.5354ZM45.0202 23.2227C45.0871 23.1297 45.1251 23.0292 45.1929 22.9437C45.2792 22.8339 45.4305 22.9855 45.346 23.0925C45.2792 23.1855 45.2411 23.285 45.1734 23.3715C45.088 23.4803 44.9376 23.3287 45.0202 23.2227ZM43.9984 22.6739H44.0912C44.1509 22.6724 44.2005 22.7197 44.2021 22.7795C44.2037 22.8393 44.1564 22.8891 44.0968 22.8906H44.0039C43.9515 22.8873 43.9089 22.8468 43.903 22.7945C43.8961 22.7348 43.9388 22.6808 43.9984 22.6739ZM44.2091 23.7566C44.1844 23.7221 44.1446 23.7018 44.1023 23.7017C44.0771 23.701 44.0579 23.6916 44.0416 23.6793C44.0418 23.6812 44.0428 23.6829 44.0429 23.6849C44.0445 23.7435 43.9984 23.7922 43.9399 23.7938C43.8814 23.7953 43.8329 23.7491 43.8313 23.6905C43.8297 23.6319 43.8759 23.5833 43.9343 23.5817C43.9591 23.5811 43.9811 23.5904 43.9995 23.6041C43.9923 23.5465 44.0233 23.485 44.0968 23.485C44.1954 23.484 44.2896 23.5261 44.3548 23.6003C44.4448 23.7063 44.3019 23.8607 44.2091 23.7566ZM44.5005 22.3186C44.5014 22.2628 44.4791 22.248 44.4244 22.248C44.2879 22.2563 44.2833 22.0396 44.4188 22.0322C44.4303 22.0312 44.4419 22.0308 44.4535 22.0312C44.602 22.037 44.7178 22.1623 44.7121 22.3112C44.7141 22.3698 44.6685 22.4189 44.61 22.421C44.5515 22.423 44.5025 22.3772 44.5005 22.3186ZM44.6323 23.4152C44.5798 23.4119 44.5372 23.3714 44.5312 23.319C44.5243 23.2593 44.5671 23.2054 44.6267 23.1985H44.7195C44.7733 23.1971 44.8171 23.2362 44.8267 23.2876C44.8515 23.286 44.8777 23.2937 44.9014 23.3157L44.9942 23.4031C45.0935 23.498 44.9497 23.6561 44.8485 23.5603L44.7557 23.472C44.7372 23.4545 44.7272 23.4349 44.7238 23.4152H44.6323ZM44.8235 23.8598C44.764 23.8614 44.7146 23.8143 44.713 23.7547C44.7114 23.6951 44.7584 23.6456 44.8179 23.644H44.9107C44.9598 23.649 44.9993 23.6867 45.007 23.7355C45.0161 23.7949 44.9756 23.8506 44.9163 23.8598H44.8235ZM44.9174 24.2082C44.9105 24.1485 44.9533 24.0946 45.0128 24.0877H45.1919C45.2328 24.0959 45.2652 24.1268 45.2756 24.1672C45.2906 24.2254 45.2556 24.2848 45.1975 24.2997L45.0184 24.3044C44.9659 24.301 44.9233 24.2606 44.9174 24.2082ZM45.2226 24.6457C45.2193 24.6969 45.18 24.7384 45.1293 24.7443C45.0713 24.7511 45.0186 24.7094 45.0119 24.6513V24.5583C45.0151 24.5071 45.0544 24.4657 45.1051 24.4597C45.1632 24.4529 45.2158 24.4946 45.2226 24.5527V24.6457ZM46.2147 24.8877C46.2167 24.9462 46.171 24.9953 46.1126 24.9973L45.9326 25.0019C45.8731 25.0035 45.8237 24.9565 45.8221 24.8968C45.8205 24.8372 45.8675 24.7877 45.927 24.7862H45.9381L45.7395 24.6001C45.7364 24.6068 45.7323 24.6132 45.7274 24.6188L45.553 24.8048C45.4574 24.9061 45.3061 24.7555 45.3989 24.656L45.5743 24.4699C45.5906 24.4531 45.6123 24.4422 45.6356 24.4392C45.6366 24.4314 45.6394 24.4241 45.642 24.4167C45.5395 24.4864 45.4389 24.5541 45.3107 24.575C45.1761 24.5936 45.1715 24.3779 45.3052 24.3593C45.4221 24.3434 45.5149 24.2458 45.6077 24.1853C45.6087 24.1846 45.6099 24.1838 45.611 24.1831C45.6538 24.1548 45.7113 24.1666 45.7395 24.2095C45.7362 24.1948 45.7359 24.1797 45.7387 24.1649C45.7499 24.1058 45.8068 24.0671 45.8657 24.0784L45.9353 24.0867C45.9719 24.096 46.0008 24.1239 46.0115 24.1602L46.03 24.2328C46.0653 24.3667 45.863 24.4309 45.8277 24.2951V24.2839H45.8138C45.794 24.2798 45.7761 24.2694 45.7627 24.2542C45.7716 24.2876 45.7622 24.3223 45.7398 24.3471C45.7655 24.3469 45.7914 24.3554 45.8119 24.3741L46.1832 24.7248C46.2175 24.7552 46.2264 24.8053 46.2045 24.8457C46.2107 24.8588 46.2142 24.8731 46.2147 24.8877ZM46.4152 23.8179C46.3633 23.8009 46.3133 23.7788 46.2658 23.7519L46.2463 23.7603C46.3149 23.8077 46.3762 23.8598 46.4319 23.9072C46.5358 23.9956 46.3799 24.1453 46.2843 24.0635C46.1887 23.9816 46.0402 23.8403 45.9038 23.8347C45.7674 23.8291 45.7618 23.6133 45.8982 23.6189C45.9115 23.6195 45.9247 23.6216 45.9378 23.6235C45.9094 23.5974 45.898 23.5581 45.9037 23.5209C45.8705 23.4783 45.8725 23.4173 45.9121 23.3789C45.9056 23.3815 45.8987 23.3833 45.8917 23.3845H45.7117C45.6592 23.3812 45.6166 23.3407 45.6107 23.2884C45.6038 23.2286 45.6466 23.1747 45.7061 23.1678L45.8862 23.1632C45.9143 23.163 45.9415 23.1736 45.9621 23.1927C46.0067 23.2343 46.0093 23.3044 45.9678 23.3492C45.9906 23.3441 46.0144 23.3477 46.0347 23.3594C46.1238 23.4087 46.2054 23.4729 46.2982 23.5268C46.3524 23.5147 46.4082 23.5116 46.4634 23.5175C46.5423 23.5268 46.5563 23.6022 46.5284 23.6608C46.5665 23.7352 46.5154 23.8496 46.4152 23.8179ZM46.5358 23.365C46.4834 23.3616 46.4408 23.3212 46.4348 23.2688C46.4279 23.2091 46.4707 23.1552 46.5303 23.1483H46.6231C46.656 23.1474 46.6849 23.1622 46.7053 23.185L46.843 23.2478C46.9665 23.3064 46.8662 23.4961 46.7409 23.4347L46.5897 23.365H46.5358ZM47.1261 24.5964C47.1229 24.6476 47.0836 24.6891 47.0328 24.695C46.9748 24.7018 46.9222 24.6601 46.9154 24.602V24.529C46.9148 24.529 46.9142 24.5294 46.9136 24.5295H46.8208C46.7613 24.531 46.7119 24.484 46.7103 24.4244C46.7087 24.3647 46.7557 24.3153 46.8152 24.3137H46.908C46.9647 24.3122 47.0111 24.3554 47.0167 24.4111C47.0714 24.4089 47.1196 24.448 47.1261 24.5034V24.5964ZM48.3187 23.7677C48.2879 23.7575 48.258 23.7451 48.2285 23.7317C48.2228 23.7404 48.2159 23.748 48.2085 23.7548C48.2534 23.789 48.2966 23.8239 48.3354 23.857C48.4394 23.9463 48.2955 24.1072 48.1897 24.0142C48.1114 23.9409 48.0252 23.8766 47.9326 23.8226C47.9538 23.8544 47.966 23.8913 47.9679 23.9296C47.9695 23.9886 47.9237 24.0382 47.8649 24.0412C47.8182 24.041 47.7722 24.0302 47.7303 24.0095C47.7201 24.0386 47.6977 24.0617 47.6691 24.0728C47.5289 24.123 47.4268 24.0309 47.2913 24.0263C47.2085 24.0234 47.1745 23.9419 47.1913 23.8798C47.1534 23.8446 47.1087 23.8177 47.0593 23.802C47.08 23.8208 47.0918 23.8475 47.0918 23.8755L47.0959 24.0384C47.1552 24.0371 47.2044 24.084 47.2059 24.1434C47.2075 24.203 47.1605 24.2525 47.1011 24.2541L46.921 24.2587C46.8615 24.2603 46.8121 24.2132 46.8106 24.1536C46.8093 24.1035 46.8431 24.0623 46.8891 24.049L46.8848 23.883C46.8813 23.8436 46.9028 23.8064 46.9386 23.7899C46.9254 23.7822 46.915 23.7716 46.9059 23.76C46.8872 23.7888 46.8568 23.8095 46.8198 23.8104H46.727C46.6675 23.812 46.6182 23.7649 46.6166 23.7053C46.615 23.6457 46.662 23.5962 46.7215 23.5946H46.8143C46.8473 23.5938 46.8762 23.6088 46.8965 23.6316C46.9087 23.615 46.9276 23.6021 46.9544 23.5965C47.05 23.5723 47.1513 23.5903 47.2328 23.6458C47.2567 23.663 47.2813 23.6848 47.3071 23.705C47.3287 23.6462 47.3998 23.602 47.4574 23.6439C47.5181 23.6758 47.5819 23.7017 47.6477 23.7211C47.6636 23.7044 47.685 23.6941 47.708 23.6923C47.7053 23.6826 47.704 23.6725 47.7044 23.6624C47.7065 23.6111 47.7497 23.5712 47.8008 23.5732C47.8043 23.5735 47.8077 23.5743 47.8111 23.5745C47.7739 23.5397 47.7657 23.4808 47.7872 23.4376C47.7779 23.4015 47.7861 23.3619 47.8147 23.3342C47.8082 23.3351 47.8017 23.3351 47.7952 23.3342L47.6151 23.3389C47.5556 23.3404 47.5063 23.2934 47.5047 23.2338C47.5031 23.1741 47.5501 23.1247 47.6096 23.1231L47.7896 23.1184C47.8147 23.1189 47.8389 23.128 47.8581 23.1442C47.9043 23.1833 47.9103 23.2525 47.8713 23.2989C47.8942 23.294 47.9181 23.298 47.9381 23.31C48.0272 23.3593 48.1126 23.4226 48.2008 23.4765C48.2553 23.4647 48.3114 23.4619 48.3669 23.4681C48.4458 23.4774 48.4597 23.5528 48.4319 23.6104C48.47 23.6859 48.418 23.7993 48.3187 23.7677ZM48.6408 23.3845L48.4552 23.299C48.3327 23.245 48.4329 23.0543 48.5573 23.1129L48.7429 23.1985C48.87 23.2562 48.7698 23.4468 48.6408 23.3845Z" fill="#311B92"/>
<path d="M49.9696 9.69922C48.6636 9.85984 47.3464 9.94095 46.0254 9.94011C44.6176 9.94011 43.2961 9.84896 42.0799 9.70257C41.8872 11.0856 41.7963 12.4145 41.7803 13.6763H50.2686C50.2528 12.4134 50.1621 11.0833 49.9696 9.69922Z" fill="#311B92"/>
<path d="M49.3658 3.70875C49.3595 3.7095 49.3538 3.70764 49.3477 3.70727C49.367 3.76437 49.3846 3.82111 49.4035 3.87812C49.395 3.78884 49.5026 3.70243 49.578 3.78697C49.6467 3.86696 49.7571 3.90324 49.8323 3.98136C49.8967 4.06665 49.9659 4.14831 50.0393 4.22598C50.1275 4.29945 50.0393 4.42036 49.9465 4.40548C49.9913 4.45078 49.9913 4.52388 49.9465 4.56918C50.0498 4.65484 50.1466 4.74813 50.236 4.84821C50.327 4.94959 50.1831 5.10863 50.0903 5.00539C49.9895 4.89062 49.877 4.78673 49.7544 4.69567C49.7285 4.71018 49.7014 4.7219 49.6734 4.73157C50.095 6.13117 50.4039 7.49858 50.6206 8.82238C52.0338 8.61376 53.501 8.29883 55.0074 7.84895C54.0327 6.43735 52.7357 5.26619 51.2224 4.44343C51.2062 4.45868 51.1849 4.46957 51.1558 4.46957C51.0144 4.45915 50.8855 4.38446 50.8059 4.26681C50.793 4.25109 50.7858 4.23416 50.7821 4.21714C50.3481 4.0062 49.8978 3.82362 49.4341 3.6709C49.4171 3.69108 49.3935 3.7055 49.3658 3.70875ZM51.314 4.68628C51.3721 4.67949 51.4247 4.72116 51.4315 4.77929C51.4282 4.83044 51.3889 4.87192 51.3382 4.87788C51.2802 4.88467 51.2275 4.843 51.2208 4.78487C51.2239 4.73371 51.2632 4.69223 51.314 4.68628Z" fill="#311B92"/>
<path d="M41.7803 14.4629C41.797 15.8934 41.9075 17.2288 42.0728 18.4455C44.9964 18.0856 47.6759 18.1644 49.9773 18.4416C50.1422 17.2258 50.2526 15.8917 50.2696 14.4629H41.7803Z" fill="#311B92"/>
<path d="M50.6304 19.3096C50.3774 20.8964 50.0422 22.2626 49.7197 23.3557C49.7348 23.3453 49.7526 23.3375 49.776 23.3375C49.9172 23.3491 50.0458 23.4239 50.1259 23.5412C50.2122 23.6454 50.0692 23.8044 49.9801 23.6974C49.9291 23.6351 49.8688 23.5542 49.7815 23.5542C49.7285 23.5527 49.6959 23.5196 49.6831 23.4798C49.5721 23.8497 49.4634 24.1867 49.3604 24.4887C49.4119 24.4721 49.4634 24.4558 49.5145 24.4385C49.5148 24.4353 49.5141 24.432 49.5146 24.4289C49.5244 24.368 49.5816 24.3266 49.6423 24.3365L49.7156 24.3523C49.723 24.3542 49.7296 24.3573 49.7363 24.3606C49.9436 24.2855 50.1478 24.2042 50.3489 24.117C50.3614 24.0775 50.3958 24.0467 50.4396 24.0417L50.5252 24.0394C50.7059 23.9573 50.8838 23.8701 51.0592 23.7785C51.0059 23.7104 50.9502 23.6441 50.8907 23.5813C50.8025 23.5078 50.8907 23.3869 50.9835 23.4008C50.9832 23.4005 50.9829 23.4002 50.9825 23.3998C50.9382 23.3549 50.9386 23.2824 50.9835 23.2381C50.8799 23.1511 50.7831 23.0563 50.694 22.9544C50.603 22.8539 50.7459 22.694 50.8387 22.7981C50.9401 22.9125 51.053 23.016 51.1756 23.1069C51.2236 23.0801 51.2757 23.0616 51.3297 23.0521C51.4039 23.0417 51.4793 23.0465 51.5515 23.066C51.5571 23.0437 51.5627 23.0223 51.5673 23.0074C51.5849 22.9573 51.6354 22.9265 51.688 22.9339C51.6713 22.9209 51.6595 22.9025 51.6545 22.8819V22.8707H51.6406C51.5061 22.8465 51.5571 22.6326 51.6917 22.6605L51.765 22.6763C51.8015 22.6854 51.8302 22.7135 51.8402 22.7498L51.8597 22.8223C51.8624 22.8329 51.8635 22.8438 51.8629 22.8547C51.86 22.9152 51.8087 22.9619 51.7483 22.959C51.7799 22.9831 51.7914 23.0256 51.7761 23.0623L51.7474 23.1404C51.8123 23.2092 51.7659 23.3478 51.661 23.3218C51.5946 23.4498 51.438 23.5007 51.3093 23.4362C51.2614 23.4173 51.2152 23.3946 51.171 23.3683L51.106 23.4148C51.0882 23.4283 51.0661 23.4349 51.0439 23.4334C51.1237 23.5032 51.1654 23.6036 51.2443 23.6724C51.2464 23.6738 51.2483 23.6754 51.2504 23.6768C52.7601 22.8502 54.0533 21.6766 55.0239 20.2631C53.8571 19.9188 52.3697 19.5602 50.6304 19.3096ZM53.1366 21.3322C53.0888 21.3086 53.0494 21.2709 53.0234 21.2243C52.9455 21.1109 53.1246 20.9974 53.2035 21.1109C53.2083 21.1274 53.2219 21.14 53.2387 21.1434C53.3631 21.1955 53.2629 21.3862 53.1366 21.3322Z" fill="#311B92"/>
<path d="M49.7619 4.4358C49.7832 4.41998 49.8055 4.4051 49.8259 4.38929C49.844 4.37562 49.8665 4.36892 49.889 4.37069C49.8092 4.30093 49.7665 4.20048 49.6886 4.13166C49.5997 4.07232 49.5145 4.00768 49.4333 3.9382C49.4277 3.93197 49.4228 3.92555 49.4189 3.91895C49.4664 4.06264 49.5138 4.20634 49.5588 4.34948C49.5809 4.35348 49.6027 4.35906 49.6237 4.3679C49.6716 4.38641 49.7179 4.4091 49.7619 4.4358Z" fill="#311B92"/>
<path d="M43.487 4.34212L43.5055 4.33375C43.4498 4.29553 43.399 4.25395 43.3514 4.21387C43.3446 4.23461 43.3378 4.25535 43.3311 4.276C43.3333 4.27655 43.3352 4.27628 43.3375 4.27702C43.3892 4.29432 43.4392 4.31608 43.487 4.34212Z" fill="#311B92"/>
<path d="M46.7415 23.4379C46.8668 23.4993 46.967 23.3095 46.8436 23.2509L46.7058 23.1881C46.6854 23.1654 46.6565 23.1506 46.6236 23.1514H46.5308C46.4712 23.1583 46.4285 23.2122 46.4353 23.2719C46.4413 23.3243 46.4838 23.3648 46.5363 23.3681H46.5901L46.7415 23.4379Z" fill="#9696FF"/>
<path d="M46.4628 23.5175C46.4076 23.5115 46.3518 23.5147 46.2976 23.5268C46.2048 23.4728 46.1232 23.4086 46.0341 23.3593C46.0138 23.3476 45.99 23.344 45.9672 23.3491C46.0087 23.3044 46.0062 23.2343 45.9615 23.1927C45.9409 23.1735 45.9137 23.1629 45.8856 23.1631L45.7055 23.1677C45.6459 23.1746 45.6032 23.2286 45.6101 23.2883C45.6161 23.3406 45.6586 23.3811 45.7111 23.3845H45.8911C45.8981 23.3832 45.905 23.3814 45.9115 23.3789C45.8719 23.4173 45.8699 23.4783 45.9031 23.5208C45.8975 23.5579 45.9089 23.5973 45.9372 23.6234C45.924 23.6215 45.9109 23.6194 45.8976 23.6188C45.7612 23.6133 45.7668 23.829 45.9032 23.8346C46.0396 23.8402 46.1881 23.9816 46.2837 24.0634C46.3793 24.1453 46.5352 23.9955 46.4313 23.9072C46.3756 23.8597 46.3143 23.8076 46.2457 23.7602L46.2652 23.7518C46.3127 23.7787 46.3627 23.8009 46.4146 23.8179C46.5148 23.8495 46.5659 23.7351 46.5278 23.6607C46.5557 23.6021 46.5417 23.5268 46.4628 23.5175Z" fill="#9696FF"/>
<path d="M45.8712 22.7519H45.964C46.0235 22.7504 46.0705 22.7009 46.0689 22.6413C46.0673 22.5817 46.018 22.5346 45.9585 22.5362H45.8657C45.8062 22.5378 45.7592 22.5872 45.7608 22.6468C45.7624 22.7065 45.8117 22.7535 45.8712 22.7519Z" fill="#9696FF"/>
<path d="M46.1838 24.7216L45.8126 24.371C45.7921 24.3522 45.7662 24.3437 45.7405 24.3439C45.7628 24.3191 45.7723 24.2845 45.7634 24.251C45.7768 24.2662 45.7947 24.2766 45.8144 24.2807H45.8284V24.2919C45.8636 24.4277 46.066 24.3635 46.0307 24.2296L46.0121 24.157C46.0015 24.1208 45.9726 24.0929 45.936 24.0836L45.8664 24.0752C45.8075 24.0639 45.7507 24.1026 45.7394 24.1617C45.7366 24.1765 45.7369 24.1916 45.7402 24.2063C45.712 24.1635 45.6544 24.1516 45.6117 24.1799C45.6105 24.1807 45.6095 24.1814 45.6084 24.1821C45.5156 24.2426 45.4228 24.3403 45.3058 24.3561C45.1722 24.3747 45.1768 24.5905 45.3114 24.5719C45.4396 24.5509 45.5403 24.4832 45.6427 24.4136C45.6401 24.4209 45.6372 24.4283 45.6363 24.4361C45.613 24.439 45.5913 24.4499 45.575 24.4668L45.3996 24.6528C45.3068 24.7523 45.4581 24.903 45.5537 24.8016L45.7281 24.6156C45.733 24.61 45.737 24.6037 45.7402 24.597L45.9388 24.783H45.9277C45.8682 24.7846 45.8212 24.834 45.8228 24.8937C45.8244 24.9533 45.8738 25.0003 45.9332 24.9988L46.1133 24.9941C46.1717 24.9921 46.2174 24.9431 46.2154 24.8845C46.2149 24.8699 46.2114 24.8557 46.2052 24.8425C46.227 24.8021 46.2182 24.752 46.1838 24.7216Z" fill="#9696FF"/>
<path d="M44.6088 22.4182C44.6673 22.4162 44.7129 22.3671 44.7109 22.3085C44.7166 22.1597 44.6008 22.0343 44.4523 22.0285C44.4407 22.0281 44.4291 22.0284 44.4176 22.0295C44.2821 22.0369 44.2867 22.2536 44.4232 22.2452C44.4779 22.2452 44.5002 22.2601 44.4993 22.3159C44.5013 22.3745 44.5503 22.4203 44.6088 22.4182Z" fill="#9696FF"/>
<path d="M44.0965 23.4824C44.023 23.4824 43.9921 23.544 43.9993 23.6016C43.9809 23.5878 43.9589 23.5785 43.9341 23.5792C43.8756 23.5808 43.8295 23.6294 43.8311 23.688C43.8327 23.7466 43.8812 23.7928 43.9397 23.7912C43.9982 23.7897 44.0443 23.741 44.0427 23.6824C44.0426 23.6804 44.0416 23.6787 44.0414 23.6767C44.0576 23.6891 44.0769 23.6985 44.1021 23.6992C44.1444 23.6992 44.1841 23.7196 44.2088 23.754C44.3016 23.8582 44.4446 23.7038 44.3546 23.5978C44.2894 23.5235 44.1952 23.4814 44.0965 23.4824Z" fill="#9696FF"/>
<path d="M45.1959 24.297C45.254 24.282 45.289 24.2227 45.274 24.1645C45.2636 24.1241 45.2311 24.0931 45.1903 24.085H45.0112C44.9516 24.0918 44.9089 24.1458 44.9158 24.2055C44.9218 24.2579 44.9643 24.2983 45.0167 24.3017L45.1959 24.297Z" fill="#9696FF"/>
<path d="M45.0088 23.739C45.0012 23.6901 44.9617 23.6525 44.9126 23.6475H44.8198C44.7603 23.649 44.7133 23.6985 44.7149 23.7581C44.7165 23.8178 44.7658 23.8648 44.8253 23.8632H44.9181C44.9774 23.854 45.018 23.7984 45.0088 23.739Z" fill="#9696FF"/>
<path d="M44.7702 24.8119C44.7544 24.744 44.747 24.692 44.6774 24.6641C44.6171 24.6404 44.5518 24.6357 44.4888 24.648C44.5053 24.6189 44.5067 24.5824 44.4797 24.5459C44.4613 24.5204 44.4405 24.4967 44.4175 24.4753C44.4088 24.4183 44.3559 24.3793 44.2991 24.3879C44.2862 24.3899 44.2737 24.3942 44.2625 24.4008C44.2432 24.3966 44.2237 24.3934 44.204 24.3915C44.0685 24.3813 44.075 24.598 44.2096 24.6073C44.2486 24.6036 44.2857 24.6248 44.3024 24.6603C44.3253 24.6947 44.3585 24.7077 44.3913 24.7063C44.3602 24.7765 44.4188 24.8855 44.5177 24.8612C44.5334 24.8585 44.5494 24.8585 44.565 24.8612V24.877C44.5692 24.8935 44.576 24.9068 44.5845 24.9175C44.6283 24.9233 44.6722 24.9285 44.7162 24.9338C44.7552 24.9114 44.783 24.8677 44.7702 24.8119Z" fill="#9696FF"/>
<path d="M45.103 24.4636C45.0523 24.4696 45.013 24.511 45.0098 24.5622V24.6552C45.0165 24.7133 45.0691 24.755 45.1272 24.7482C45.1779 24.7423 45.2172 24.7008 45.2205 24.6496V24.5566C45.2137 24.4985 45.1611 24.4568 45.103 24.4636Z" fill="#9696FF"/>
<path d="M46.7655 24.6803C46.7275 24.6712 46.6908 24.6849 46.6652 24.7107C46.6534 24.666 46.6365 24.6315 46.5836 24.6106C46.5131 24.583 46.4355 24.5794 46.3627 24.6003C46.2309 24.6329 46.2912 24.8403 46.424 24.8078C46.4393 24.8046 46.455 24.8046 46.4704 24.8078L46.475 24.8236C46.4977 24.9196 46.6086 24.9126 46.6569 24.8511C46.6714 24.8696 46.6908 24.8847 46.7154 24.8905C46.7703 24.909 46.8208 24.9383 46.8646 24.9758C46.9874 24.9664 47.1095 24.9543 47.231 24.9409C47.228 24.9403 47.2254 24.9393 47.2221 24.9389C47.0365 24.9166 46.9483 24.7194 46.7655 24.6803Z" fill="#9696FF"/>
<path d="M43.2667 23.4219C43.3345 23.3354 43.3725 23.2359 43.4403 23.1428C43.5238 23.0368 43.3725 22.8843 43.2862 22.994C43.2185 23.0805 43.1804 23.18 43.1136 23.2731C43.113 23.2738 43.1128 23.2745 43.1123 23.2752C43.1305 23.3356 43.1486 23.3946 43.1667 23.4531C43.1997 23.4663 43.2375 23.4607 43.2667 23.4219Z" fill="#9696FF"/>
<path d="M41.9893 22.8363C41.9909 22.8959 42.0403 22.943 42.0997 22.9414H42.1926C42.198 22.9412 42.2027 22.9388 42.2079 22.9378C42.1885 22.8685 42.1691 22.7968 42.1497 22.7256H42.0942C42.0347 22.7272 41.9877 22.7766 41.9893 22.8363Z" fill="#9696FF"/>
<path d="M40.5688 23.4317L40.5966 23.3536C40.6127 23.3174 40.6015 23.2749 40.5697 23.2513C40.6301 23.2543 40.6816 23.2077 40.6846 23.1472C40.6852 23.1359 40.684 23.1246 40.6811 23.1136L40.6616 23.0411C40.6509 23.0048 40.6221 22.9769 40.5855 22.9676L40.5131 22.9527C40.3785 22.9248 40.3275 23.1387 40.4621 23.1629H40.4751V23.1741C40.48 23.1947 40.4918 23.2131 40.5085 23.2261C40.456 23.2178 40.4052 23.2484 40.3878 23.2987C40.3822 23.3145 40.3776 23.335 40.3711 23.3573C40.3235 23.3447 40.2746 23.339 40.2256 23.339C40.3456 23.4145 40.4668 23.4883 40.5899 23.5593C40.6055 23.5189 40.6007 23.4673 40.5688 23.4317Z" fill="#9696FF"/>
<path d="M51.045 23.4356C51.0673 23.4371 51.0894 23.4305 51.1072 23.417L51.1722 23.3705C51.2163 23.3968 51.2626 23.4195 51.3105 23.4384C51.4392 23.5029 51.5958 23.4519 51.6622 23.324C51.7671 23.35 51.8135 23.2114 51.7485 23.1426L51.7773 23.0645C51.7925 23.0277 51.7811 22.9853 51.7495 22.9612C51.8099 22.9641 51.8612 22.9174 51.8641 22.8569C51.8646 22.846 51.8635 22.8351 51.8608 22.8245L51.8413 22.7519C51.8314 22.7157 51.8026 22.6876 51.7662 22.6785L51.6928 22.6627C51.5583 22.6348 51.5072 22.8487 51.6418 22.8729H51.6557V22.884C51.6605 22.9047 51.6724 22.9231 51.6891 22.9361C51.6366 22.9287 51.5861 22.9595 51.5685 23.0096C51.5638 23.0245 51.5583 23.0459 51.5527 23.0682C51.4804 23.0486 51.405 23.0439 51.3309 23.0542C51.2769 23.0638 51.2248 23.0823 51.1768 23.1091C51.0542 23.0181 50.9413 22.9146 50.8399 22.8003C50.7471 22.6961 50.6042 22.8561 50.6951 22.9566C50.7842 23.0585 50.881 23.1533 50.9847 23.2402C50.9399 23.2846 50.9394 23.3571 50.9837 23.402C50.9839 23.4024 50.9843 23.4026 50.9847 23.403C50.8919 23.3891 50.8037 23.51 50.8919 23.5835C50.9514 23.6462 51.0071 23.7125 51.0603 23.7807C51.1244 23.7473 51.1882 23.7136 51.2515 23.6789C51.2495 23.6775 51.2475 23.6759 51.2455 23.6745C51.1666 23.6058 51.1248 23.5053 51.045 23.4356Z" fill="#9696FF"/>
<path d="M50.3496 24.1148C50.4085 24.0893 50.4676 24.0637 50.526 24.0371L50.4403 24.0393C50.3965 24.0444 50.3621 24.0752 50.3496 24.1148Z" fill="#9696FF"/>
<path d="M48.7428 23.2001L48.5572 23.1146C48.4328 23.056 48.3326 23.2467 48.4551 23.3006L48.6407 23.3862C48.7697 23.4485 48.87 23.2578 48.7428 23.2001Z" fill="#9696FF"/>
<path d="M48.3676 23.4649C48.312 23.4587 48.256 23.4615 48.2014 23.4733C48.1132 23.4194 48.0279 23.3561 47.9388 23.3068C47.9187 23.2948 47.8949 23.2908 47.8719 23.2957C47.9109 23.2494 47.905 23.1801 47.8588 23.141C47.8395 23.1248 47.8154 23.1157 47.7903 23.1152L47.6102 23.1199C47.5507 23.1215 47.5038 23.1709 47.5053 23.2306C47.5069 23.2902 47.5563 23.3372 47.6158 23.3357L47.7958 23.331C47.8023 23.3319 47.8088 23.3319 47.8153 23.331C47.7867 23.3587 47.7786 23.3984 47.7879 23.4344C47.7662 23.4776 47.7745 23.5365 47.8118 23.5714C47.8084 23.5711 47.8049 23.5702 47.8015 23.57C47.7503 23.568 47.7071 23.6079 47.7051 23.6592C47.7047 23.6693 47.7059 23.6794 47.7087 23.6891C47.6857 23.6909 47.6642 23.7012 47.6484 23.7179C47.5826 23.6985 47.5188 23.6726 47.4581 23.6407C47.4004 23.5988 47.3293 23.643 47.3077 23.7018C47.2819 23.6817 47.2574 23.6598 47.2335 23.6426C47.1519 23.5871 47.0507 23.5691 46.9551 23.5933C46.9282 23.5989 46.9094 23.6118 46.8971 23.6285C46.8768 23.6056 46.848 23.5906 46.8149 23.5914H46.7221C46.6626 23.593 46.6156 23.6425 46.6172 23.7021C46.6188 23.7617 46.6682 23.8088 46.7277 23.8072H46.8205C46.8574 23.8063 46.8879 23.7856 46.9065 23.7568C46.9156 23.7684 46.926 23.7791 46.9393 23.7868C46.9035 23.8032 46.8819 23.8404 46.8854 23.8798L46.8897 24.0458C46.8438 24.0591 46.8099 24.1003 46.8112 24.1504C46.8128 24.21 46.8622 24.2571 46.9216 24.2555L47.1017 24.2509C47.1612 24.2493 47.2082 24.1998 47.2066 24.1402C47.2051 24.0808 47.1558 24.0339 47.0966 24.0352L47.0924 23.8723C47.0924 23.8443 47.0806 23.8176 47.0599 23.7989C47.1092 23.8145 47.154 23.8414 47.1919 23.8766C47.1752 23.9386 47.2092 24.0202 47.292 24.0231C47.4275 24.0277 47.5296 24.1198 47.6697 24.0696C47.6984 24.0585 47.7207 24.0354 47.731 24.0064C47.7728 24.027 47.8188 24.0378 47.8655 24.038C47.9244 24.035 47.9701 23.9854 47.9686 23.9264C47.9666 23.8881 47.9544 23.8512 47.9333 23.8194C48.0258 23.8734 48.112 23.9377 48.1904 24.011C48.2962 24.104 48.44 23.9431 48.3361 23.8538C48.2972 23.8207 48.254 23.7857 48.2091 23.7516C48.2165 23.7447 48.2234 23.7372 48.2292 23.7285C48.2587 23.742 48.2886 23.7544 48.3194 23.7645C48.4187 23.7962 48.4707 23.6827 48.4326 23.6073C48.4604 23.5496 48.4464 23.4742 48.3676 23.4649Z" fill="#9696FF"/>
<path d="M48.8022 23.6948C48.817 23.6481 48.832 23.6008 48.847 23.5527C48.7842 23.5755 48.7736 23.6433 48.8022 23.6948Z" fill="#9696FF"/>
<path d="M47.7775 22.705H47.8703C47.9295 22.6958 47.9702 22.6402 47.961 22.5808C47.9534 22.5319 47.9138 22.4943 47.8647 22.4893H47.7719C47.7124 22.4908 47.6655 22.5403 47.667 22.5999C47.6686 22.6596 47.718 22.7066 47.7775 22.705Z" fill="#9696FF"/>
<path d="M49.7801 23.5566C49.8674 23.5566 49.9277 23.6375 49.9787 23.6998C50.0678 23.8067 50.2108 23.6477 50.1244 23.5435C50.0443 23.4262 49.9158 23.3515 49.7745 23.3398C49.7512 23.3398 49.7334 23.3477 49.7183 23.3581C49.7061 23.3996 49.6938 23.4415 49.6816 23.4821C49.6944 23.522 49.7271 23.5551 49.7801 23.5566Z" fill="#9696FF"/>
<path d="M49.6416 24.3345C49.5809 24.3246 49.5237 24.366 49.5139 24.4268C49.5133 24.4301 49.514 24.4332 49.5138 24.4365C49.5882 24.4114 49.662 24.3852 49.7356 24.3585C49.729 24.3552 49.7223 24.352 49.7149 24.3502L49.6416 24.3345Z" fill="#9696FF"/>
<path d="M48.0859 24.6763L47.8934 24.494L47.8891 24.4773C47.8784 24.441 47.8496 24.4131 47.813 24.4038L47.7941 24.4L47.7146 24.3248C47.671 24.2858 47.6042 24.2896 47.5652 24.3333C47.5509 24.3494 47.5418 24.3694 47.5392 24.3908C47.5156 24.3928 47.4937 24.4038 47.478 24.4215L47.3025 24.6075C47.2097 24.707 47.3601 24.8577 47.4566 24.7563L47.6216 24.5804C47.6201 24.6241 47.6446 24.6662 47.6874 24.6835C47.7002 24.6886 47.7139 24.6913 47.7276 24.6912H47.7921L47.8418 24.7377H47.8306C47.7712 24.7393 47.7242 24.7888 47.7258 24.8484C47.726 24.8584 47.7294 24.8674 47.7322 24.8766C47.859 24.8566 47.985 24.8341 48.1103 24.8098C48.1089 24.8057 48.1091 24.8011 48.1071 24.7972C48.1291 24.7569 48.1202 24.7067 48.0859 24.6763Z" fill="#9696FF"/>
<path d="M46.3265 22.2042C46.3812 22.2042 46.4035 22.2191 46.4026 22.2749C46.4046 22.3335 46.4536 22.3793 46.5121 22.3772C46.5706 22.3752 46.6162 22.3261 46.6142 22.2675C46.6199 22.1187 46.5041 21.9933 46.3556 21.9875C46.344 21.9871 46.3324 21.9873 46.3209 21.9885C46.1854 21.9959 46.19 22.2126 46.3265 22.2042Z" fill="#9696FF"/>
<path d="M47.0154 24.4128C47.0098 24.3572 46.9634 24.314 46.9067 24.3155H46.8139C46.7544 24.317 46.7074 24.3665 46.709 24.4261C46.7106 24.4858 46.76 24.5328 46.8195 24.5312H46.9123C46.9129 24.5312 46.9135 24.5309 46.9141 24.5308V24.6038C46.9209 24.6619 46.9734 24.7036 47.0315 24.6968C47.0823 24.6909 47.1216 24.6494 47.1248 24.5982V24.5052C47.1183 24.4498 47.0701 24.4107 47.0154 24.4128Z" fill="#9696FF"/>
<path d="M44.7565 23.4717L44.8493 23.5601C44.9504 23.6559 45.0943 23.4978 44.995 23.4029L44.9022 23.3155C44.8783 23.2936 44.8522 23.2858 44.8275 23.2874C44.8179 23.2359 44.7742 23.1969 44.7203 23.1983H44.6275C44.5679 23.2052 44.5252 23.2591 44.532 23.3188C44.538 23.3712 44.5805 23.4116 44.633 23.415H44.7245C44.728 23.4347 44.738 23.4542 44.7565 23.4717Z" fill="#9696FF"/>
<path d="M45.1723 23.3683C45.24 23.2818 45.2781 23.1823 45.3449 23.0893C45.4293 22.9823 45.2781 22.8307 45.1917 22.9404C45.124 23.026 45.0859 23.1265 45.0191 23.2195C44.9365 23.3255 45.0869 23.4771 45.1723 23.3683Z" fill="#9696FF"/>
<path d="M44.0031 22.8945H44.0959C44.1556 22.8929 44.2028 22.8431 44.2012 22.7833C44.1996 22.7235 44.15 22.6762 44.0903 22.6778H43.9975C43.9379 22.6847 43.8952 22.7386 43.9021 22.7983C43.908 22.8507 43.9506 22.8911 44.0031 22.8945Z" fill="#9696FF"/>
<path d="M43.6885 24.5001C43.741 24.528 43.8061 24.5079 43.834 24.4552C43.8462 24.432 43.8487 24.4058 43.8431 24.3811C43.8576 24.3582 43.8635 24.3304 43.8564 24.3028C43.8704 24.3176 43.8886 24.3277 43.9084 24.3317H43.9214V24.3438C43.9576 24.4786 44.159 24.4144 44.1237 24.2805L44.1052 24.208C44.0945 24.1717 44.0656 24.1438 44.0291 24.1345L43.9558 24.1196C43.8963 24.1089 43.8393 24.1485 43.8286 24.2082C43.826 24.2227 43.8264 24.2375 43.8295 24.2517C43.8087 24.2202 43.7721 24.2057 43.7371 24.2115C43.6712 24.1222 43.5964 24.0478 43.4889 24.0378C43.4432 24.0041 43.3929 23.9771 43.3395 23.9578C43.3345 23.9559 43.33 23.9561 43.3252 23.9551C43.3691 24.0881 43.4119 24.2141 43.4537 24.3347C43.4609 24.3307 43.4683 24.3275 43.4745 24.3215C43.4769 24.3192 43.4794 24.3167 43.4815 24.3141C43.4924 24.3282 43.506 24.3399 43.5179 24.3532C43.5018 24.3627 43.4855 24.3711 43.4689 24.3784C43.4929 24.4472 43.5165 24.5138 43.5397 24.5783C43.5911 24.5567 43.639 24.5289 43.686 24.4982C43.6868 24.4987 43.6875 24.4995 43.6885 24.5001Z" fill="#9696FF"/>
<path d="M42.338 24.2137C42.311 24.1951 42.2824 24.179 42.2526 24.1654C42.2505 24.1419 42.2411 24.1198 42.2257 24.1021C42.1441 24.0331 42.0589 23.9685 41.9705 23.9087C41.8916 23.8398 41.8498 23.7394 41.77 23.6696C41.7924 23.672 41.8147 23.6653 41.8322 23.651L41.8972 23.6045C41.9222 23.62 41.9483 23.6336 41.9748 23.6463C41.9458 23.6659 41.9258 23.6979 41.9269 23.7357C41.9284 23.7943 41.977 23.8405 42.0355 23.8389C42.0939 23.8373 42.1401 23.7887 42.1385 23.7301C42.1382 23.7192 42.1348 23.7093 42.1314 23.6995C42.2341 23.708 42.3363 23.6558 42.3872 23.559C42.3884 23.5592 42.3893 23.559 42.3905 23.5591C42.3587 23.454 42.3267 23.3468 42.2946 23.2362C42.294 23.2375 42.293 23.2385 42.2925 23.2398C42.287 23.2557 42.2823 23.2761 42.2758 23.2984C42.2038 23.2794 42.1288 23.2747 42.0549 23.2845C42.0006 23.2945 41.9482 23.3133 41.9 23.3403C41.7773 23.2492 41.6648 23.1453 41.564 23.0306C41.4712 22.9273 41.3282 23.0864 41.4183 23.1878C41.508 23.2877 41.6047 23.3808 41.7078 23.4668C41.6635 23.5123 41.6635 23.585 41.7078 23.6305C41.615 23.6156 41.5278 23.7365 41.615 23.81C41.6882 23.8877 41.7569 23.9693 41.8211 24.0546C41.8672 24.0973 41.918 24.1348 41.9723 24.1662C41.9662 24.1884 41.9702 24.211 41.9809 24.2301C42.0975 24.2767 42.2151 24.3212 42.3337 24.3639C42.3786 24.327 42.3958 24.2595 42.338 24.2137Z" fill="#9696FF"/>
<path d="M53.2414 21.144C53.2245 21.1406 53.2109 21.128 53.2061 21.1115C53.1272 20.998 52.9481 21.1115 53.0261 21.2249C53.0521 21.2715 53.0915 21.3092 53.1393 21.3328C53.2655 21.3868 53.3658 21.1961 53.2414 21.144Z" fill="#9696FF"/>
<path d="M41.2739 23.4515C41.1727 23.3585 41.0289 23.5138 41.1282 23.6077L41.2024 23.6775C41.3026 23.777 41.4465 23.6142 41.3472 23.5212L41.2739 23.4515Z" fill="#9696FF"/>
<path d="M41.2576 22.7519C41.2494 22.7408 41.2404 22.7302 41.2307 22.7203C41.2255 22.7113 41.2189 22.7031 41.2112 22.6961L41.2056 22.6896C41.2131 22.6484 41.2131 22.6062 41.2056 22.565C41.1824 22.4282 40.981 22.4933 41.0033 22.6282L40.9922 22.6617C40.9697 22.7048 40.9776 22.7574 41.0117 22.7919C41.0247 22.8077 41.0386 22.8226 41.0534 22.8375C41.0665 22.8792 41.1029 22.9091 41.1462 22.9138C41.2242 22.9249 41.317 22.8356 41.2576 22.7519Z" fill="#9696FF"/>
<path d="M41.6164 22.8723C41.6749 22.8707 41.721 22.822 41.7195 22.7634C41.7179 22.7048 41.6693 22.6586 41.6109 22.6602C41.5524 22.6618 41.5063 22.7104 41.5079 22.769C41.5094 22.8276 41.558 22.8738 41.6164 22.8723Z" fill="#9696FF"/>
<path d="M43.9552 24.7712C43.9306 24.7741 43.9089 24.7857 43.8926 24.8023C43.9493 24.8135 44.0061 24.8247 44.0631 24.8351C44.045 24.7933 44.0026 24.7656 43.9552 24.7712Z" fill="#9696FF"/>
<path d="M43.2888 4.58167C43.3439 4.58791 43.3997 4.58512 43.454 4.5733C43.5468 4.62725 43.6276 4.6905 43.7176 4.73979C43.7377 4.75179 43.7615 4.75579 43.7844 4.75095C43.7454 4.79727 43.7513 4.86656 43.7976 4.90562C43.8165 4.92162 43.8404 4.93074 43.8652 4.93139L44.0452 4.92674C44.1047 4.92516 44.1517 4.87568 44.1501 4.81606C44.1485 4.75644 44.0992 4.70938 44.0397 4.71096L43.8596 4.71561C43.8526 4.71626 43.8458 4.71784 43.8392 4.72026C43.8794 4.68222 43.8819 4.62083 43.8483 4.57814C43.8537 4.5414 43.8426 4.50234 43.8149 4.4763C43.8279 4.47825 43.8409 4.48039 43.854 4.48123C43.9905 4.48681 43.984 4.2701 43.8485 4.26452C43.713 4.25894 43.5635 4.11756 43.467 4.03571C43.4517 4.02279 43.435 4.01618 43.418 4.01367C43.395 4.08231 43.3734 4.15058 43.3509 4.21904C43.3985 4.25912 43.4494 4.3007 43.5051 4.33892L43.4865 4.34729C43.4387 4.32125 43.3887 4.29949 43.3371 4.28219C43.3348 4.28145 43.3328 4.28172 43.3306 4.28117C43.3001 4.37455 43.2687 4.46821 43.2393 4.56122C43.2515 4.57163 43.2677 4.57916 43.2888 4.58167Z" fill="#9696FF"/>
<path d="M43.8801 5.34867H43.7873C43.728 5.35788 43.6874 5.4135 43.6966 5.47293C43.7042 5.52186 43.7437 5.55943 43.7929 5.56445H43.8857C43.9452 5.56287 43.9921 5.51339 43.9905 5.45377C43.989 5.39415 43.9396 5.34709 43.8801 5.34867Z" fill="#9696FF"/>
<path d="M43.9365 3.72374C43.958 3.74299 43.9853 3.75164 44.012 3.75034C43.99 3.77517 43.9805 3.8094 43.9884 3.84279C43.9754 3.82726 43.9573 3.81665 43.9374 3.81303H43.9244V3.80187C43.8891 3.667 43.6877 3.73118 43.7221 3.86418L43.7416 3.93673C43.7521 3.97272 43.7805 4.00063 43.8167 4.0102L43.8901 4.02602C43.9495 4.03727 44.0068 3.99811 44.018 3.93859C44.0208 3.9238 44.0206 3.90864 44.0172 3.89394C44.0454 3.93682 44.103 3.94863 44.1458 3.92036C44.1469 3.91961 44.1479 3.91887 44.149 3.91813C44.2418 3.85767 44.3346 3.76001 44.4516 3.7442C44.5308 3.73313 44.5611 3.65296 44.5446 3.59325C44.5633 3.62599 44.5977 3.64849 44.6381 3.64747C44.6966 3.64589 44.7427 3.59725 44.7411 3.53865V3.44564C44.7396 3.38705 44.691 3.34082 44.6325 3.3424C44.5741 3.34398 44.5279 3.39263 44.5295 3.45122V3.54423C44.5298 3.55363 44.5331 3.562 44.5356 3.57065C44.5195 3.54163 44.4894 3.52238 44.4451 3.52842C44.3107 3.54442 44.2091 3.61269 44.1045 3.68393C44.1079 3.67547 44.1108 3.66682 44.1119 3.6577C44.1355 3.65566 44.1574 3.64468 44.1731 3.62701L44.3485 3.44099C44.4116 3.37347 44.3625 3.28251 44.2945 3.2627C44.2676 3.26697 44.2408 3.27162 44.214 3.27609C44.2077 3.28055 44.2014 3.28585 44.1954 3.29227L44.02 3.47829C44.0154 3.48396 44.0116 3.4902 44.0089 3.49689L43.8447 3.3438C43.774 3.35812 43.7038 3.37356 43.6336 3.38928C43.6294 3.40128 43.6254 3.41318 43.6211 3.42518L43.9365 3.72374Z" fill="#9696FF"/>
<path d="M45.135 5.68048C45.084 5.68671 45.0449 5.72884 45.0422 5.78027C45.0365 5.92909 45.1523 6.05446 45.3009 6.06013C45.3121 6.0606 45.3233 6.06032 45.3345 6.0593C45.471 6.05186 45.4654 5.83515 45.329 5.84352C45.2742 5.84352 45.2529 5.82864 45.2529 5.77283C45.2457 5.7147 45.193 5.67341 45.135 5.68048Z" fill="#9696FF"/>
<path d="M45.6583 4.61419C45.7353 4.61419 45.7651 4.54704 45.7535 4.48751C45.7741 4.50221 45.7997 4.51039 45.8268 4.50723C45.8775 4.50128 45.9168 4.45979 45.92 4.40864C45.9133 4.35051 45.8607 4.30884 45.8026 4.31563C45.7519 4.32158 45.7126 4.36306 45.7094 4.41422C45.7096 4.41617 45.7108 4.41766 45.7111 4.41961C45.6951 4.40799 45.6763 4.39906 45.6518 4.39841C45.6098 4.39757 45.5705 4.37683 45.546 4.3426C45.4495 4.23843 45.3075 4.39748 45.4003 4.49886C45.4654 4.57327 45.5597 4.6154 45.6583 4.61419Z" fill="#9696FF"/>
<path d="M44.5532 3.79375C44.4937 3.79533 44.4467 3.84482 44.4483 3.90444C44.4499 3.96406 44.4992 4.01112 44.5587 4.00954L44.7388 4.00489C44.7983 4.0033 44.8452 3.95382 44.8437 3.8942C44.8421 3.83458 44.7927 3.78752 44.7332 3.7891L44.5532 3.79375Z" fill="#9696FF"/>
<path d="M45.6454 3.8908C45.6559 3.92679 45.6844 3.95469 45.7206 3.96427L45.7939 3.97915C45.8534 3.99031 45.9106 3.95107 45.9217 3.89145C45.9244 3.87712 45.9242 3.86233 45.921 3.84801C45.9419 3.87982 45.979 3.89424 46.0142 3.88828C46.0799 3.9772 46.1546 4.05105 46.2617 4.061C46.3065 4.0956 46.3566 4.12257 46.4102 4.14099C46.503 4.17447 46.5587 4.06658 46.5262 3.99031C46.5493 3.94967 46.5407 3.89842 46.5057 3.86754L46.4129 3.78012C46.3762 3.74003 46.3139 3.73742 46.2739 3.77435C46.2719 3.77621 46.27 3.77816 46.2682 3.78012C46.258 3.767 46.247 3.75472 46.2361 3.74235C46.2733 3.72068 46.3123 3.70394 46.3545 3.69827C46.3839 3.69418 46.4062 3.68041 46.4224 3.66209C46.4166 3.68255 46.4145 3.70422 46.4215 3.72598C46.4272 3.74384 46.4373 3.75993 46.451 3.77277C46.4613 3.78588 46.4732 3.79779 46.4863 3.80811C46.4937 3.81462 46.5252 3.85833 46.5215 3.83322C46.5419 3.96902 46.7536 3.9653 46.7331 3.82764C46.7329 3.8255 46.7329 3.82327 46.7331 3.82113C46.7912 3.83797 46.8519 3.80448 46.8688 3.74626C46.8797 3.70868 46.8698 3.66804 46.8427 3.63977C46.7445 3.55941 46.6103 3.53904 46.4928 3.58675C46.4744 3.5927 46.4599 3.60396 46.4476 3.61707C46.4672 3.55094 46.4336 3.47095 46.3489 3.48258C46.2401 3.4956 46.1527 3.54341 46.0676 3.59912C46.0651 3.59754 46.0628 3.59577 46.0603 3.59419C46.0084 3.56517 45.9428 3.58377 45.9138 3.63577C45.899 3.66227 45.8968 3.69306 45.9057 3.72096C45.8925 3.74347 45.8869 3.77026 45.8933 3.79686C45.8802 3.78132 45.8622 3.77072 45.8422 3.76709H45.8283V3.75593C45.7931 3.62014 45.5917 3.68432 45.626 3.81825L45.6454 3.8908Z" fill="#9696FF"/>
<path d="M44.7354 4.349C44.737 4.40862 44.7863 4.45568 44.8458 4.4541H44.9386C44.9981 4.45252 45.0451 4.40304 45.0435 4.34342C45.0419 4.2838 44.9926 4.23674 44.9331 4.23832H44.8403C44.7808 4.2399 44.7338 4.28938 44.7354 4.349Z" fill="#9696FF"/>
<path d="M44.9779 3.28823C44.9937 3.35612 45.0011 3.40821 45.0707 3.43611C45.1309 3.45955 45.196 3.46457 45.2592 3.45285C45.2436 3.48159 45.2426 3.51759 45.2684 3.5533C45.2867 3.5786 45.3072 3.60231 45.3297 3.62399C45.3383 3.68091 45.3913 3.71997 45.4481 3.71132C45.461 3.70937 45.4735 3.705 45.4847 3.69839C45.504 3.70258 45.5235 3.70565 45.5432 3.7077C45.6796 3.71793 45.6731 3.50215 45.5376 3.49192C45.4992 3.49424 45.4629 3.47387 45.4448 3.43983C45.4215 3.40616 45.3892 3.39314 45.3574 3.39398C45.3885 3.32338 45.3299 3.21475 45.2304 3.23893C45.2151 3.2421 45.1993 3.2421 45.184 3.23893V3.22312C45.1761 3.19326 45.1596 3.17374 45.1393 3.16211C45.0993 3.16527 45.0595 3.16908 45.0197 3.1728C44.987 3.19661 44.9661 3.23717 44.9779 3.28823Z" fill="#9696FF"/>
<path d="M46.6594 4.64971L46.7522 4.73714C46.8525 4.83015 46.9963 4.67482 46.897 4.58088L46.8042 4.49252C46.704 4.39672 46.5601 4.55577 46.6594 4.64971Z" fill="#9696FF"/>
<path d="M46.4802 4.67724C46.4124 4.76373 46.3744 4.86325 46.3076 4.95626C46.224 5.06322 46.3753 5.21483 46.4607 5.10508C46.5285 5.01951 46.5665 4.91906 46.6333 4.82605C46.7178 4.72002 46.5665 4.56842 46.4802 4.67724Z" fill="#9696FF"/>
<path d="M47.6523 5.16016H47.5595C47.4998 5.16174 47.4526 5.2115 47.4541 5.2713C47.4557 5.33111 47.5054 5.37845 47.5651 5.37687H47.6579C47.7174 5.36998 47.7601 5.31604 47.7534 5.25633C47.7473 5.20396 47.7047 5.1635 47.6523 5.16016Z" fill="#9696FF"/>
<path d="M47.341 3.67011C47.3995 3.66853 47.4456 3.61988 47.4441 3.56129C47.4425 3.50269 47.3939 3.45647 47.3355 3.45805C47.277 3.45963 47.2309 3.50827 47.2325 3.56687C47.234 3.62546 47.2826 3.67169 47.341 3.67011Z" fill="#9696FF"/>
<path d="M50.0916 5.00587C50.1844 5.10911 50.3282 4.95006 50.2373 4.84868C50.1478 4.74861 50.051 4.65532 49.9477 4.56966C49.9925 4.52436 49.9925 4.45126 49.9477 4.40596C50.0405 4.42084 50.1287 4.29993 50.0405 4.22645C49.9671 4.14879 49.898 4.06713 49.8336 3.98184C49.7584 3.90371 49.6479 3.86744 49.5793 3.78745C49.5038 3.70291 49.3962 3.78931 49.4048 3.8786C49.4096 3.8933 49.4143 3.9079 49.4192 3.9225C49.4232 3.92911 49.4279 3.93552 49.4335 3.94175C49.5148 4.01123 49.6 4.07578 49.6888 4.13521C49.7667 4.20404 49.8094 4.30449 49.8892 4.37424C49.8667 4.37248 49.8442 4.37918 49.8261 4.39285C49.8057 4.40866 49.7834 4.42354 49.7621 4.43935C49.7181 4.41266 49.6718 4.38996 49.6238 4.37145C49.6028 4.36262 49.581 4.35704 49.5589 4.35304C49.5987 4.47972 49.6366 4.60584 49.6747 4.73196C49.7026 4.72228 49.7298 4.71057 49.7556 4.69606C49.8782 4.78721 49.9908 4.8911 50.0916 5.00587Z" fill="#9696FF"/>
<path d="M51.1578 4.47313C51.187 4.47313 51.2082 4.46224 51.2245 4.44699C51.0797 4.36831 50.9329 4.29297 50.7842 4.2207C50.7878 4.23772 50.795 4.25465 50.8079 4.27037C50.8876 4.38802 51.0164 4.46271 51.1578 4.47313Z" fill="#9696FF"/>
<path d="M41.2921 4.79627L41.1065 4.71163C40.9831 4.64931 40.8819 4.83905 41.0054 4.89672L41.191 4.98228C41.3153 5.04088 41.4156 4.85114 41.2921 4.79627Z" fill="#9696FF"/>
<path d="M41.4154 4.24281C41.4544 4.27602 41.4973 4.31099 41.5424 4.34521C41.535 4.35191 41.5283 4.35935 41.5225 4.36791C41.4933 4.35461 41.4636 4.34233 41.433 4.3321C41.3328 4.30048 41.2818 4.41488 41.3198 4.48928C41.292 4.54695 41.3059 4.62229 41.3848 4.63159C41.4399 4.63782 41.4957 4.63503 41.55 4.62322C41.6428 4.67716 41.7235 4.74041 41.8136 4.79063C41.8339 4.80189 41.8576 4.80551 41.8804 4.80086C41.8414 4.84718 41.8472 4.91647 41.8936 4.95554C41.9125 4.97153 41.9363 4.98065 41.9611 4.9813H42.1412C42.2007 4.97972 42.2476 4.93024 42.2461 4.87062C42.2445 4.811 42.1951 4.76394 42.1356 4.76552L41.9556 4.77017C41.9486 4.77082 41.9417 4.7724 41.9351 4.77482C41.9663 4.74524 41.9752 4.70125 41.9621 4.66312C41.9828 4.62405 41.9795 4.5716 41.9509 4.5357C42.0018 4.53728 42.0445 4.49766 42.0465 4.44669C42.0469 4.43664 42.0457 4.4265 42.0429 4.41683C42.0659 4.41506 42.0874 4.40474 42.1032 4.388C42.1674 4.40762 42.2296 4.43348 42.2888 4.4652C42.3503 4.50938 42.4249 4.45813 42.4418 4.39479C42.451 4.40186 42.46 4.40902 42.4689 4.41627C42.4963 4.32875 42.5245 4.24095 42.5527 4.15315C42.5387 4.11539 42.5059 4.0847 42.455 4.08293C42.3185 4.07828 42.2211 3.9769 42.0819 4.02805C42.0529 4.03819 42.0304 4.06126 42.0206 4.09037C41.9784 4.06991 41.932 4.0594 41.8851 4.05968C41.8264 4.06219 41.7805 4.11148 41.7821 4.17036C41.7846 4.20858 41.7971 4.24542 41.8183 4.27732C41.7251 4.22384 41.6385 4.15948 41.5603 4.08572C41.559 4.0846 41.5577 4.08395 41.5564 4.08293C41.4972 4.10953 41.4385 4.13706 41.3799 4.16468C41.3784 4.19175 41.3885 4.21965 41.4154 4.24281Z" fill="#9696FF"/>
<path d="M40.8921 4.55232C40.9789 4.53428 40.9846 4.44136 40.9389 4.38574C40.8482 4.43374 40.7581 4.48284 40.6689 4.53326C40.7388 4.56376 40.8171 4.57139 40.8921 4.55232Z" fill="#9696FF"/>
<path d="M41.8878 5.6123H41.9806C42.0401 5.61072 42.0871 5.56124 42.0855 5.50162C42.0839 5.442 42.0346 5.39494 41.9751 5.39652H41.8823C41.8228 5.3981 41.7758 5.44758 41.7774 5.5072C41.779 5.56682 41.8283 5.61389 41.8878 5.6123Z" fill="#9696FF"/>
<path d="M43.2223 4.95019C43.2818 4.94861 43.3287 4.89913 43.3271 4.83951C43.3256 4.7799 43.2762 4.73283 43.2167 4.73441H43.1863C43.1643 4.80566 43.1425 4.87681 43.1211 4.94787C43.124 4.94842 43.1265 4.94982 43.1294 4.95019H43.2223Z" fill="#9696FF"/>
<path d="M43.4267 5.90242C43.3728 5.90242 43.3506 5.88754 43.3506 5.83266C43.3436 5.77453 43.2909 5.73305 43.2329 5.74002C43.182 5.74616 43.1428 5.78792 43.1399 5.83917C43.1337 5.98752 43.2486 6.1128 43.3966 6.11903C43.4085 6.1195 43.4205 6.11922 43.4323 6.1182C43.5687 6.11075 43.5631 5.89498 43.4267 5.90242Z" fill="#9696FF"/>
<path d="M42.545 3.95843C42.5459 3.9934 42.5644 4.0226 42.5906 4.04167C42.6117 3.97703 42.6325 3.91239 42.654 3.84766L42.6498 3.84775C42.5903 3.84933 42.5434 3.89881 42.545 3.95843Z" fill="#9696FF"/>
<path d="M42.7044 3.69268C42.7108 3.67376 42.7178 3.65466 42.7242 3.63574C42.7001 3.64338 42.6763 3.6514 42.6523 3.65913C42.666 3.67535 42.6836 3.68681 42.7044 3.69268Z" fill="#9696FF"/>
<path d="M44.9947 4.62731L44.9019 4.53989C44.8016 4.44316 44.6578 4.6022 44.7571 4.69614L44.8499 4.78357C44.8727 4.80477 44.8979 4.81259 44.9218 4.81166C44.9314 4.86309 44.9751 4.90216 45.029 4.90076H45.1218C45.1814 4.89388 45.2241 4.83993 45.2173 4.78022C45.2113 4.72786 45.1688 4.6874 45.1163 4.68405H45.0266C45.0232 4.66433 45.0131 4.6448 44.9947 4.62731Z" fill="#9696FF"/>
<path d="M44.5778 4.7256C44.5101 4.81117 44.472 4.91162 44.4052 4.99998C44.3217 5.10694 44.473 5.25854 44.5584 5.14879C44.6261 5.06322 44.6642 4.96278 44.7319 4.87442C44.8154 4.76746 44.6642 4.61585 44.5778 4.7256Z" fill="#9696FF"/>
<path d="M45.7485 5.20707H45.6557C45.5962 5.20865 45.5492 5.25813 45.5508 5.31775C45.5524 5.37737 45.6018 5.42443 45.6613 5.42285H45.7541C45.8136 5.42127 45.8605 5.37179 45.859 5.31217C45.8574 5.25255 45.808 5.20549 45.7485 5.20707Z" fill="#9696FF"/>
<path d="M46.761 3.21884C46.7606 3.2235 46.7606 3.22814 46.761 3.2328V3.2421C46.7608 3.24424 46.7608 3.24647 46.761 3.24861C46.7636 3.25977 46.7687 3.27028 46.7759 3.2793C46.826 3.39296 46.9569 3.44635 47.0719 3.40021C47.1954 3.36673 47.148 3.1835 47.0311 3.19187C47.0287 3.18406 47.0252 3.1768 47.0211 3.16992C46.94 3.16257 46.8587 3.15597 46.777 3.15039C46.7633 3.17011 46.7568 3.19429 46.761 3.21884Z" fill="#9696FF"/>
<path d="M47.1868 5.11387C47.1968 5.15014 47.2256 5.17823 47.262 5.18735L47.3353 5.20316C47.4699 5.23106 47.521 5.01714 47.3864 4.99296H47.3725V4.9818C47.3676 4.96115 47.3558 4.94273 47.3391 4.92971C47.3916 4.93715 47.4421 4.90637 47.4597 4.85623C47.4644 4.84135 47.4699 4.81996 47.4755 4.79764C47.5475 4.81661 47.6225 4.82136 47.6964 4.81159C47.7508 4.80201 47.8031 4.7835 47.8514 4.75672C47.9739 4.84749 48.0866 4.95101 48.1874 5.0655C48.2802 5.16874 48.424 5.0097 48.3331 4.90832C48.2436 4.80824 48.1468 4.71495 48.0435 4.62929C48.0883 4.58493 48.0888 4.51247 48.0445 4.46755C48.0442 4.46718 48.0439 4.4669 48.0435 4.46653C48.1363 4.48048 48.2245 4.35957 48.1363 4.28609C48.0629 4.20843 47.9938 4.12677 47.9293 4.04148C47.8837 3.9986 47.8333 3.96112 47.779 3.92987C47.7891 3.89471 47.7752 3.85704 47.7446 3.83686C47.688 3.79314 47.6175 3.77547 47.559 3.73362C47.4514 3.64247 47.3066 3.79965 47.4152 3.88243C47.4417 3.90178 47.4703 3.91796 47.5006 3.9308C47.5022 3.95433 47.5117 3.97656 47.5275 3.99404C47.6087 4.06352 47.6939 4.12807 47.7827 4.1875C47.8607 4.25633 47.9034 4.35678 47.9832 4.42653C47.9606 4.42477 47.9382 4.43146 47.9201 4.44514C47.8996 4.46095 47.8774 4.47583 47.856 4.49164C47.8293 4.47546 47.8015 4.46123 47.7733 4.44802C47.8032 4.42858 47.8236 4.39603 47.8226 4.35771C47.821 4.29911 47.7725 4.25288 47.714 4.25447C47.6555 4.25605 47.6094 4.30469 47.611 4.36329C47.6113 4.3751 47.6147 4.38589 47.6186 4.39631C47.5171 4.38896 47.4162 4.44123 47.3661 4.53712C47.2612 4.51201 47.2148 4.65059 47.2798 4.72314C47.2695 4.74918 47.2603 4.77523 47.251 4.80127C47.2358 4.83801 47.2472 4.88042 47.2788 4.90451C47.2184 4.90162 47.1671 4.94831 47.1642 5.00886C47.1636 5.01975 47.1648 5.03063 47.1675 5.04123L47.1868 5.11387Z" fill="#9696FF"/>
<path d="M48.3006 3.71421C48.3006 3.71504 48.3011 3.7157 48.3012 3.71653C48.2633 3.69161 48.2129 3.69365 48.1792 3.72676C48.1772 3.72872 48.1753 3.73067 48.1735 3.73281C48.116 3.65859 48.0456 3.59562 47.9656 3.54679C47.9136 3.51898 47.8489 3.5387 47.8212 3.59079C47.8027 3.62548 47.8047 3.66752 47.8264 3.70026C47.9192 3.83791 48.0074 3.99416 48.167 4.00904C48.2123 4.0429 48.2623 4.06987 48.3155 4.08903C48.4083 4.12251 48.464 4.01462 48.4306 3.93836C48.4555 3.89985 48.4478 3.84963 48.4142 3.81921L48.5624 3.8154C48.538 3.74416 48.5128 3.67282 48.4878 3.60139L48.4055 3.60353C48.346 3.60511 48.2991 3.65459 48.3006 3.71421Z" fill="#9696FF"/>
<path d="M48.4804 4.64829C48.5806 4.7413 48.7244 4.58598 48.6251 4.49111L48.5518 4.42135C48.4507 4.32555 48.3077 4.48366 48.4061 4.5776L48.4804 4.64829Z" fill="#9696FF"/>
<path d="M51.3391 4.87982C51.3898 4.87387 51.4292 4.83239 51.4324 4.78123C51.4256 4.7231 51.3731 4.68144 51.315 4.68822C51.2642 4.69418 51.2248 4.73566 51.2217 4.78681C51.2285 4.84494 51.281 4.88661 51.3391 4.87982Z" fill="#9696FF"/>
<path d="M48.4928 5.34561C48.5012 5.3577 48.5105 5.367 48.5188 5.37816C48.5246 5.38699 48.5314 5.39518 48.5392 5.40234L48.5448 5.40885C48.5369 5.44968 48.5369 5.49172 48.5448 5.53255C48.5671 5.66928 48.7694 5.60417 48.7471 5.46931L48.7583 5.43582C48.7805 5.39258 48.7722 5.33993 48.7379 5.30561C48.7249 5.2898 48.7109 5.27492 48.697 5.26004C48.6838 5.21856 48.6474 5.18898 48.6042 5.1847C48.5235 5.17261 48.4334 5.2619 48.4928 5.34561Z" fill="#9696FF"/>
<path d="M48.1294 5.24389C48.0786 5.24984 48.0394 5.29132 48.0361 5.34248C48.0429 5.40061 48.0954 5.44228 48.1535 5.43549C48.2043 5.42953 48.2436 5.38805 48.2468 5.3369C48.24 5.27877 48.1875 5.2371 48.1294 5.24389Z" fill="#9696FF"/>
<path d="M45.6807 3.23382C45.6823 3.29241 45.7308 3.33864 45.7893 3.33706C45.8478 3.33548 45.8939 3.28683 45.8923 3.22824C45.8909 3.17374 45.848 3.13151 45.795 3.12695C45.788 3.12714 45.7809 3.12705 45.7739 3.12723C45.7205 3.13393 45.6792 3.17876 45.6807 3.23382Z" fill="#9696FF"/>
<path d="M47.5905 3.5791H47.6276C47.6871 3.57752 47.7341 3.52804 47.7325 3.46842C47.7309 3.4088 47.6815 3.36174 47.622 3.36332H47.5858C47.5263 3.36462 47.4792 3.41392 47.4805 3.47353C47.4818 3.53315 47.531 3.5804 47.5905 3.5791Z" fill="#9696FF"/>
<path d="M48.2366 3.49265C48.295 3.49107 48.3412 3.44243 48.3396 3.38383C48.3395 3.38039 48.3377 3.37742 48.3373 3.37407C48.2731 3.36021 48.2087 3.34673 48.144 3.33398C48.1344 3.35054 48.1274 3.36877 48.128 3.38941C48.1295 3.44801 48.1781 3.49423 48.2366 3.49265Z" fill="#9696FF"/>
<path d="M49.3678 3.70913C49.3955 3.70587 49.4191 3.69142 49.436 3.6712C49.3988 3.6589 49.3616 3.64669 49.3242 3.63477C49.3325 3.659 49.3414 3.68341 49.3496 3.70764C49.3556 3.70792 49.3614 3.70988 49.3678 3.70913Z" fill="#9696FF"/>
<path d="M49.719 23.3523C50.0415 22.2592 50.3767 20.8929 50.6297 19.3061C52.369 19.5568 53.8564 19.9153 55.0232 20.2595C55.1757 20.0373 55.3203 19.8093 55.4566 19.5757C54.2275 19.2036 52.628 18.8081 50.7436 18.5363C50.9128 17.2885 51.0261 15.9202 51.0433 14.4555H56.9336C56.9381 14.3258 56.9413 14.1957 56.9413 14.0649C56.9413 13.934 56.9381 13.804 56.9336 13.6742H51.0429C51.0274 12.378 50.935 11.0129 50.7379 9.59282C52.3298 9.35779 53.9024 9.00212 55.4429 8.53103C55.3059 8.29721 55.1603 8.06897 55.0068 7.84668C53.5004 8.29656 52.0333 8.61149 50.62 8.82011C50.4034 7.49622 50.0944 6.1288 49.6729 4.7293C49.6349 4.60309 49.5971 4.47697 49.5571 4.35038C49.5121 4.20734 49.4647 4.06355 49.4173 3.91985C49.4124 3.90515 49.4078 3.89055 49.4029 3.87595C49.384 3.81893 49.3663 3.7622 49.347 3.70509C49.3388 3.68091 49.3299 3.65654 49.3217 3.63236C49.0234 3.53777 48.7195 3.45573 48.4108 3.38672C48.4362 3.4575 48.4599 3.52791 48.4846 3.5985C48.5097 3.66984 48.5348 3.74127 48.5592 3.81251C49.1619 5.57047 49.5777 7.28239 49.8479 8.9253C47.0174 9.27139 44.4233 9.19633 42.1942 8.93004C42.4066 7.64048 42.7088 6.30822 43.1205 4.94415C43.1419 4.87309 43.1637 4.80194 43.1857 4.7307C43.2038 4.67266 43.2206 4.61499 43.2388 4.55686C43.2683 4.46376 43.2997 4.3701 43.3302 4.27681C43.3369 4.25607 43.3437 4.23533 43.3505 4.21468C43.3729 4.14623 43.3946 4.07796 43.4176 4.00932C43.483 3.81447 43.5508 3.61896 43.6208 3.42299C43.6251 3.411 43.629 3.39909 43.6334 3.38709C43.3251 3.4561 43.0216 3.53795 42.7236 3.63254C42.7172 3.65142 42.7102 3.67049 42.7039 3.68937C42.6868 3.73987 42.6708 3.79019 42.6541 3.8406C42.6326 3.90543 42.6118 3.96998 42.5907 4.03462C42.5784 4.07238 42.5659 4.11033 42.5537 4.14809C42.5255 4.23589 42.4972 4.32369 42.4699 4.41121C41.9971 5.92484 41.6573 7.402 41.4244 8.82876C39.6803 8.57782 38.1892 8.21843 37.0204 7.87356C36.8678 8.09585 36.7232 8.32409 36.5871 8.55782C37.8177 8.93051 39.419 9.32719 41.3073 9.59924C41.1109 11.0171 41.0188 12.38 41.0035 13.6745H35.1122C35.1076 13.8043 35.1045 13.9343 35.1045 14.0652C35.1045 14.196 35.1076 14.326 35.1122 14.4558H41.0032C41.0206 15.9229 41.1342 17.2934 41.304 18.543C39.7919 18.7662 38.2199 19.1093 36.6053 19.6034C36.7198 19.7984 36.8396 19.99 36.9655 20.1771C36.9903 20.2139 37.0158 20.25 37.041 20.2865C38.5441 19.8377 40.008 19.5234 41.4183 19.3148C41.6245 20.6056 41.885 21.7502 42.1487 22.7205C42.1681 22.7919 42.1875 22.8634 42.2069 22.9328C42.2359 23.0367 42.2649 23.1382 42.2938 23.2377C42.3259 23.3483 42.358 23.4554 42.3898 23.5606C42.4919 23.8976 42.592 24.2069 42.6873 24.4859C42.9856 24.5817 43.2894 24.6653 43.5983 24.7355C43.5795 24.6841 43.5603 24.6316 43.5407 24.5771C43.5175 24.5125 43.494 24.4459 43.4699 24.3771C43.4649 24.3628 43.4598 24.348 43.4548 24.3335C43.4129 24.213 43.3701 24.0868 43.3263 23.9538C43.2736 23.7944 43.2199 23.626 43.1653 23.4493C43.1472 23.3908 43.1291 23.3317 43.1109 23.2713C42.7855 22.1923 42.4409 20.8189 42.183 19.2102C45.0227 18.8616 47.6245 18.9371 49.8593 19.2046C49.5786 20.9577 49.1953 22.4316 48.8459 23.5502C48.8309 23.5983 48.816 23.6456 48.8011 23.6923C48.6747 24.0895 48.5539 24.4383 48.4447 24.736C48.755 24.6655 49.06 24.5817 49.3596 24.4854C49.4627 24.1835 49.5714 23.8464 49.6823 23.4765C49.6945 23.4357 49.7068 23.3937 49.719 23.3523ZM42.0765 9.70044C43.2927 9.84683 44.6142 9.93798 46.022 9.93798C47.3431 9.93891 48.6602 9.85771 49.9662 9.69709C50.1587 11.0811 50.2494 12.4113 50.2651 13.6741H41.7768C41.7928 12.4125 41.8837 11.0835 42.0765 9.70044ZM42.0688 18.4381C41.9035 17.2213 41.7929 15.8859 41.7762 14.4554H50.2656C50.2486 15.8841 50.1381 17.2182 49.9732 18.4341C47.6719 18.1569 44.9922 18.078 42.0688 18.4381Z" fill="#00FFB3"/>
</svg>
