<svg width="59" height="58" viewBox="0 0 59 58" fill="none" xmlns="http://www.w3.org/2000/svg">
<path d="M25.7443 12.2775C25.7443 12.2775 24.0856 14.5668 24.4987 17.1423C24.4987 17.1423 24.8482 18.5922 26.1764 19.3426L26.0493 20.818L26.6213 21.6892L30.1865 21.9945L31.502 21.0469L31.5846 19.3045L33.3132 15.578L29.6082 11.9277L25.7443 12.2775Z" fill="#9696FF"/>
<path d="M26.5675 21.0492C29.243 22.4991 31.9185 20.6931 31.9185 20.6931C32.9417 22.48 36.4815 21.647 38.2228 21.1955C42.3345 20.1208 47.1453 21.418 49.5539 25.6533C50.3547 27.0587 50.844 28.6931 51.327 30.3019C53.1318 36.3242 54.9303 42.3464 56.7352 48.375C56.7352 48.375 56.7098 48.375 56.6589 48.375C56.6335 48.375 56.6017 48.375 56.5636 48.375C56.0616 48.3813 55.5595 48.3877 55.0574 48.3941C54.9558 48.3941 54.8541 48.3941 54.746 48.3941C53.2017 48.3813 51.8036 47.9807 50.2339 48.4131C49.7827 48.534 49.3823 48.4131 48.9565 48.4449C47.5838 48.4767 46.2302 48.0125 44.8575 48.1969C42.9319 48.4131 41.0572 48.5975 39.1316 48.5975C38.782 48.5975 38.4071 48.5022 38.0575 48.4449C37.1297 48.3813 36.2336 48.3495 35.3058 48.2605C34.2064 48.1079 33.1323 48.1651 32.0583 48.1969C30.012 48.2605 27.9593 48.5658 25.913 48.4449C25.341 48.4131 24.7627 48.5658 24.1907 48.5403C22.7163 48.4767 21.242 48.3559 19.7676 48.3559C16.3422 48.3241 12.9168 48.5403 9.47231 48.3241C6.3456 48.1397 5.7927 48.4195 2.666 48.4767C2.53889 48.4767 2.39273 48.4767 2.26562 48.3813C2.53889 47.8917 3.04095 47.5801 3.1744 46.9823C3.21253 46.8678 3.25067 46.7534 3.28244 46.6325C5.01738 41.189 6.75868 35.7455 8.49362 30.3019C9.00839 28.6931 9.5295 27.0587 10.3811 25.6533C12.9549 21.418 18.0835 20.1208 22.4685 21.1955C24.3242 21.647 24.6928 22.3592 25.7858 20.5723L26.5675 21.0492Z" fill="#FFDD00"/>
<path d="M45.1047 37.5237C45.6067 38.9927 46.0897 40.4681 46.5981 41.9371C47.0875 43.3679 47.5959 44.7987 48.1551 46.2105C48.4792 47.0245 48.816 47.8321 49.1719 48.6334C49.2037 48.7097 49.3181 48.7288 49.3817 48.6906C49.4579 48.6461 49.4706 48.5571 49.4388 48.4808C48.816 47.0817 48.2568 45.6572 47.7293 44.2264C47.2082 42.8019 46.7252 41.3711 46.2486 39.9339C45.969 39.1072 45.6893 38.2741 45.4097 37.4474C45.3335 37.2566 45.0411 37.333 45.1047 37.5237Z" fill="#06083F"/>
<path d="M13.5314 37.916C13.0294 39.1497 12.6036 40.4025 12.2223 41.6743C11.8537 42.908 11.4978 44.1417 11.0911 45.3627C10.786 46.2721 10.4556 47.1687 10.106 48.0654C10.0743 48.1417 10.1378 48.2371 10.2141 48.2561C10.303 48.2816 10.3729 48.2244 10.4047 48.148C10.9767 46.6854 11.4914 45.2101 11.949 43.7093C12.3049 42.5455 12.629 41.3691 13.0167 40.2117C13.2645 39.4676 13.5441 38.73 13.8365 37.9987C13.8682 37.9223 13.8047 37.827 13.7284 37.8079C13.6331 37.7824 13.5632 37.8397 13.5314 37.916Z" fill="#06083F"/>
<path d="M32.9211 21.4437C32.3364 22.4294 31.7518 23.4214 31.0654 24.3308C30.8621 24.6042 30.6269 24.8904 30.3664 25.132C30.3155 25.1829 30.2583 25.2338 30.2011 25.2783C30.1884 25.291 30.1757 25.2974 30.163 25.3101C30.1439 25.3292 30.1312 25.3355 30.1439 25.3228C30.1185 25.3419 30.0867 25.3673 30.0613 25.3864C30.0105 25.4246 29.9596 25.4564 29.9024 25.4882C29.877 25.5009 29.8579 25.5136 29.8325 25.5263C29.8198 25.5327 29.8071 25.539 29.7944 25.5454C29.788 25.5518 29.7436 25.5708 29.769 25.5581C29.7944 25.5454 29.7499 25.5645 29.7436 25.5645C29.7308 25.5708 29.7181 25.5708 29.7118 25.5772C29.6864 25.5836 29.6609 25.5963 29.6355 25.6026C29.5847 25.6154 29.5338 25.6281 29.483 25.6344C29.5402 25.6281 29.4576 25.6344 29.4385 25.6344C29.4131 25.6344 29.3877 25.6344 29.3622 25.6344C29.3368 25.6344 29.3178 25.6344 29.2923 25.6344C29.2796 25.6344 29.2669 25.6344 29.2542 25.6281C29.2161 25.6217 29.286 25.6344 29.2479 25.6281C29.197 25.6217 29.1525 25.609 29.1017 25.5963C29.0763 25.5899 29.0508 25.5836 29.0318 25.5708C29.0191 25.5645 29.0064 25.5645 28.9937 25.5581C28.9873 25.5581 28.9428 25.539 28.9682 25.5454C28.9937 25.5581 28.9492 25.539 28.9428 25.5327C28.9301 25.5263 28.9174 25.52 28.911 25.5136C28.8856 25.5009 28.8602 25.4882 28.8348 25.4754C28.7839 25.4437 28.7267 25.4119 28.6759 25.3801C28.6187 25.3419 28.5679 25.3037 28.517 25.2656C28.4852 25.2402 28.5234 25.272 28.5043 25.2529C28.4916 25.2402 28.4789 25.2338 28.4662 25.2211C28.4344 25.1956 28.409 25.1702 28.3772 25.1511C28.2565 25.0494 28.1484 24.9476 28.034 24.8332C27.7671 24.5661 27.5129 24.2799 27.2651 23.9937C26.5851 23.1988 25.9305 22.3848 25.2569 21.5899C25.1552 21.4691 25.0535 21.3546 24.9518 21.2338C24.8946 21.1702 24.7929 21.1766 24.7357 21.2338C24.6722 21.2974 24.6785 21.3864 24.7357 21.45C25.4602 22.2958 26.1593 23.1607 26.8774 24.0065C27.3413 24.5534 27.8116 25.1257 28.3963 25.5581C28.7776 25.8379 29.2415 26.0223 29.7181 25.8888C30.2965 25.7235 30.7413 25.2211 31.1035 24.7696C31.7835 23.9238 32.3555 22.9826 32.9147 22.0478C33.0037 21.8952 33.099 21.7426 33.188 21.5899C33.2897 21.431 33.0228 21.2783 32.9211 21.4437Z" fill="#06083F"/>
<path d="M29.2198 25.7928C29.2643 27.2237 29.3024 28.6609 29.3215 30.0917C29.3469 31.4462 29.3533 32.8007 29.3596 34.1616C29.366 35.4907 29.3596 36.8198 29.3469 38.1489C29.3342 39.5034 29.3215 40.8579 29.2961 42.2124C29.277 43.6433 29.2516 45.0741 29.2262 46.5049C29.2262 46.6894 29.2198 46.8738 29.2198 47.0518C29.2198 47.249 29.5249 47.249 29.5249 47.0518C29.5503 45.6083 29.5694 44.1647 29.5948 42.7212C29.6139 41.3603 29.6329 39.9994 29.6456 38.6385C29.6583 37.3095 29.6647 35.9804 29.6647 34.6513C29.6647 33.3031 29.652 31.9486 29.6329 30.6004C29.6138 29.176 29.5821 27.7578 29.5376 26.3397C29.5312 26.1553 29.5249 25.9772 29.5185 25.7928C29.5185 25.5957 29.2135 25.5893 29.2198 25.7928Z" fill="#06083F"/>
<path d="M28.0414 27.4712C28.2575 27.6493 28.1431 28.0626 27.8698 28.1199C27.5966 28.1771 27.336 27.8591 27.425 27.5921C27.5139 27.325 27.908 27.2423 28.1113 27.4331" fill="#06083F"/>
<path d="M27.9894 27.5353C28.0021 27.5481 28.0148 27.5544 28.0211 27.5671L28.0275 27.5735C28.0211 27.5608 28.0275 27.5735 28.0275 27.5735C28.0339 27.5799 28.0339 27.5862 28.0402 27.5926C28.0466 27.5989 28.0466 27.6053 28.0529 27.618C28.0466 27.6053 28.0529 27.6244 28.0593 27.6244C28.0656 27.6435 28.072 27.6562 28.072 27.6752C28.072 27.6816 28.072 27.6816 28.072 27.688C28.072 27.6752 28.072 27.688 28.072 27.688C28.072 27.6943 28.072 27.707 28.072 27.7134C28.072 27.7325 28.072 27.7452 28.072 27.7643C28.072 27.7706 28.072 27.7834 28.072 27.7706C28.072 27.777 28.072 27.7897 28.0656 27.7961C28.0593 27.8152 28.0593 27.8279 28.0529 27.8469C28.0466 27.866 28.0466 27.866 28.0402 27.8787C28.0339 27.8915 28.0212 27.9105 28.0148 27.9233C28.0148 27.9296 28.0021 27.9423 28.0021 27.9423C28.0021 27.9423 27.9957 27.9551 27.9894 27.9551C27.9767 27.9678 27.964 27.9805 27.9512 27.9932C27.9385 27.9996 27.9576 27.9932 27.9449 27.9996C27.9385 28.0059 27.9322 28.0059 27.9258 28.0123C27.9195 28.0186 27.9131 28.0186 27.9004 28.025C27.9004 28.025 27.8877 28.0314 27.894 28.025C27.9004 28.025 27.8877 28.025 27.8877 28.025C27.8496 28.0377 27.8305 28.0441 27.786 28.0377C27.7225 28.0314 27.6526 27.9996 27.6017 27.9551C27.5445 27.9042 27.5064 27.8406 27.4873 27.7643C27.4555 27.6244 27.5255 27.5035 27.6462 27.44C27.6653 27.4272 27.6653 27.4272 27.6907 27.4209C27.7098 27.4145 27.7288 27.4082 27.7479 27.4018C27.7542 27.4018 27.7733 27.3954 27.7733 27.3954C27.7733 27.3954 27.7924 27.3954 27.7987 27.3954C27.8178 27.3954 27.8369 27.3954 27.8559 27.3954C27.9195 27.4018 27.9957 27.4272 28.0466 27.4718C28.1228 27.5353 28.2309 27.4272 28.1546 27.3636C28.0148 27.2365 27.8051 27.2047 27.6335 27.2746C27.4492 27.3446 27.3094 27.5163 27.3221 27.7198C27.3412 27.9233 27.4873 28.1204 27.6907 28.1776C27.8813 28.2285 28.072 28.1268 28.161 27.9551C28.2499 27.777 28.2436 27.5417 28.0847 27.4018C28.0529 27.3764 28.0084 27.37 27.9767 27.4018C27.9576 27.4527 27.9576 27.5035 27.9894 27.5353Z" fill="#06083F"/>
<path d="M27.8691 32.8216C27.9708 32.9615 28.0471 33.1268 28.0534 33.2985C28.0534 33.4702 27.9644 33.6546 27.7992 33.7119C27.6403 33.7691 27.456 33.6864 27.3543 33.5529C27.2527 33.4193 27.2336 33.2349 27.2527 33.0632C27.2717 32.9297 27.3226 32.7834 27.437 32.7071C27.5514 32.6308 27.7357 32.6499 27.7929 32.7771" fill="#06083F"/>
<path d="M27.8028 32.8531C27.9045 32.9994 27.9998 33.1774 27.9744 33.3619C27.9489 33.5081 27.8473 33.648 27.6947 33.648C27.5295 33.648 27.4024 33.5145 27.3579 33.3619C27.3134 33.2092 27.3198 33.0121 27.4024 32.8658C27.4405 32.7959 27.4977 32.7387 27.5803 32.7323C27.6439 32.7259 27.7138 32.745 27.7456 32.8086C27.7901 32.8976 27.9235 32.8213 27.879 32.7323C27.7837 32.5479 27.5232 32.5415 27.377 32.6623C27.2054 32.8023 27.1673 33.0693 27.1927 33.2792C27.2181 33.5081 27.3516 33.718 27.5803 33.7816C27.7964 33.8452 28.0061 33.7243 28.0951 33.5208C28.2032 33.2665 28.0951 32.993 27.9489 32.7768C27.879 32.6941 27.7456 32.7768 27.8028 32.8531Z" fill="#06083F"/>
<path d="M27.8112 38.3628C27.9193 38.5791 28.021 38.8271 27.9765 39.0624C27.9256 39.304 27.6651 39.5139 27.4426 39.4121C27.2647 39.3358 27.1948 39.1069 27.2075 38.9097C27.2202 38.719 27.2838 38.5282 27.4299 38.4074C27.5761 38.2865 27.8049 38.2675 27.9511 38.3883" fill="#06083F"/>
<path d="M27.7443 38.4084C27.8396 38.5992 27.9413 38.8218 27.9032 39.0444C27.8778 39.197 27.7507 39.3496 27.5918 39.3687C27.4202 39.3878 27.3249 39.2288 27.2931 39.0825C27.2613 38.9108 27.2994 38.7073 27.4011 38.5674C27.5092 38.4212 27.7443 38.3321 27.8968 38.4593C27.9731 38.5229 28.0811 38.4148 28.0049 38.3512C27.8206 38.1922 27.5409 38.224 27.363 38.3766C27.1851 38.5293 27.1088 38.7964 27.1279 39.0253C27.1469 39.2351 27.2486 39.4704 27.4774 39.5213C27.6998 39.5658 27.9159 39.4068 28.0049 39.2097C28.1383 38.9235 28.0049 38.5992 27.8714 38.3321C27.8333 38.2431 27.6998 38.3194 27.7443 38.4084Z" fill="#06083F"/>
<path d="M27.5656 44.4946C27.7944 44.5392 27.9787 44.7745 27.9596 45.0034C27.9405 45.2387 27.7054 45.4358 27.4766 45.404C27.2415 45.3722 27.0699 45.1115 27.1398 44.8889C27.2224 44.6282 27.5402 44.5392 27.8071 44.4883" fill="#06083F"/>
<path d="M27.5482 44.5757C27.7134 44.6139 27.8533 44.7474 27.8787 44.9191C27.9105 45.0845 27.8024 45.2562 27.6435 45.3198C27.491 45.3833 27.3321 45.3197 27.2432 45.1798C27.1606 45.0399 27.186 44.8873 27.3067 44.7792C27.4402 44.652 27.6435 44.6139 27.8215 44.5757C27.9168 44.5566 27.8787 44.4104 27.7834 44.4294C27.58 44.4676 27.3639 44.5248 27.205 44.6647C27.0398 44.811 27.0017 45.0463 27.1097 45.2434C27.2178 45.4342 27.4338 45.5423 27.6499 45.4851C27.8723 45.4215 28.0439 45.2116 28.0376 44.9827C28.0376 44.7283 27.8342 44.493 27.5864 44.4358C27.491 44.404 27.4529 44.5566 27.5482 44.5757Z" fill="#06083F"/>
<path d="M31.6603 18.6771C31.5586 19.1031 31.5141 19.5483 31.4951 19.9871C31.476 20.4577 31.4887 20.9346 31.5713 21.3988C31.5904 21.4942 31.7366 21.4561 31.7175 21.3607C31.6349 20.9092 31.6285 20.4449 31.6476 19.9934C31.6666 19.5674 31.7048 19.1413 31.8065 18.7216C31.8319 18.6262 31.6857 18.5817 31.6603 18.6771Z" fill="#06083F"/>
<path d="M24.7736 13.9069C24.3224 14.8353 24.1826 15.891 24.3923 16.9021C24.4749 17.3091 24.6147 17.6906 24.8372 18.0468C25.0596 18.4092 25.3392 18.7463 25.6633 19.0261C26.0256 19.344 26.4514 19.5984 26.9216 19.7256C27.017 19.751 27.0551 19.6048 26.9598 19.5793C26.1654 19.3695 25.4917 18.7717 25.0469 18.0976C24.8372 17.7733 24.6783 17.4363 24.583 17.0611C24.4622 16.5841 24.4241 16.0881 24.4622 15.5921C24.5067 15.0325 24.6592 14.4856 24.9071 13.9832C24.9452 13.8942 24.8117 13.8178 24.7736 13.9069Z" fill="#06083F"/>
<path d="M26.9243 17.7155C26.346 18.0589 25.6024 18.1542 24.9605 17.938C24.8652 17.9062 24.8271 18.0525 24.9224 18.0843C25.6024 18.3196 26.3904 18.2115 27.0005 17.849C27.0895 17.7981 27.0132 17.6646 26.9243 17.7155Z" fill="#06083F"/>
<path d="M25.5586 17.245C25.565 17.2832 25.5649 17.3213 25.5459 17.3531C25.5205 17.3913 25.4696 17.3976 25.4315 17.404C24.904 17.4739 24.3321 17.4803 23.8046 17.4167C23.741 17.4103 23.6775 17.404 23.6203 17.3658C23.5186 17.3022 23.4868 17.1623 23.5122 17.0479C23.5377 16.9334 23.6076 16.8316 23.6775 16.7363C23.9762 16.3293 24.3384 15.9477 24.6752 15.5725C24.796 15.439 24.9294 15.3054 25.101 15.2609C25.1773 15.2418 25.2917 15.2164 25.3362 15.2863C25.5078 15.5598 25.5078 16.749 25.5586 17.245Z" fill="#6D56FE"/>
<path d="M26.1069 19.3616C26.1133 19.6986 26.0752 20.0357 26.018 20.3663C25.9735 20.6398 25.9226 20.945 25.7828 21.193C25.732 21.2821 25.8655 21.3584 25.9163 21.2694C26.0625 21.015 26.1197 20.697 26.1705 20.4109C26.2277 20.0675 26.2722 19.7113 26.2658 19.3616C26.2595 19.2662 26.1069 19.2662 26.1069 19.3616Z" fill="#06083F"/>
<path d="M32.571 19.961C35.2338 20.1263 36.67 11.783 31.8974 9.53178C27.3598 7.3887 23.4324 11.0198 23.6929 13.1502C23.7755 13.8434 24.894 14.2313 25.5995 14.3903C26.7307 14.6383 28.2178 14.6001 29.546 13.8624C29.6095 14.2885 29.7875 15.0898 30.0862 15.4077C30.3848 15.7321 30.9886 15.8274 31.2618 15.4904C31.2682 15.4904 29.2092 19.2551 32.571 19.961Z" fill="#06083F"/>
</svg>
