<svg width="371" height="808" viewBox="0 0 371 808" fill="none" xmlns="http://www.w3.org/2000/svg">
<mask id="mask0_312_221" style="mask-type:alpha" maskUnits="userSpaceOnUse" x="0" y="0" width="371" height="808">
<path d="M0 0H371V808H0V0Z" fill="#E5E5FF"/>
</mask>
<g mask="url(#mask0_312_221)">
<mask id="mask1_312_221" style="mask-type:alpha" maskUnits="userSpaceOnUse" x="0" y="0" width="371" height="872">
<path d="M371 872L0 872L7.62327e-05 -3.24339e-05L371 0L371 872Z" fill="#E5E5FF"/>
</mask>
<g mask="url(#mask1_312_221)">
<path d="M281.847 121.038C278.269 122.531 274.691 124.024 271.215 125.684C269.87 126.19 268.599 126.433 267.329 126.677C267.917 127.247 268.504 127.817 269.194 128.553C272.213 126.919 275.511 125.356 278.707 123.626C279.847 122.787 281.09 122.114 282.23 121.275C282.052 121.371 281.95 121.205 281.847 121.038Z" fill="#6D56FE"/>
<path d="M162.272 204.402C159.186 207.848 156.613 212.126 154.422 216.641C157.583 212.933 160.846 209.391 164.287 205.753C164.465 205.657 164.54 205.394 164.717 205.298C163.98 205.254 163.037 204.876 162.272 204.402Z" fill="#6D56FE"/>
<path d="M-75.8572 2.62082C-71.1386 0.288726 -66.1674 -2.40207 -61.1962 -5.0928C-57.0651 -7.99459 -52.654 -10.8259 -48.4205 -13.5612C-48.2704 -14.0863 -48.0179 -14.445 -47.7653 -14.8036C-36.8018 -30.0588 -19.6223 -42.9083 -5.36595 -55.5072C10.2083 -69.0413 25.3853 -85.9113 43.2621 -96.4751C44.1498 -96.9556 44.9625 -97.1736 45.7002 -97.129C47.6257 -98.6151 49.5512 -100.101 51.7567 -101.517C53.7573 -103.265 56.0103 -105.373 58.5435 -107.41C58.7814 -110.867 60.317 -114.14 63.9429 -116.324C66.6811 -118.028 68.9342 -120.135 70.8798 -122.742C71.2074 -123.363 71.5351 -123.984 71.8627 -124.606C72.5655 -126.539 73.6783 -127.808 75.0712 -129.005C77.4945 -132.758 79.6377 -136.581 82.3686 -139.835C88.1853 -146.534 94.6244 -150.685 102.539 -154.747C102.716 -154.843 102.716 -154.843 102.894 -154.939L105.127 -155.926C106.015 -156.407 107.005 -156.721 107.817 -156.939C111.606 -162.318 115.087 -168.197 117.803 -174.55C117.264 -175.811 117.256 -177.36 118.622 -178.987C119.304 -179.801 120.165 -180.71 120.847 -181.523C124.793 -185.879 133.502 -183.269 131.141 -177.109C130.589 -175.7 130.036 -174.291 129.483 -172.882C130.848 -174.509 132.214 -176.136 133.682 -177.596C135.311 -179.268 136.997 -180.782 138.732 -182.18L85.9875 -202.38L-99.9904 -67.3179L-88.8935 9.1709C-87.5601 8.52239 -86.2082 7.88843 -84.8368 7.25931C-81.8186 5.62565 -78.9779 4.08804 -75.8572 2.62082Z" fill="#6D56FE"/>
<path d="M308.771 2.15928C310.254 3.798 310.951 6.08363 309.538 8.40193C307.545 11.7001 303.079 13.6736 300.526 16.831C297.542 20.4432 294.484 24.3178 291.323 28.0261C289.602 29.8451 287.519 30.3067 285.484 30.0768C282.678 33.5929 279.872 37.1089 276.786 40.5547C277.793 49.1087 266.396 53.2805 259.155 49.2104C259.197 52.7385 257.484 56.1069 253.4 58.3172C251.98 59.086 250.382 59.9508 249.064 60.886C239.984 71.1271 230.139 80.8946 218.866 89.8813C216.51 91.8221 213.635 91.3812 211.619 90.0307C210.452 90.4409 209.284 90.851 208.191 90.9986C202.252 98.6519 192.242 105.845 185.708 111.38C169.396 124.869 151.649 136.028 134.032 147.783C129.621 150.615 124.162 147.133 124.298 143.509C123.943 143.701 123.588 143.893 123.233 144.085C121.532 144.784 119.654 145.578 117.954 146.277C117.831 147.231 117.149 148.044 116.008 148.884C104.195 156.609 89.2744 163.132 75.6914 167.599C75.3363 167.791 74.7011 167.913 74.3461 168.105C72.0856 168.663 70.3028 168.074 69.2027 166.672C65.8019 168.069 62.5787 169.37 59.2804 170.933C57.1499 172.086 54.9095 171.524 53.1743 170.243C44.2423 174.19 34.0326 176.831 24.4031 178.493C23.4879 178.544 22.4703 178.429 21.6301 178.218C17.8722 179.274 14.1136 180.331 10.3826 181.477L121.147 223.815C121.155 223.797 121.161 223.781 121.17 223.765C122.378 221.113 123.791 218.795 125.279 216.214C126.635 207.269 129.521 199.271 138.856 194.44C140.631 193.479 142.537 193.114 144.19 193.107C148.538 187.868 153.577 183.365 159.921 180.597C160.276 180.405 160.734 180.379 161.089 180.187C164.848 168.609 166.852 156.872 180.148 150.785C185.502 148.331 190.748 149.93 193.918 153.541C195.741 151.888 197.844 150.306 199.974 149.153C204.31 146.584 210.191 148.061 213.717 151.479C214.652 150.307 215.512 149.398 216.448 148.226C215.031 139.006 219.112 131.027 225.947 124.442C225.707 122.131 226.027 119.96 227.365 117.905C235.345 106.262 277.743 81.3157 297.081 89.2687C308.45 84.1626 320.286 80.0799 332.583 78.4485L320.024 -7.59352C319.692 -7.25362 319.336 -6.94346 318.949 -6.6789C315.175 -3.97028 312.062 -0.953544 308.771 2.15928Z" fill="#6D56FE"/>
<path d="M192.289 -157.386C191.333 -155.094 190.35 -153.23 189.087 -151.437C186.604 -144.323 183.41 -136.824 178.241 -132.916C176.493 -131.526 174.485 -131.327 172.805 -131.75C170.587 -127.664 168.368 -123.578 165.74 -120.158C161.746 -115.111 157.473 -110.135 152.919 -105.229C152.161 -104.153 151.328 -102.814 150.393 -101.642C150.55 -100.618 150.25 -99.5678 149.39 -98.6584C139.627 -87.6039 132.092 -73.3166 121.331 -63.4977C119.508 -61.8452 117.221 -61.7164 115.233 -62.6378C113.792 -60.7485 112.249 -59.0257 110.809 -57.1363C109.443 -55.5096 108.181 -53.7163 106.638 -51.9935C108.223 -50.1883 108.593 -47.2815 105.779 -45.315C102.789 -43.2523 99.7227 -40.9272 96.937 -38.5316C96.4318 -37.8143 96.0017 -37.3595 95.394 -36.8087C81.09 -23.5182 64.4634 -12.0775 49.7769 0.976113C36.4082 13.0945 24.0317 30.6679 7.97781 39.5793C6.55747 40.348 4.90467 40.355 3.68197 39.9072C1.83151 41.1307 0.261139 42.4245 -1.58933 43.648C-2.23721 46.4399 -4.00537 48.9504 -7.48118 50.6098C-7.65872 50.7059 -8.0138 50.8981 -8.36889 51.0903C-8.05402 53.1392 -8.8318 55.3356 -11.3174 56.6809C-22.175 62.1139 -32.8202 69.4294 -43.7253 75.5539C-44.9662 81.9957 -53.1129 85.2956 -59.3014 83.319C-61.4594 84.0431 -63.795 84.8634 -65.953 85.5876C-68.4943 87.1539 -71.0158 88.7984 -73.5365 90.4712L-43.5477 145.294C-42.7432 145.105 -41.9425 144.902 -41.1355 144.725C-44.7432 140.02 -44.37 132.938 -37.2408 129.523C-35.998 128.851 -34.4752 128.248 -33.1299 127.742C-20.6946 122.565 -7.89668 118.745 4.98351 116.212C13.9705 113.123 22.93 109.605 32.1495 107.278C41.6215 104.592 51.8661 103.93 61.8031 102.768C73.5283 97.9748 85.9161 93.489 98.0459 93.5814C97.5534 91.6287 97.416 89.4837 98.1938 87.2872C100.677 80.1728 105.239 76.8163 110.62 74.7914C115.686 70.7176 121.443 67.3799 127.862 64.3494C132.3 61.9469 136.944 59.8774 141.69 57.9743C143.008 57.039 144.606 56.1741 146.101 55.1428C148.579 52.2479 152 49.7305 155.626 47.546C155.544 46.2591 155.639 44.876 156.191 43.4672C158.375 37.4029 162.649 32.4265 167.688 27.9237C168.213 26.0859 169.298 24.3888 170.869 23.095C197.191 2.4119 226.241 -27.2938 260.209 -39.0214C262.435 -41.5577 264.94 -44.0236 267.268 -46.3934C268.531 -48.1866 269.692 -50.1462 270.852 -52.1058C273.588 -59.5789 276.885 -66.9113 279.826 -74.0515C285.886 -88.428 292.328 -102.568 302.289 -114.839C302.832 -115.499 303.449 -116.079 304.117 -116.594L303.771 -118.97L193.086 -161.362C193.15 -160.081 192.92 -158.771 192.289 -157.386Z" fill="#6D56FE"/>
<path d="M279.827 -74.0532C276.886 -66.913 273.59 -59.5806 270.854 -52.1075C269.693 -50.1479 268.533 -48.1883 267.27 -46.3951C264.942 -44.0253 262.436 -41.5593 260.21 -39.0231C226.243 -27.2954 197.192 2.41027 170.87 23.0933C169.3 24.3872 168.214 26.0843 167.689 27.9221C162.65 32.4249 158.376 37.4013 156.193 43.4656C155.64 44.8744 155.545 46.2574 155.628 47.5444C152.002 49.7289 148.581 52.2463 146.102 55.1411C144.607 56.1725 143.009 57.0374 141.691 57.9726C136.945 59.8757 132.302 61.9452 127.863 64.3477C121.444 67.3782 115.688 70.7159 110.621 74.7897C105.24 76.8146 100.679 80.1711 98.1954 87.2856C97.4176 89.482 97.5549 91.6271 98.0473 93.5798C85.9175 93.4874 73.5297 97.9732 61.8046 102.766C51.8676 103.928 41.623 104.591 32.1509 107.276C22.9314 109.603 13.972 113.121 4.98499 116.21C-7.8952 118.743 -20.693 122.563 -33.1283 127.741C-34.4736 128.247 -35.9965 128.849 -37.2393 129.522C-44.3685 132.937 -44.7416 140.019 -41.1339 144.724C-41.9427 144.902 -42.7418 145.103 -43.5462 145.293L-32.7768 164.978L10.3824 181.476C14.1135 180.331 17.8721 179.273 21.63 178.218C22.4702 178.429 23.4878 178.544 24.403 178.492C34.0324 176.831 44.2421 174.19 53.1742 170.243C54.9094 171.523 57.1498 172.086 59.2803 170.933C62.5786 169.369 65.8018 168.069 69.2026 166.672C70.3027 168.074 72.0854 168.662 74.3459 168.105C74.701 167.912 75.3361 167.791 75.6912 167.598C89.2742 163.131 104.195 156.609 116.008 148.883C117.148 148.044 117.831 147.231 117.954 146.277C119.654 145.578 121.532 144.784 123.232 144.085C123.588 143.893 123.943 143.701 124.298 143.509C124.162 147.133 129.621 150.614 134.032 147.783C151.649 136.028 169.396 124.869 185.707 111.379C192.242 105.845 202.252 98.6516 208.191 90.9983C209.284 90.8507 210.452 90.4406 211.619 90.0304C213.635 91.3808 216.51 91.8218 218.866 89.881C230.139 80.8943 239.984 71.1268 249.064 60.8857C250.382 59.9505 251.98 59.0857 253.4 58.3169C257.484 56.1066 259.197 52.7381 259.155 49.2101C266.396 53.2802 277.793 49.1084 276.786 40.5543C279.872 37.1086 282.678 33.5926 285.484 30.0765C287.519 30.3064 289.602 29.8448 291.323 28.0258C294.484 24.3175 297.542 20.4429 300.525 16.8307C303.079 13.6733 307.545 11.6997 309.538 8.40162C310.951 6.08333 310.253 3.79769 308.771 2.15898C312.062 -0.953852 315.175 -3.97062 318.951 -6.68021C319.336 -6.94643 319.693 -7.25486 320.026 -7.59477L304.119 -116.596C303.453 -116.082 302.833 -115.5 302.29 -114.84C292.33 -102.569 285.887 -88.4296 279.827 -74.0532Z" fill="#9696FF"/>
<path d="M-65.9532 85.5869C-63.7952 84.8627 -61.4596 84.0425 -59.3017 83.3183C-53.1132 85.2949 -44.9664 81.995 -43.7255 75.5532C-32.8204 69.4287 -22.1751 62.1132 -11.3176 56.6803C-8.83198 55.3349 -8.05422 53.1385 -8.36909 51.0897C-8.01401 50.8975 -7.6589 50.7053 -7.48136 50.6092C-4.00555 48.9498 -2.23741 46.4392 -1.58953 43.6473C0.260933 42.4238 1.8313 41.13 3.68177 39.9065C4.90446 40.3543 6.55727 40.3474 7.97761 39.5786C24.0315 30.6672 36.408 13.0939 49.7767 0.975439C64.4632 -12.0782 81.0899 -23.5189 95.3938 -36.8094C96.0015 -37.3602 96.4316 -37.815 96.9368 -38.5323C99.7226 -40.9278 102.788 -43.253 105.779 -45.3156C108.592 -47.2822 108.223 -50.189 106.637 -51.9941C108.18 -53.717 109.443 -55.5103 110.809 -57.137C112.249 -59.0263 113.792 -60.7492 115.233 -62.6385C117.22 -61.717 119.508 -61.8458 121.331 -63.4983C132.092 -73.3173 139.627 -87.6046 149.39 -98.659C150.25 -99.5685 150.55 -100.619 150.393 -101.643C151.328 -102.815 152.161 -104.154 152.919 -105.23C157.472 -110.136 161.746 -115.112 165.74 -120.159C168.368 -123.579 170.586 -127.664 172.805 -131.75C174.485 -131.328 176.493 -131.527 178.241 -132.917C183.41 -136.824 186.604 -144.323 189.087 -151.438C190.35 -153.231 191.333 -155.095 192.288 -157.387C192.92 -158.772 193.15 -160.082 193.086 -161.363L138.732 -182.181C136.996 -180.782 135.309 -179.27 133.682 -177.596C132.214 -176.136 130.848 -174.509 129.483 -172.883C130.036 -174.291 130.588 -175.7 131.141 -177.109C133.502 -183.269 124.793 -185.879 120.847 -181.524C120.164 -180.711 119.304 -179.801 118.621 -178.988C117.256 -177.361 117.263 -175.811 117.803 -174.55C115.087 -168.198 111.606 -162.319 107.817 -156.939C107.005 -156.721 106.014 -156.407 105.127 -155.927L102.894 -154.94C102.716 -154.844 102.716 -154.844 102.538 -154.748C94.6241 -150.686 88.185 -146.535 82.3683 -139.835C79.6375 -136.582 77.4942 -132.759 75.0709 -129.006C73.6781 -127.808 72.5652 -126.54 71.8624 -124.606C71.5348 -123.985 71.2071 -123.364 70.8795 -122.743C68.9339 -120.136 66.6808 -118.029 63.9426 -116.325C60.3168 -114.14 58.7811 -110.868 58.5432 -107.41C56.0101 -105.373 53.757 -103.266 51.7565 -101.517C49.5509 -100.102 47.6254 -98.6156 45.6999 -97.1296C44.9623 -97.1741 44.1496 -96.9562 43.2619 -96.4757C25.385 -85.9118 10.208 -69.0419 -5.36622 -55.5078C-19.6226 -42.9088 -36.802 -30.0593 -47.7655 -14.8042C-48.0181 -14.4455 -48.2706 -14.0869 -48.4207 -13.5618C-52.6543 -10.8265 -57.0654 -7.99514 -61.1964 -5.09335C-66.1676 -2.40262 -71.1388 0.288179 -75.8574 2.62028C-78.9782 4.08749 -81.8188 5.6251 -84.837 7.25876C-86.2085 7.88788 -87.5603 8.52183 -88.8938 9.17034L-78.3873 81.6024L-73.5367 90.4706C-71.016 88.7977 -68.4945 87.1532 -65.9532 85.5869ZM50.8001 -61.9404C46.5062 -55.8435 42.3899 -49.8427 38.2736 -43.8418C37.891 -44.0786 37.686 -44.4116 37.3034 -44.6484C41.5223 -50.4827 46.1237 -56.0803 50.8001 -61.9404Z" fill="#9696FF"/>
<path d="M227.365 117.904C226.027 119.96 225.707 122.131 225.947 124.442C219.112 131.026 215.031 139.006 216.448 148.226C215.512 149.398 214.652 150.307 213.717 151.479C210.191 148.061 204.31 146.584 199.974 149.153C197.844 150.306 195.741 151.888 193.918 153.54C190.748 149.93 185.502 148.331 180.148 150.785C166.852 156.872 164.848 168.609 161.089 180.187C160.734 180.379 160.277 180.405 159.921 180.597C153.577 183.365 148.539 187.868 144.19 193.107C142.537 193.113 140.632 193.479 138.856 194.44C129.521 199.271 126.635 207.269 125.279 216.214C123.791 218.795 122.378 221.113 121.17 223.764C121.162 223.782 121.156 223.799 121.147 223.815L146.601 233.544L153.68 231.838L335.68 99.6682L332.583 78.4483C320.286 80.0797 308.45 84.1624 297.081 89.2685C277.743 81.3155 235.345 106.261 227.365 117.904ZM164.287 205.753C160.846 209.391 157.583 212.932 154.422 216.641C156.613 212.126 159.186 207.848 162.272 204.402C163.037 204.876 163.98 205.253 164.718 205.298C164.54 205.394 164.465 205.657 164.287 205.753ZM278.707 123.626C275.511 125.356 272.213 126.919 269.195 128.553C268.505 127.817 267.917 127.247 267.329 126.677C268.6 126.433 269.87 126.19 271.215 125.684C274.691 124.024 278.269 122.531 281.848 121.038C281.95 121.205 282.053 121.371 282.23 121.275C281.09 122.114 279.847 122.787 278.707 123.626Z" fill="#9696FF"/>
<path d="M-109.121 295.129L-165.92 308.806C-191.391 314.949 -211.775 330.423 -224.023 350.319C-234.042 366.592 -238.594 385.823 -236.023 405.346C-226.952 403.412 -217.897 401.549 -209.073 399.41C-158.783 387.28 -108.314 375.054 -57.9213 363.091C-9.33094 351.66 37.6669 336.875 85.4097 323.683C109.407 316.908 133.098 309.633 157.02 303.121C179.14 297.14 201.48 294.591 223.989 290.397C271.904 281.329 318.937 268.522 367.084 260.215C391.069 256.11 413.604 246.576 437.664 242.208C458.194 238.642 476.29 231.51 496.252 226.254C519.82 219.933 544.522 216.993 568.445 210.481C590.92 204.308 613.457 200.543 636.656 197.084C661.304 193.286 686.977 191.153 710.872 184.211C731.516 178.142 753.623 174.831 773.085 166.072C786.381 159.985 796.564 178.442 783.371 184.695L781.138 185.682C780.25 186.163 779.437 186.381 778.625 186.599C760.173 193.923 740.634 197.175 721.615 202.809C697.719 209.75 672.737 212.62 648.089 216.418C622.807 220.338 597.702 224.161 572.966 230.892C551.024 236.776 528.404 239.255 506.64 245.043C494.627 248.216 483.415 253.841 471.402 257.015C461.827 259.534 451.966 260.433 442.186 262.62C420.441 267.287 399.859 275.765 378.06 279.575C330.09 287.785 283.235 300.496 235.32 309.564C210.727 314.22 185.819 316.827 161.644 323.698C139.907 329.916 118.375 336.466 96.7127 342.421C48.9699 355.613 2.07445 370.565 -46.0583 381.97C-96.4515 393.933 -146.742 406.063 -197.033 418.192C-207.93 420.817 -219.365 423.027 -230.801 425.442C-214.175 467.223 -165.898 491.527 -118.851 480.181L313.917 375.965C318.146 374.079 322.442 372.449 326.795 371.109C335.89 368.308 345.199 366.7 354.502 366.192L761.618 268.15C811.909 256.021 842.421 207.547 829.483 160.4C816.545 113.252 764.84 84.6467 714.549 96.7762L153.681 231.841L146.602 233.546L-109.121 295.129Z" fill="#6439FF"/>
<path d="M-46.0592 381.968C2.07352 370.563 48.9689 355.61 96.7117 342.419C118.374 336.464 139.906 329.914 161.643 323.696C185.819 316.825 210.726 314.218 235.319 309.562C283.234 300.494 330.089 287.783 378.059 279.572C399.858 275.763 420.44 267.285 442.185 262.617C451.964 260.431 461.826 259.532 471.401 257.012C483.414 253.839 494.626 248.214 506.639 245.041C528.403 239.253 551.023 236.774 572.965 230.89C597.701 224.159 622.806 220.336 648.088 216.416C672.736 212.618 697.718 209.748 721.614 202.807C740.633 197.173 760.172 193.921 778.623 186.596C779.436 186.378 780.249 186.161 781.137 185.68L783.37 184.693C796.563 178.44 786.38 159.983 773.084 166.07C753.622 174.829 731.515 178.14 710.871 184.209C686.976 191.151 661.303 193.284 636.655 197.082C613.456 200.54 590.919 204.306 568.444 210.479C544.521 216.991 519.819 219.931 496.251 226.252C476.289 231.508 458.193 238.64 437.663 242.206C413.603 246.574 391.068 256.108 367.083 260.213C318.936 268.52 271.903 281.327 223.988 290.395C201.479 294.589 179.139 297.138 157.019 303.119C133.097 309.631 109.406 316.906 85.4087 323.681C37.6659 336.872 -9.33191 351.658 -57.9222 363.089C-108.315 375.052 -158.784 387.278 -209.074 399.407C-217.898 401.547 -226.953 403.41 -236.024 405.344C-235.534 409.077 -234.811 412.818 -233.786 416.556C-232.952 419.597 -231.949 422.559 -230.802 425.44C-219.366 423.025 -207.932 420.813 -197.034 418.19C-146.743 406.061 -96.4524 393.931 -46.0592 381.968Z" fill="#06083F"/>
<path d="M286.225 544.554L227.096 504.942C225.267 507.777 223.325 510.519 221.258 513.136C191.609 550.711 146.22 577.72 99.8371 593.504C58.2114 607.657 15.7196 611.739 -27.3144 616.636C-23.9345 628.713 -19.3692 640.685 -13.4973 652.407C6.50038 692.182 35.7598 733.159 40.0164 778.126C41.9956 798.422 38.8481 816.817 32.3881 834.184L155.835 916.886C165.391 910.378 174.534 903.394 183.128 895.961C197.837 883.271 211.653 869.086 223.754 853.701C209.859 838.827 197.436 822.793 186.669 806.383C166.203 775.072 137.987 728.87 152.706 690.499C165.917 655.83 206.365 643.479 241.026 659.784C318.617 696.34 288.514 790.122 247.824 851.187C259.157 862.635 271.555 873.488 284.965 882.614L373.753 766.131C335.662 722.385 313.872 665.606 335.915 609.753C339.237 601.283 343.397 593.397 348.235 586.095L308.82 559.69C303.256 556.883 297.938 553.605 292.918 549.893C290.625 548.2 288.384 546.433 286.225 544.554Z" fill="#06083F"/>
<path d="M265.452 770.176C271.481 743.832 273.422 708.161 250.795 687.563C233.633 671.996 199.48 660.744 180.629 680.49C144.827 718.067 193.39 786.544 218.152 817.527C223.488 824.209 229.211 831.053 235.29 837.845C249.311 816.954 259.987 794.204 265.452 770.176Z" fill="#06083F"/>
<path d="M195.23 515.461C201.108 509.17 206.366 501.875 210.759 493.997L110.203 426.633L-21.1586 598.971C-0.876753 596.964 19.4014 594.843 39.4321 591.136C95.707 580.648 156.648 556.983 195.23 515.461Z" fill="#06083F"/>
<path d="M13.8961 750.319C-1.26638 708.297 -29.1573 671.234 -44.0502 629.003L-121.74 730.929L17.0019 823.876C17.354 822.734 17.7089 821.592 18.0179 820.437C24.4163 797 22.0655 773.195 13.8961 750.319Z" fill="#06083F"/>
<path d="M347.62 643.366C344.157 683.632 359.592 720.588 385.128 751.21L455.97 658.271L363.518 596.336C354.688 610.124 349.11 626.079 347.62 643.366Z" fill="#06083F"/>
<path d="M373.754 766.133L385.126 751.211C359.591 720.587 344.155 683.633 347.618 643.367C349.109 626.08 354.686 610.125 363.516 596.337L348.234 586.098C343.396 593.399 339.236 601.285 335.914 609.755C313.871 665.605 335.663 722.386 373.754 766.133Z" fill="#6439FF"/>
<path d="M241.025 659.783C206.365 643.479 165.916 655.829 152.706 690.499C137.987 728.87 166.203 775.072 186.669 806.382C197.435 822.792 209.859 838.826 223.753 853.7C211.653 869.085 197.836 883.27 183.127 895.961C174.533 903.393 165.39 910.375 155.835 916.885L171.962 927.69C190.274 914.612 206.992 900.021 221.444 884.764C226.433 879.489 231.572 873.43 236.682 866.771C248.28 877.824 260.773 887.985 274.098 896.873L284.965 882.617C271.553 873.49 259.155 862.637 247.824 851.191C288.514 790.121 318.616 696.339 241.025 659.783ZM218.151 817.527C193.389 786.544 144.826 718.066 180.629 680.489C199.48 660.743 233.633 671.996 250.794 687.562C273.422 708.16 271.481 743.832 265.452 770.175C259.986 794.204 249.311 816.953 235.289 837.845C229.211 831.053 223.487 824.208 218.151 817.527Z" fill="#6439FF"/>
<path d="M40.0163 778.125C35.7596 733.159 6.50021 692.182 -13.4975 652.406C-19.3694 640.684 -23.9347 628.712 -27.3146 616.636C15.7184 611.737 58.2102 607.655 99.837 593.504C146.22 577.719 191.609 550.711 221.258 513.135C223.326 510.52 225.267 507.776 227.096 504.942L210.759 493.997C206.366 501.875 201.109 509.17 195.23 515.461C156.649 556.983 95.7075 580.648 39.4333 591.133C19.4026 594.84 -0.875644 596.961 -21.1575 598.969L-44.05 629.003C-29.1571 671.233 -1.2662 708.297 13.8962 750.319C22.0657 773.194 24.4165 797 18.0181 820.436C17.709 821.591 17.3542 822.733 17.0021 823.876L32.3879 834.183C38.8479 816.816 41.9954 798.421 40.0163 778.125Z" fill="#6439FF"/>
<path d="M289.99 406.026C294.199 399.779 296.185 392.224 297.936 384.674C293.617 387.505 289.58 390.586 285.822 393.883C285.916 397.476 286.351 401.023 287.21 404.202C288.33 404.483 289.198 405.123 289.99 406.026Z" fill="#311B92"/>
<path d="M278.738 413.892C277.302 411.007 276.243 407.738 275.501 404.288C274.429 405.534 273.388 406.796 272.382 408.084C272.645 414.393 272.206 421.452 274.678 426.519C276.719 422.53 277.817 418.163 278.738 413.892Z" fill="#311B92"/>
<path d="M371.156 566.267C368.744 561.581 369.077 556.74 370.325 551.848C366.856 555.057 363.463 558.003 360.275 561.283C357.052 564.603 354.089 568.071 351.266 571.616C358.318 572.209 365.448 572.166 372.566 571.463C373.05 570.546 373.531 569.631 374.068 568.688C372.741 568.072 371.771 567.266 371.156 566.267Z" fill="#311B92"/>
<path d="M313.646 376.084C312.931 376.404 312.214 376.713 311.506 377.047C310.649 380.656 310.04 384.345 309.41 387.969C310.819 384.09 312.243 380.092 313.646 376.084Z" fill="#311B92"/>
<path d="M326.751 371.925C326.58 373.57 326.13 375.146 325.782 376.887C328.535 378.282 330.38 381.278 328.285 384.41C322.073 393.543 319.679 403.494 315.249 413.215C314.041 415.866 312.629 418.184 311.141 420.765C310.363 422.961 309.305 425.087 308.527 427.284C308.617 430.12 308.631 433.219 307.908 436.274C306.265 443.599 303.856 450.451 299.768 456.881C299.01 457.957 298.047 458.7 297.057 459.014C296.327 460.519 295.774 461.928 294.866 463.529C293.303 466.372 288.017 467.014 285.919 464.377C280.111 456.868 280.765 449.856 281.943 441.007C282.366 439.003 282.406 436.762 282.371 434.783C281.463 436.384 280.276 437.915 278.985 439.279C277.442 441.002 273.884 441.374 272.046 439.928C265.428 435.024 263.466 429.255 262.671 423.016C246.793 452.906 246.675 489.446 265.818 520.53C267.219 522.806 268.724 524.987 270.278 527.124C270.343 526.676 270.388 526.226 270.471 525.779C271.984 517.858 273.778 510.008 276.131 502.298C278.035 496.163 286.996 498.415 287.176 504.087C287.108 505.9 287.32 507.782 287.43 509.498C288.836 505.63 290.269 502.191 291.225 499.899C292.33 497.081 295.021 496.069 297.616 496.439C298.721 493.622 300.21 491.041 302.818 488.741C305.501 486.179 310.159 487.209 311.724 490.134C316.187 498.15 314.626 506.762 312.122 514.997C309.093 525.07 307.184 535.424 303.978 545.593C302.825 549.102 298.556 549.859 295.626 548.56C294.888 549.195 293.931 549.675 292.918 549.894C297.937 553.605 303.257 556.884 308.821 559.692C318.102 564.373 328.036 567.776 338.298 569.809C341.4 565.722 344.667 561.739 348.308 557.995C356.152 549.976 368.143 542.154 373.972 532.785C376.976 528.052 378.709 523.563 383.448 520.111C386.869 517.593 393.767 519.186 392.902 524.315C393.004 524.481 392.929 524.744 392.854 525.006C393.332 523.86 393.809 522.714 394.287 521.567C396.648 515.407 407.392 518.247 405.059 524.836C404.731 525.457 404.684 526.149 404.356 526.77C405.544 525.239 406.732 523.709 407.92 522.178C411.408 517.849 419.735 520.222 418.261 525.901C420.884 526.701 423.159 529.242 422.081 532.489C421.604 533.635 421.406 534.852 420.928 535.998C418.205 544.449 415.187 552.63 411.387 560.55C412.909 559.813 414.424 559.048 415.923 558.237C429.716 550.771 441.104 540.91 449.889 529.555C449.414 528.976 449.052 528.299 448.859 527.538C448.422 526.443 448.545 525.489 448.387 524.464C443.006 526.489 437.075 519.935 442.524 516.098C446.02 513.318 445.998 508.669 447.786 505.038C449.725 500.882 452.38 497.891 456.436 495.252C459.707 493.259 463.355 495.723 464.463 498.675C465.06 498.027 465.812 497.576 466.625 497.267C470.87 483.309 471.979 468.532 469.677 453.926C466.677 457.465 458.556 455.749 459.633 450.467C460.553 446.196 461.652 441.829 462.955 437.795C462.217 437.75 461.554 437.443 460.892 437.136C460.134 438.212 459.301 439.551 458.544 440.627C456.018 444.213 448.921 443.837 448.237 438.882C448.414 438.785 448.312 438.619 448.312 438.619C446.769 440.342 444.686 440.804 442.726 440.311C438.944 447.24 434.398 453.696 428.526 459.537C425.235 462.65 418.179 460.033 418.997 455.596C421.199 442.642 429.979 433.451 433.888 421.348C436.189 413.764 438.031 406.627 443.126 400.566C434.171 391.102 423.578 383.477 412.011 377.803C411.31 383.313 409.378 388.418 407.03 393.495C407.747 394.66 407.932 396.114 407.304 397.785C404.868 404.208 402.712 410.701 400.481 417.457C401.609 419.288 401.391 421.625 399.11 423.303C398.933 423.4 398.578 423.592 398.325 423.95C395.269 433.594 391.652 443.097 386.58 451.391C383.932 455.931 375.25 453.75 376.191 448.359C376.286 446.976 376.737 445.4 377.084 443.659C375.691 444.856 373.813 445.651 372.058 445.491C369.144 453.061 365.848 460.393 361.814 467.681C359.999 470.883 356.133 470.756 353.632 469.002C352.847 469.649 351.782 470.226 350.717 470.802C348.409 472.052 344.133 471.259 342.923 468.141C338.883 458.122 343.347 450.379 346.479 440.473C349.583 430.137 351.902 420.449 359.746 412.43C361.037 411.066 362.765 410.797 364.342 411.052C364.615 409.573 364.99 408.26 365.543 406.852C366.246 404.918 368.096 403.694 370.002 403.329C371.865 399.435 374.213 395.945 376.411 392.979C377.019 392.429 377.449 391.974 378.159 391.589C379.462 387.555 381.428 383.828 384.972 380.357C387.477 377.891 392.313 378.824 393.878 381.75C394.111 382.512 394.418 383.011 394.651 383.773C395.905 379.778 397.332 376.061 399.46 372.521C385.182 367.526 369.857 365.346 354.501 366.185C345.198 366.693 335.89 368.303 326.793 371.103C326.796 371.372 326.796 371.638 326.751 371.925Z" fill="#311B92"/>
<path d="M420.928 535.998C421.406 534.852 421.604 533.635 422.082 532.489C423.16 529.243 420.884 526.701 418.261 525.902C419.735 520.222 411.408 517.849 407.92 522.178C406.732 523.709 405.544 525.24 404.356 526.77C404.684 526.149 404.731 525.458 405.059 524.836C407.392 518.247 396.648 515.407 394.287 521.568C393.809 522.714 393.332 523.86 392.854 525.007C392.929 524.744 393.004 524.481 392.902 524.315C393.767 519.186 386.869 517.594 383.448 520.111C378.709 523.564 376.976 528.053 373.972 532.785C368.143 542.155 356.152 549.976 348.308 557.995C344.669 561.738 341.399 565.72 338.298 569.809C342.571 570.656 346.902 571.25 351.266 571.616C354.091 568.07 357.052 564.603 360.274 561.283C363.463 558.003 366.856 555.057 370.325 551.848C369.077 556.74 368.744 561.581 371.156 566.267C371.771 567.266 372.741 568.072 374.066 568.687C373.531 569.631 373.05 570.546 372.565 571.461C377.577 570.966 382.576 570.139 387.534 568.98C387.688 568.733 387.846 568.494 387.999 568.247C387.935 568.47 387.888 568.689 387.827 568.913C395.849 567.014 403.754 564.254 411.388 560.552C415.187 552.63 418.205 544.45 420.928 535.998Z" fill="#9696FF"/>
<path d="M393.877 381.753C392.312 378.827 387.477 377.894 384.971 380.359C381.427 383.831 379.462 387.558 378.159 391.592C377.448 391.977 377.018 392.431 376.411 392.982C374.212 395.947 371.864 399.438 370.001 403.331C368.095 403.697 366.245 404.92 365.542 406.854C364.989 408.263 364.614 409.576 364.342 411.055C362.764 410.799 361.036 411.069 359.746 412.433C351.901 420.452 349.582 430.14 346.478 440.476C343.347 450.382 338.882 458.124 342.922 468.144C344.132 471.262 348.408 472.054 350.716 470.805C351.781 470.229 352.847 469.652 353.632 469.005C356.132 470.759 359.998 470.886 361.813 467.684C365.847 460.396 369.144 453.063 372.057 445.494C373.813 445.654 375.691 444.859 377.084 443.662C376.736 445.403 376.286 446.978 376.19 448.362C375.25 453.753 383.931 455.934 386.58 451.393C391.651 443.1 395.268 433.597 398.324 423.953C398.577 423.595 398.932 423.402 399.11 423.306C401.39 421.628 401.608 419.291 400.48 417.46C402.711 410.704 404.867 404.211 407.304 397.788C407.931 396.117 407.746 394.663 407.029 393.498C409.376 388.419 411.309 383.316 412.011 377.805C407.937 375.807 403.751 374.027 399.461 372.526C397.332 376.065 395.904 379.781 394.651 383.777C394.417 383.014 394.11 382.514 393.877 381.753Z" fill="#9696FF"/>
<path d="M272.047 439.928C273.884 441.375 277.443 441.002 278.986 439.279C280.276 437.915 281.464 436.385 282.372 434.783C282.406 436.762 282.366 439.003 281.943 441.007C280.765 449.857 280.112 456.868 285.92 464.377C288.017 467.014 293.303 466.372 294.866 463.529C295.774 461.928 296.327 460.519 297.057 459.014C298.047 458.7 299.01 457.957 299.768 456.881C303.857 450.451 306.265 443.6 307.909 436.274C308.632 433.22 308.617 430.121 308.527 427.284C309.305 425.088 310.363 422.962 311.141 420.765C312.629 418.184 314.042 415.866 315.25 413.215C319.679 403.494 322.073 393.543 328.285 384.41C330.381 381.279 328.536 378.283 325.783 376.888C326.13 375.146 326.581 373.571 326.751 371.925C326.797 371.638 326.796 371.372 326.794 371.107C322.44 372.447 318.144 374.078 313.916 375.962C313.825 376.003 313.737 376.044 313.646 376.084C312.244 380.092 310.819 384.09 309.409 387.97C310.042 384.347 310.65 380.656 311.505 377.048C309.667 377.918 307.843 378.831 306.039 379.807C303.232 381.326 300.543 382.964 297.936 384.674C296.186 392.226 294.2 399.779 289.991 406.025C289.198 405.123 288.33 404.483 287.21 404.201C286.351 401.023 285.918 397.475 285.822 393.883C282.099 397.15 278.654 400.628 275.5 404.29C276.242 407.739 277.3 411.008 278.737 413.894C277.817 418.165 276.718 422.532 274.678 426.522C272.208 421.454 272.645 414.396 272.381 408.087C268.681 412.822 265.432 417.818 262.67 423.019C263.466 429.255 265.428 435.024 272.047 439.928Z" fill="#9696FF"/>
<path d="M295.626 548.56C298.556 549.859 302.825 549.102 303.978 545.593C307.184 535.424 309.093 525.07 312.122 514.997C314.626 506.762 316.187 498.15 311.724 490.135C310.159 487.209 305.501 486.18 302.818 488.742C300.21 491.041 298.722 493.622 297.616 496.439C295.021 496.069 292.33 497.081 291.225 499.899C290.269 502.192 288.836 505.63 287.43 509.498C287.321 507.782 287.108 505.9 287.176 504.088C286.996 498.415 278.035 496.164 276.132 502.298C273.778 510.008 271.984 517.859 270.471 525.78C270.386 526.227 270.344 526.676 270.279 527.124C274.976 533.583 280.325 539.416 286.225 544.554C288.384 546.433 290.625 548.2 292.918 549.895C293.931 549.675 294.888 549.195 295.626 548.56Z" fill="#9696FF"/>
</g>
</g>
</svg>
