<svg width="16" height="16" viewBox="0 0 16 16" fill="none" xmlns="http://www.w3.org/2000/svg">
<path d="M10.667 13.9999V12.6666C10.667 11.9593 10.386 11.281 9.88594 10.7809C9.38585 10.2808 8.70757 9.99989 8.00032 9.99989H3.33366C2.62641 9.99989 1.94814 10.2808 1.44804 10.7809C0.947944 11.281 0.666992 11.9593 0.666992 12.6666V13.9999M13.3332 5.33283V9.33283M15.3333 7.33338H11.3333M8.33321 4.66642C8.33321 6.13918 7.1393 7.33309 5.66654 7.33309C4.19378 7.33309 2.99987 6.13918 2.99987 4.66642C2.99987 3.19366 4.19378 1.99976 5.66654 1.99976C7.1393 1.99976 8.33321 3.19366 8.33321 4.66642Z" stroke="#06083F" stroke-width="1.33402" stroke-linecap="round" stroke-linejoin="round"/>
</svg>