<svg width="15" height="16" viewBox="0 0 15 16" fill="none" xmlns="http://www.w3.org/2000/svg">
<mask id="path-1-inside-1_2410_12771" fill="white">
<path d="M14.75 8C14.75 12.0041 11.5041 15.25 7.5 15.25C3.49594 15.25 0.25 12.0041 0.25 8C0.25 3.99594 3.49594 0.75 7.5 0.75C11.5041 0.75 14.75 3.99594 14.75 8Z"/>
</mask>
<path d="M5.18673 7.54038C4.93289 7.28654 4.52133 7.28654 4.26749 7.54038C4.01365 7.79422 4.01365 8.20578 4.26749 8.45962L5.18673 7.54038ZM6.72711 10L6.26749 10.4596L6.72711 10.9192L7.18673 10.4596L6.72711 10ZM4.26749 8.45962L6.26749 10.4596L7.18673 9.54038L5.18673 7.54038L4.26749 8.45962ZM7.18673 10.4596L11.1867 6.45962L10.2675 5.54038L6.26749 9.54038L7.18673 10.4596ZM13.45 8C13.45 11.2861 10.7861 13.95 7.5 13.95V16.55C12.222 16.55 16.05 12.722 16.05 8H13.45ZM7.5 13.95C4.21391 13.95 1.55 11.2861 1.55 8H-1.05C-1.05 12.722 2.77797 16.55 7.5 16.55V13.95ZM1.55 8C1.55 4.71391 4.21391 2.05 7.5 2.05V-0.55C2.77797 -0.55 -1.05 3.27797 -1.05 8H1.55ZM7.5 2.05C10.7861 2.05 13.45 4.71391 13.45 8H16.05C16.05 3.27797 12.222 -0.55 7.5 -0.55V2.05Z" fill="#008842" mask="url(#path-1-inside-1_2410_12771)"/>
</svg>
