<svg width="16" height="16" viewBox="0 0 16 16" fill="none" xmlns="http://www.w3.org/2000/svg">
<path d="M12.6665 7.33289H3.33315C2.59677 7.33289 1.99982 7.92984 1.99982 8.66622V13.3329C1.99982 14.0693 2.59677 14.6662 3.33315 14.6662H12.6665C13.4029 14.6662 13.9998 14.0693 13.9998 13.3329V8.66622C13.9998 7.92984 13.4029 7.33289 12.6665 7.33289Z" stroke="#6439FF" stroke-width="1.33402" stroke-linecap="round" stroke-linejoin="round"/>
<path d="M4.6662 7.33399V4.66732C4.6662 3.78326 5.01739 2.93542 5.64251 2.3103C6.26763 1.68517 7.11548 1.33398 7.99953 1.33398C8.88359 1.33398 9.73143 1.68517 10.3566 2.3103C10.9817 2.93542 11.3329 3.78326 11.3329 4.66732V7.33399" stroke="#6439FF" stroke-width="1.33402" stroke-linecap="round" stroke-linejoin="round"/>
</svg>
