<svg width="128" height="34" viewBox="0 0 128 34" fill="none" xmlns="http://www.w3.org/2000/svg">
<path d="M18 33C26.8366 33 34 25.8366 34 17C34 8.16344 26.8366 1 18 1C9.16344 1 2 8.16344 2 17C2 25.8366 9.16344 33 18 33Z" fill="#6439FF"/>
<path d="M9.694 22.5988H7.65307C7.39113 22.5988 7.17285 22.3915 7.17285 22.1186V17.3601C7.17285 17.0982 7.38022 16.8799 7.65307 16.8799H9.68308C9.94502 16.8799 10.1633 17.0872 10.1633 17.3601V22.1186C10.1633 22.3915 9.95594 22.5988 9.694 22.5988Z" fill="white"/>
<path d="M28.3462 22.5986H26.3162C26.0542 22.5986 25.8359 22.3912 25.8359 22.1184V11.6409C25.8359 11.3789 26.0433 11.1606 26.3162 11.1606H28.3462C28.6081 11.1606 28.8264 11.368 28.8264 11.6409V22.1184C28.8155 22.3912 28.6081 22.5986 28.3462 22.5986Z" fill="white"/>
<path d="M8.67932 14.9587C9.72813 14.9587 10.5784 14.1085 10.5784 13.0597C10.5784 12.0109 9.72813 11.1606 8.67932 11.1606C7.63051 11.1606 6.78027 12.0109 6.78027 13.0597C6.78027 14.1085 7.63051 14.9587 8.67932 14.9587Z" fill="#00FFB3"/>
<path d="M18.0003 13.9439V11.1499C14.7698 11.1499 12.1504 13.7693 12.1504 16.9998H14.9444C14.9444 15.3191 16.3086 13.9439 18.0003 13.9439Z" fill="url(#paint0_linear_4843_5888)"/>
<path d="M18.0003 11.1606V13.9546C19.692 13.9546 21.0562 15.3189 21.0562 17.0106C21.0562 18.7023 19.692 20.0665 18.0003 20.0665C17.9566 20.0665 17.8911 20.0665 17.8584 20.0665V22.8496C17.9021 22.8496 17.9566 22.8605 18.0003 22.8605C21.2308 22.8605 23.8502 20.2411 23.8502 17.0106C23.8502 13.7691 21.2308 11.1606 18.0003 11.1606Z" fill="white"/>
<path d="M14.9444 17H12.1504C12.1504 20.2306 14.7698 22.8499 18.0003 22.8499V20.0559C16.3086 20.0559 14.9444 18.6917 14.9444 17Z" fill="url(#paint1_linear_4843_5888)"/>
<path d="M49.2775 22.0999C49.1188 22.0999 48.9898 22.0503 48.8806 21.9412C48.7715 21.832 48.7219 21.703 48.7219 21.5443V17.6943C48.7219 17.0891 48.573 16.8112 48.2952 16.4937C48.0174 16.1762 47.6205 16.0175 47.0846 16.0175C46.5488 16.0175 46.1519 16.1762 45.8443 16.5037C45.5367 16.8311 45.378 17.2974 45.378 17.8928V21.5443C45.378 21.703 45.3284 21.832 45.2192 21.9412C45.1101 22.0503 44.9811 22.0999 44.8223 22.0999H44.1774C44.0186 22.0999 43.8896 22.0503 43.7805 21.9412C43.6713 21.832 43.6217 21.703 43.6217 21.5443V14.9557C43.6217 14.797 43.6713 14.668 43.7805 14.5588C43.8896 14.4497 44.0186 14.4001 44.1774 14.4001H44.7727C44.9414 14.4001 45.0803 14.4497 45.1795 14.5588C45.2788 14.6581 45.3284 14.797 45.3284 14.9657V14.9855C45.5169 14.8168 45.7253 14.6779 45.9535 14.5688C46.3504 14.3703 46.8465 14.2612 47.4319 14.2612C48.3845 14.2612 49.1485 14.5787 49.6843 15.1939C50.2102 15.8091 50.4781 16.6227 50.4781 17.605V21.5443C50.4781 21.703 50.4285 21.832 50.3194 21.9412C50.2102 22.0503 50.0812 22.0999 49.9225 22.0999H49.2775Z" fill="#6439FF"/>
<path d="M54.5266 22.0999C54.1892 22.0999 53.9312 21.9213 53.7923 21.6137L51.4704 15.1542C51.4506 15.0947 51.4407 15.0252 51.4407 14.9359C51.4407 14.7871 51.4903 14.6581 51.5895 14.5588C51.6887 14.4596 51.8177 14.41 51.9467 14.41H52.5917C52.8298 14.41 53.0183 14.539 53.1374 14.7672L54.8044 19.7384L56.4515 14.7871C56.4813 14.6878 56.5508 14.5985 56.65 14.5291C56.7492 14.4497 56.8683 14.41 57.0072 14.41H57.6521C57.7911 14.41 57.9101 14.4596 58.0193 14.5588C58.1185 14.6581 58.1681 14.7871 58.1681 14.9359L58.1383 15.1244L55.8264 21.6137C55.6776 21.9412 55.4295 22.1198 55.0921 22.1198L54.5266 22.0999Z" fill="#6439FF"/>
<path d="M62.405 22.2388C61.3929 22.2388 60.5793 21.9213 59.9641 21.2863C59.3588 20.6612 59.0214 19.7979 58.9718 18.7263L58.9619 18.25L58.9718 17.7737C59.0314 16.712 59.3687 15.8587 59.9641 15.2237C60.5793 14.5886 61.3929 14.2612 62.405 14.2612C63.4965 14.2612 64.3498 14.6184 64.9551 15.313C65.5504 15.9976 65.858 16.9402 65.858 18.1111V18.3592C65.858 18.5179 65.8084 18.6469 65.6993 18.7561C65.5901 18.8652 65.4611 18.9148 65.3024 18.9148H60.7182C60.7579 19.4109 60.9266 19.8376 61.2143 20.1948C61.512 20.5619 61.899 20.7505 62.3951 20.7505C62.7821 20.7505 63.0996 20.6711 63.3377 20.5322C63.5858 20.3734 63.7743 20.2147 63.8934 20.0559C64.0025 19.9071 64.0918 19.8277 64.1712 19.788C64.2506 19.7483 64.3597 19.7285 64.5185 19.7285H65.1337C65.2726 19.7285 65.3917 19.7681 65.4909 19.8475C65.61 19.9368 65.6695 20.0658 65.6695 20.2147C65.6695 20.4826 65.5306 20.7703 65.2329 21.1077C64.965 21.4153 64.578 21.6931 64.0918 21.9114C63.5957 22.1297 63.0301 22.2388 62.405 22.2388ZM64.1117 17.4959C64.0819 16.9998 63.9232 16.583 63.6453 16.2655C63.3377 15.9083 62.9309 15.7396 62.405 15.7396C61.8791 15.7396 61.4624 15.9083 61.1647 16.2655C60.8968 16.583 60.748 16.9998 60.7083 17.5058L64.1117 17.4959Z" fill="#6439FF"/>
<path d="M67.9119 22.0999C67.7531 22.0999 67.6241 22.0503 67.515 21.9412C67.4058 21.832 67.3562 21.703 67.3562 21.5443V14.9657C67.3562 14.8069 67.4058 14.6779 67.505 14.5688C67.6142 14.4596 67.7531 14.4001 67.9119 14.4001H68.4973C68.666 14.4001 68.8049 14.4497 68.9041 14.5588C69.0033 14.6581 69.0529 14.7871 69.0629 14.9359C69.4895 14.5787 70.0551 14.4001 70.7596 14.4001H71.3054C71.474 14.4001 71.6129 14.4497 71.7122 14.5588C71.8114 14.6581 71.861 14.797 71.861 14.9657V15.4816C71.861 15.6404 71.8114 15.7694 71.7122 15.8686C71.6129 15.9778 71.474 16.0373 71.3054 16.0373H70.5116C70.1444 16.0373 69.817 16.1961 69.4796 16.5433C69.2316 16.7914 69.1125 17.1486 69.1125 17.5852V21.5443C69.1125 21.703 69.0529 21.8419 68.9339 21.9511C68.8247 22.0503 68.6858 22.1099 68.537 22.1099L67.9119 22.0999Z" fill="#6439FF"/>
<path d="M75.5324 22.0999C73.9448 22.0999 73.1411 21.197 73.1411 19.4308V12.8423C73.1411 12.6835 73.1907 12.5545 73.29 12.4553C73.3892 12.3461 73.5281 12.2866 73.6869 12.2866H74.302C74.4608 12.2866 74.5997 12.3461 74.6989 12.4454C74.8081 12.5545 74.8577 12.6835 74.8577 12.8423V14.4001H76.3461C76.5048 14.4001 76.6338 14.4497 76.743 14.5588C76.8521 14.668 76.9017 14.797 76.9017 14.9557V15.4419C76.9017 15.6007 76.8422 15.7396 76.733 15.8388C76.6239 15.9381 76.4949 15.9877 76.3461 15.9877H74.8577V19.3415C74.8577 19.7681 74.9272 20.0857 75.0462 20.2841C75.1554 20.4528 75.3439 20.5322 75.6317 20.5322H76.4751C76.6338 20.5322 76.7727 20.5917 76.872 20.7009C76.9712 20.81 77.0208 20.939 77.0208 21.0878V21.5443C77.0208 21.703 76.9712 21.832 76.872 21.9312C76.7727 22.0404 76.6338 22.0999 76.4751 22.0999H75.5324Z" fill="#6439FF"/>
<path d="M79.1144 22.0999C78.9556 22.0999 78.8266 22.0503 78.7175 21.9412C78.6083 21.832 78.5587 21.703 78.5587 21.5443V14.9557C78.5587 14.797 78.6083 14.668 78.7175 14.5588C78.8266 14.4497 78.9556 14.4001 79.1144 14.4001H79.7296C79.8883 14.4001 80.0272 14.4596 80.1265 14.5588C80.2356 14.668 80.2852 14.797 80.2852 14.9557V21.5443C80.2852 21.703 80.2356 21.832 80.1265 21.9412C80.0173 22.0503 79.8883 22.0999 79.7296 22.0999H79.1144Z" fill="#6439FF"/>
<path d="M79.422 13.7154C78.8663 13.7154 78.4198 13.2689 78.4198 12.7133C78.4198 12.1576 78.8663 11.7111 79.422 11.7111C79.9776 11.7111 80.4241 12.1576 80.4241 12.7133C80.4241 13.2689 79.9776 13.7154 79.422 13.7154Z" fill="#6439FF"/>
<path d="M40.6946 22.0999C40.5358 22.0999 40.4068 22.0503 40.2977 21.9412C40.1885 21.832 40.1389 21.703 40.1389 21.5443V14.9557C40.1389 14.797 40.1885 14.668 40.2977 14.5588C40.4068 14.4497 40.5358 14.4001 40.6946 14.4001H41.3098C41.4685 14.4001 41.6074 14.4596 41.7067 14.5588C41.8158 14.668 41.8654 14.797 41.8654 14.9557V21.5443C41.8654 21.703 41.8158 21.832 41.7067 21.9412C41.5975 22.0503 41.4685 22.0999 41.3098 22.0999H40.6946Z" fill="#6439FF"/>
<path d="M41.0022 13.7154C40.4465 13.7154 40 13.2689 40 12.7133C40 12.1576 40.4465 11.7111 41.0022 11.7111C41.5578 11.7111 42.0043 12.1576 42.0043 12.7133C42.0043 13.2689 41.5578 13.7154 41.0022 13.7154Z" fill="#6439FF"/>
<path d="M82.5972 22.0999C82.4384 22.0999 82.3094 22.0503 82.2003 21.9412C82.0911 21.832 82.0415 21.703 82.0415 21.5443V14.9657C82.0415 14.8069 82.0911 14.6779 82.1903 14.5688C82.2995 14.4596 82.4384 14.4001 82.5972 14.4001H83.1826C83.3513 14.4001 83.4902 14.4497 83.5894 14.5588C83.6886 14.6581 83.7383 14.7871 83.7482 14.9359C84.1748 14.5787 84.7404 14.4001 85.4449 14.4001H85.9907C86.1593 14.4001 86.2983 14.4497 86.3975 14.5588C86.4967 14.6581 86.5463 14.797 86.5463 14.9657V15.4816C86.5463 15.6404 86.4967 15.7694 86.3975 15.8686C86.2983 15.9778 86.1593 16.0373 85.9907 16.0373H85.1969C84.8297 16.0373 84.5023 16.1961 84.1649 16.5433C83.9169 16.7914 83.7978 17.1486 83.7978 17.5852V21.5443C83.7978 21.703 83.7382 21.8419 83.6192 21.9511C83.51 22.0503 83.3711 22.1099 83.2223 22.1099L82.5972 22.0999Z" fill="#6439FF"/>
<path d="M88.6003 21.326C88.0347 20.7009 87.7271 19.8773 87.6973 18.885L87.6775 18.2599L87.6973 17.6348C87.7271 16.6326 88.0248 15.819 88.6003 15.1939C89.1758 14.5688 89.9696 14.2512 91.0015 14.2512C92.0335 14.2512 92.8273 14.5688 93.4028 15.1939C93.9783 15.819 94.2759 16.6426 94.3057 17.6348C94.3156 17.734 94.3256 17.9424 94.3256 18.2599C94.3256 18.5775 94.3256 18.7858 94.3057 18.885C94.2759 19.8872 93.9783 20.7009 93.4028 21.326C92.8273 21.9511 92.0335 22.2686 91.0015 22.2686C89.9696 22.2686 89.1659 21.9511 88.6003 21.326ZM92.6983 20.7306C93.1249 20.2841 93.3631 19.6392 93.3928 18.8057C93.4028 18.7064 93.4127 18.5179 93.4127 18.2599C93.4127 18.0019 93.4127 17.8134 93.3928 17.7142C93.3631 16.8807 93.1348 16.2457 92.6983 15.7892C92.2716 15.3427 91.6961 15.1145 91.0015 15.1145C90.3069 15.1145 89.7314 15.3427 89.3048 15.7892C88.8781 16.2357 88.64 16.8807 88.6102 17.7142L88.5904 18.2599L88.6102 18.8057C88.64 19.6392 88.8682 20.2742 89.3048 20.7306C89.7314 21.1771 90.297 21.4054 91.0015 21.4054C91.706 21.4054 92.2716 21.1771 92.6983 20.7306Z" fill="#6439FF"/>
<path d="M96.2307 22.0305C96.1711 21.9709 96.1414 21.8916 96.1414 21.7923V14.7275C96.1414 14.6283 96.1711 14.5489 96.2307 14.4894C96.2902 14.4299 96.3696 14.4001 96.4688 14.4001H96.7169C96.8161 14.4001 96.8955 14.4299 96.955 14.4894C97.0145 14.5489 97.0443 14.6283 97.0443 14.7275V15.4221C97.342 15.0351 97.6793 14.7474 98.0564 14.5489C98.4335 14.3505 98.9296 14.2512 99.5348 14.2512C100.507 14.2512 101.251 14.5588 101.777 15.184C102.303 15.8091 102.561 16.6029 102.561 17.5852V21.8023C102.561 21.9015 102.531 21.9809 102.472 22.0404C102.412 22.0999 102.333 22.1297 102.234 22.1297H101.986C101.886 22.1297 101.807 22.0999 101.748 22.0404C101.688 21.9809 101.658 21.9015 101.658 21.8023V17.6547C101.658 16.8509 101.46 16.2258 101.073 15.7793C100.686 15.3328 100.12 15.1145 99.386 15.1145C98.6517 15.1145 98.106 15.3427 97.6793 15.7892C97.2527 16.2357 97.0443 16.8609 97.0443 17.6547V21.8023C97.0443 21.9015 97.0145 21.9809 96.955 22.0404C96.8955 22.0999 96.8161 22.1297 96.7169 22.1297H96.4688C96.3597 22.1198 96.2803 22.09 96.2307 22.0305Z" fill="#6439FF"/>
<path d="M104.953 22.0305C104.893 21.9709 104.863 21.8916 104.863 21.7923V12.0286C104.863 11.9294 104.893 11.85 104.953 11.7905C105.012 11.7309 105.091 11.7012 105.191 11.7012H105.449C105.548 11.7012 105.627 11.7309 105.687 11.7905C105.746 11.85 105.776 11.9294 105.776 12.0286V21.7923C105.776 21.8916 105.746 21.9709 105.687 22.0305C105.627 22.09 105.548 22.1198 105.449 22.1198H105.191C105.091 22.1198 105.012 22.09 104.953 22.0305Z" fill="#6439FF"/>
<path d="M108.158 22.0503C108.098 21.9908 108.068 21.9114 108.068 21.8122V14.7176C108.068 14.6184 108.098 14.539 108.158 14.4795C108.217 14.4199 108.296 14.3902 108.396 14.3902H108.654C108.753 14.3902 108.832 14.4199 108.892 14.4795C108.951 14.539 108.981 14.6184 108.981 14.7176V21.8122C108.981 21.9114 108.951 21.9908 108.892 22.0503C108.832 22.1099 108.753 22.1396 108.654 22.1396H108.396C108.296 22.1396 108.217 22.1099 108.158 22.0503Z" fill="#6439FF"/>
<path d="M111.362 22.0305C111.303 21.9709 111.273 21.8916 111.273 21.7923V14.7275C111.273 14.6283 111.303 14.5489 111.362 14.4894C111.422 14.4299 111.501 14.4001 111.601 14.4001H111.858C111.958 14.4001 112.037 14.4299 112.097 14.4894C112.156 14.5489 112.186 14.6283 112.186 14.7275V15.4221C112.484 15.0351 112.821 14.7474 113.198 14.5489C113.575 14.3505 114.071 14.2512 114.676 14.2512C115.649 14.2512 116.393 14.5588 116.919 15.184C117.445 15.7992 117.703 16.6029 117.703 17.5852V21.8023C117.703 21.9015 117.673 21.9809 117.614 22.0404C117.554 22.0999 117.475 22.1297 117.375 22.1297H117.117C117.018 22.1297 116.939 22.0999 116.879 22.0404C116.82 21.9809 116.79 21.9015 116.79 21.8023V17.6547C116.79 16.8509 116.592 16.2258 116.205 15.7793C115.818 15.3328 115.252 15.1145 114.518 15.1145C113.783 15.1145 113.238 15.3427 112.811 15.7892C112.384 16.2357 112.176 16.8609 112.176 17.6547V21.8023C112.176 21.9015 112.146 21.9809 112.087 22.0404C112.027 22.0999 111.948 22.1297 111.849 22.1297H111.591C111.491 22.1198 111.412 22.09 111.362 22.0305Z" fill="#6439FF"/>
<path d="M120.481 21.3359C119.906 20.7207 119.578 19.8872 119.499 18.8454L119.479 18.25L119.499 17.6547C119.578 16.6227 119.906 15.7992 120.471 15.174C121.037 14.5489 121.801 14.2413 122.753 14.2413C123.785 14.2413 124.589 14.5787 125.165 15.2633C125.74 15.948 126.038 16.8807 126.038 18.0714V18.2897C126.038 18.3889 126.008 18.4683 125.939 18.5278C125.869 18.5874 125.79 18.6171 125.69 18.6171H120.402V18.766C120.422 19.2323 120.531 19.6689 120.719 20.0658C120.908 20.4627 121.186 20.7902 121.533 21.0283C121.88 21.2664 122.287 21.3954 122.753 21.3954C123.299 21.3954 123.736 21.2863 124.083 21.0779C124.42 20.8695 124.668 20.6512 124.817 20.433C124.907 20.3139 124.976 20.2444 125.016 20.2147C125.055 20.1849 125.145 20.175 125.264 20.175H125.502C125.591 20.175 125.661 20.1948 125.72 20.2544C125.78 20.304 125.81 20.3635 125.81 20.4429C125.81 20.6512 125.681 20.8993 125.413 21.197C125.145 21.4947 124.788 21.7427 124.321 21.9511C123.855 22.1595 123.329 22.2686 122.743 22.2686C121.811 22.2686 121.057 21.961 120.481 21.3359ZM125.135 17.7936V17.734C125.135 16.97 124.917 16.3449 124.49 15.8488C124.063 15.3526 123.478 15.1046 122.763 15.1046C122.049 15.1046 121.463 15.3526 121.047 15.8488C120.63 16.3449 120.412 16.97 120.412 17.734V17.7936H125.135Z" fill="#6439FF"/>
<path d="M109.199 12.3858C109.199 12.7629 108.892 13.0705 108.515 13.0705C108.138 13.0705 107.83 12.7629 107.83 12.3858C107.83 12.0088 108.138 11.7012 108.515 11.7012C108.892 11.7012 109.199 12.0088 109.199 12.3858Z" fill="#6439FF"/>
<defs>
<linearGradient id="paint0_linear_4843_5888" x1="19.8059" y1="14.0792" x2="13.7963" y2="14.0792" gradientUnits="userSpaceOnUse">
<stop offset="0.16" stop-color="#6439FF"/>
<stop offset="0.2192" stop-color="#5061F0"/>
<stop offset="0.2928" stop-color="#3B8AE0"/>
<stop offset="0.3705" stop-color="#29AED2"/>
<stop offset="0.4518" stop-color="#1ACCC7"/>
<stop offset="0.5376" stop-color="#0EE2BE"/>
<stop offset="0.6303" stop-color="#06F3B8"/>
<stop offset="0.7346" stop-color="#02FCB4"/>
<stop offset="0.8751" stop-color="#00FFB3"/>
</linearGradient>
<linearGradient id="paint1_linear_4843_5888" x1="13.7677" y1="15.3786" x2="17.0668" y2="24.6002" gradientUnits="userSpaceOnUse">
<stop stop-color="white" stop-opacity="0"/>
<stop offset="0.6198" stop-color="white"/>
<stop offset="0.9493" stop-color="white"/>
</linearGradient>
</defs>
</svg>
