<svg width="17" height="16" viewBox="0 0 17 16" fill="none" xmlns="http://www.w3.org/2000/svg">
<path d="M5.16667 7.33301V4.66634C5.16667 3.78229 5.51786 2.93444 6.14298 2.30932C6.7681 1.6842 7.61595 1.33301 8.5 1.33301C9.38406 1.33301 10.2319 1.6842 10.857 2.30932C11.4821 2.93444 11.8333 3.78229 11.8333 4.66634V7.33301M3.83333 7.33301H13.1667C13.903 7.33301 14.5 7.92996 14.5 8.66634V13.333C14.5 14.0694 13.903 14.6663 13.1667 14.6663H3.83333C3.09695 14.6663 2.5 14.0694 2.5 13.333V8.66634C2.5 7.92996 3.09695 7.33301 3.83333 7.33301Z" stroke="#06083F" stroke-width="2" stroke-linecap="round" stroke-linejoin="round"/>
</svg>
