<svg width="371" height="633" viewBox="0 0 371 633" fill="none" xmlns="http://www.w3.org/2000/svg">
<g clip-path="url(#clip0_2321_21742)">
<path d="M-103.254 -20.813C-23.6403 -58.8549 7.26001 -151.389 -34.1387 -227.213C-75.5374 -303.037 -173.877 -333.593 -253.49 -295.552C-317.023 -265.193 -349.486 -200.133 -338.987 -136.557L-290.855 -48.6475C-241.934 -3.60928 -166.838 9.57864 -103.254 -20.813ZM-252.89 -122.632C-274.154 -161.687 -258.361 -209.192 -217.268 -229.04C-176.054 -248.691 -125.447 -232.873 -104.183 -193.818C-82.7971 -154.566 -98.7973 -106.948 -139.805 -87.4098C-181.019 -67.7592 -231.626 -83.5775 -252.89 -122.632Z" fill="#9696FF"/>
<path d="M274.433 261.804C270.253 263.538 266.072 265.272 262.012 267.203C260.44 267.79 258.954 268.067 257.467 268.344C258.16 269.022 258.854 269.701 259.669 270.577C263.192 268.672 267.044 266.852 270.775 264.835C272.104 263.853 273.554 263.069 274.884 262.087C274.676 262.199 274.555 262.002 274.433 261.804Z" fill="#6D56FE"/>
<path d="M135.01 359.303C131.423 363.349 128.443 368.382 125.914 373.699C129.587 369.344 133.381 365.186 137.383 360.916C137.59 360.804 137.676 360.495 137.883 360.382C137.018 360.323 135.91 359.869 135.01 359.303Z" fill="#6D56FE"/>
<path d="M-145.78 118.817C-140.27 116.101 -134.467 112.963 -128.664 109.826C-123.848 106.432 -118.702 103.123 -113.764 99.9269C-113.593 99.3076 -113.3 98.886 -113.007 98.4643C-100.288 80.5296 -80.2646 65.4908 -63.6644 50.7233C-45.5277 34.8617 -27.8849 15.0546 -7.02441 2.72287C-5.98816 2.16259 -5.0376 1.91192 -4.17276 1.97091C-1.92886 0.231137 0.315096 -1.50867 2.88779 -3.16294C5.21741 -5.21234 7.83991 -7.68341 10.7913 -10.069C11.0406 -14.1531 12.8123 -18.0073 17.0431 -20.558C20.2375 -22.5484 22.86 -25.0195 25.118 -28.0833C25.4966 -28.8146 25.8753 -29.5459 26.254 -30.2772C27.0612 -32.5566 28.3545 -34.0458 29.9767 -35.4494C32.7847 -39.8638 35.2638 -44.3636 38.4365 -48.1852C45.1962 -56.0526 52.7071 -60.9035 61.9476 -65.6363C62.1549 -65.7483 62.1549 -65.7483 62.3622 -65.8604L64.9708 -67.0074C66.007 -67.5677 67.1648 -67.9303 68.1153 -68.1809C72.5096 -74.5061 76.5392 -81.424 79.6682 -88.9081C79.0247 -90.4032 79.0028 -92.2345 80.5891 -94.1453C81.3823 -95.1008 82.3828 -96.1682 83.176 -97.1236C87.7635 -102.237 97.992 -99.0786 95.2775 -91.8186C94.6417 -90.1584 94.0059 -88.4981 93.3701 -86.8379C94.9564 -88.7488 96.5428 -90.6595 98.2506 -92.3728C100.145 -94.3345 102.108 -96.1094 104.13 -97.7476L42.1451 -122.068L-174.658 35.96L-161.002 126.446C-159.445 125.691 -157.866 124.954 -156.264 124.222C-152.741 122.317 -149.425 120.524 -145.78 118.817Z" fill="#6D56FE"/>
<path d="M2.10443 43.5995C-3.32614 50.485 -8.67102 57.0608 -13.5655 63.9197C-13.1152 64.2028 -12.872 64.598 -12.4217 64.8811C-7.64868 57.8246 -2.87579 50.768 2.10443 43.5995Z" fill="#6D56FE"/>
<path d="M304.974 121.546C306.725 123.495 307.562 126.203 305.926 128.93C303.618 132.811 298.401 135.105 295.436 138.815C291.97 143.058 288.419 147.611 284.746 151.966C282.745 154.101 280.308 154.629 277.921 154.34C274.662 158.471 271.404 162.603 267.817 166.648C269.07 176.766 255.748 181.599 247.227 176.727C247.307 180.897 245.328 184.863 240.561 187.44C238.903 188.337 237.038 189.345 235.501 190.439C224.947 202.464 213.493 213.923 200.358 224.448C197.614 226.721 194.24 226.175 191.867 224.562C190.502 225.037 189.137 225.512 187.857 225.677C180.962 234.671 169.292 243.087 161.682 249.571C142.68 265.374 121.977 278.41 101.431 292.152C96.2857 295.46 89.8594 291.299 89.9872 287.018C89.5727 287.242 89.1582 287.466 88.7437 287.69C86.7569 288.501 84.5629 289.424 82.5761 290.235C82.4406 291.361 81.6474 292.317 80.3182 293.298C66.54 302.328 49.1091 309.909 33.2288 315.072C32.8143 315.296 32.071 315.435 31.6565 315.659C29.0121 316.299 26.9178 315.588 25.6166 313.922C21.643 315.544 17.8767 317.054 14.0247 318.873C11.5377 320.218 8.90732 319.533 6.86286 318.006C-3.57131 322.594 -15.5138 325.628 -26.7848 327.51C-27.8569 327.563 -29.0505 327.418 -30.0369 327.162C-34.4319 328.377 -38.8278 329.595 -43.1905 330.916L86.9778 381.894C86.9872 381.873 86.9944 381.853 87.0049 381.834C88.398 378.711 90.034 375.984 91.7559 372.947C93.269 362.387 96.5835 352.959 107.482 347.33C109.555 346.21 111.784 345.794 113.721 345.8C118.773 339.646 124.64 334.367 132.051 331.15C132.466 330.926 133.002 330.9 133.416 330.676C137.723 317.025 139.972 303.172 155.502 296.092C161.755 293.238 167.916 295.172 171.662 299.465C173.785 297.528 176.236 295.676 178.723 294.332C183.783 291.333 190.687 293.129 194.848 297.198C195.934 295.821 196.934 294.754 198.021 293.377C196.281 282.469 200.997 273.074 208.95 265.351C208.649 262.617 209.006 260.055 210.557 257.637C219.81 243.945 269.285 214.826 292.015 224.39C305.296 218.452 319.132 213.728 333.529 211.905L318.079 110.117C317.692 110.515 317.277 110.879 316.827 111.188C312.427 114.357 308.804 117.896 304.974 121.546Z" fill="#6D56FE"/>
<path d="M-134.852 295.02C-133.385 294.658 -131.919 294.29 -130.456 293.907L-137.743 280.588L-135.609 294.724L-134.852 295.02Z" fill="#6D56FE"/>
<path d="M167.105 -67.9913C166.005 -65.2902 164.869 -63.0962 163.405 -60.9879C160.555 -52.6014 156.875 -43.7667 150.851 -39.1931C148.815 -37.5654 146.463 -37.3473 144.49 -37.8604C141.925 -33.0509 139.36 -28.2414 136.309 -24.2222C131.672 -18.2921 126.706 -12.4476 121.411 -6.68857C120.532 -5.42353 119.567 -3.84885 118.481 -2.47174C118.675 -1.25977 118.332 -0.0213355 117.331 1.04614C105.984 14.0268 97.2748 30.8468 84.7479 42.3589C82.6256 44.2963 79.9453 44.429 77.6079 43.3231C75.9359 45.5435 74.1422 47.5664 72.4702 49.7869C70.8839 51.6977 69.4193 53.8061 67.6257 55.829C69.4987 57.9758 69.9569 61.4141 66.6767 63.7142C63.1893 66.1263 59.6162 68.8479 56.3719 71.6552C55.786 72.4986 55.2857 73.0324 54.5782 73.6782C37.9281 89.2625 18.5403 102.641 1.43979 117.942C-14.1242 132.15 -28.479 152.812 -47.2172 163.206C-48.8752 164.103 -50.8121 164.097 -52.2488 163.557C-54.407 164.988 -56.2364 166.503 -58.3946 167.933C-59.1301 171.227 -61.1809 174.179 -65.2402 176.11C-65.4474 176.222 -65.8619 176.446 -66.2764 176.671C-65.89 179.095 -66.7828 181.684 -69.6843 183.252C-82.3624 189.58 -94.7755 198.135 -107.503 205.28C-108.903 212.882 -118.422 216.712 -125.692 214.324C-128.214 215.161 -130.945 216.11 -133.467 216.948C-136.432 218.777 -139.373 220.699 -142.313 222.655L-106.701 287.698C-105.76 287.481 -104.824 287.249 -103.879 287.046C-108.147 281.455 -107.77 273.089 -99.4445 269.114C-97.9938 268.33 -96.2143 267.631 -94.642 267.044C-80.1127 261.032 -65.147 256.626 -50.0738 253.743C-39.568 250.169 -29.098 246.088 -18.3132 243.416C-7.2355 240.323 4.76481 239.627 16.4004 238.339C30.1007 232.774 44.5802 227.579 58.7963 227.791C58.2026 225.479 58.0232 222.943 58.9161 220.354C61.7662 211.968 67.083 208.04 73.3722 205.693C79.2749 200.922 85.9926 197.026 93.4895 193.5C98.6707 190.698 104.095 188.292 109.641 186.083C111.177 184.989 113.043 183.981 114.786 182.775C117.666 179.375 121.654 176.429 125.884 173.878C125.777 172.357 125.877 170.723 126.512 169.063C129.02 161.915 133.986 156.07 139.853 150.792C140.453 148.625 141.71 146.629 143.54 145.113C174.211 120.894 208.004 86.0366 247.711 72.4666C250.298 69.4883 253.214 66.5955 255.922 63.8148C257.387 61.7064 258.73 59.4005 260.073 57.0945C263.216 48.2864 267.017 39.6493 270.403 31.2363C277.382 14.2983 284.812 -2.35672 296.381 -16.7734C297.011 -17.5487 297.73 -18.2296 298.508 -18.8321L298.083 -21.643L168.006 -72.6828C168.092 -71.1683 167.834 -69.6225 167.105 -67.9913Z" fill="#6D56FE"/>
<path d="M270.405 31.2345C267.019 39.6475 263.218 48.2845 260.075 57.0927C258.732 59.3986 257.389 61.7045 255.924 63.8129C253.216 66.5936 250.3 69.4865 247.713 72.4648C208.005 86.0349 174.213 120.893 143.541 145.111C141.712 146.627 140.454 148.623 139.855 150.79C133.988 156.069 129.021 161.913 126.514 169.061C125.878 170.721 125.779 172.355 125.886 173.877C121.656 176.427 117.668 179.373 114.788 182.773C113.044 183.979 111.179 184.988 109.643 186.082C104.097 188.29 98.6727 190.696 93.4915 193.498C85.9946 197.025 79.2769 200.92 73.3742 205.691C67.085 208.038 61.7682 211.966 58.9181 220.352C58.0252 222.941 58.2044 225.478 58.7981 227.789C44.582 227.577 30.1026 232.773 16.4023 238.337C4.76667 239.625 -7.23367 240.321 -18.3114 243.414C-29.0962 246.086 -39.5661 250.167 -50.072 253.741C-65.1451 256.625 -80.1107 261.03 -94.64 267.042C-96.2123 267.629 -97.9919 268.328 -99.4427 269.112C-107.768 273.087 -108.146 281.453 -103.877 287.044C-104.824 287.248 -105.758 287.479 -106.7 287.696L-93.911 311.052L-43.1905 330.916C-38.8278 329.595 -34.4319 328.377 -30.0369 327.162C-29.0505 327.418 -27.8569 327.563 -26.7848 327.51C-15.5138 325.628 -3.57131 322.594 6.86286 318.006C8.90732 319.533 11.5377 320.218 14.0247 318.873C17.8767 317.054 21.643 315.544 25.6166 313.922C26.9178 315.588 29.0121 316.299 31.6565 315.659C32.071 315.435 32.8143 315.296 33.2288 315.072C49.1091 309.909 66.54 302.328 80.3182 293.298C81.6474 292.317 82.4406 291.361 82.5761 290.235C84.5629 289.424 86.7569 288.501 88.7437 287.69C89.1582 287.466 89.5727 287.242 89.9872 287.018C89.8594 291.299 96.2857 295.46 101.431 292.152C121.977 278.41 142.68 265.374 161.682 249.571C169.292 243.087 180.962 234.671 187.857 225.677C189.137 225.512 190.502 225.037 191.867 224.562C194.24 226.175 197.614 226.721 200.358 224.448C213.493 213.923 224.947 202.464 235.501 190.439C237.038 189.345 238.903 188.337 240.561 187.44C245.328 184.863 247.307 180.897 247.227 176.727C255.748 181.599 269.07 176.766 267.817 166.648C271.404 162.603 274.662 158.471 277.921 154.34C280.308 154.629 282.745 154.101 284.746 151.966C288.419 147.611 291.97 143.058 295.436 138.815C298.401 135.105 303.618 132.811 305.926 128.93C307.562 126.203 306.725 123.495 304.974 121.546C308.804 117.896 312.427 114.357 316.829 111.187C317.278 110.875 317.694 110.514 318.081 110.115L298.51 -18.8339C297.734 -18.2325 297.013 -17.5505 296.383 -16.7752C284.814 -2.35846 277.384 14.2965 270.405 31.2345Z" fill="#9696FF"/>
<path d="M-128.482 297.515L-130.457 293.906C-131.918 294.291 -133.384 294.657 -134.853 295.02L-128.482 297.515Z" fill="#9696FF"/>
<path d="M-133.467 216.948C-130.945 216.11 -128.214 215.161 -125.692 214.324C-118.422 216.712 -108.903 212.882 -107.503 205.28C-94.7755 198.135 -82.3624 189.58 -69.6843 183.252C-66.7828 181.684 -65.89 179.095 -66.2764 176.671C-65.8619 176.446 -65.4474 176.222 -65.2402 176.11C-61.1809 174.179 -59.1301 171.227 -58.3946 167.933C-56.2364 166.503 -54.407 164.988 -52.2488 163.557C-50.8121 164.097 -48.8752 164.103 -47.2172 163.206C-28.479 152.812 -14.1242 132.15 1.43979 117.942C18.5403 102.641 37.9281 89.2625 54.5782 73.6782C55.2857 73.0324 55.786 72.4986 56.3719 71.6552C59.6162 68.8479 63.1893 66.1263 66.6767 63.7142C69.9569 61.4141 69.4987 57.9758 67.6257 55.829C69.4193 53.8061 70.8839 51.6977 72.4702 49.7869C74.1422 47.5664 75.9359 45.5435 77.6079 43.3231C79.9453 44.429 82.6256 44.2963 84.7479 42.3589C97.2748 30.8468 105.984 14.0268 117.331 1.04614C118.332 -0.0213355 118.675 -1.25977 118.481 -2.47174C119.567 -3.84885 120.532 -5.42353 121.411 -6.68857C126.706 -12.4476 131.672 -18.2921 136.309 -24.2222C139.36 -28.2414 141.925 -33.0509 144.49 -37.8604C146.463 -37.3473 148.815 -37.5654 150.851 -39.1931C156.875 -43.7667 160.555 -52.6014 163.405 -60.9879C164.869 -63.0962 166.005 -65.2902 167.105 -67.9913C167.834 -69.6225 168.092 -71.1683 168.006 -72.6828L104.13 -97.7476C102.108 -96.1094 100.144 -94.3365 98.2506 -92.3728C96.5428 -90.6595 94.9564 -88.7488 93.3701 -86.8379C94.0059 -88.4981 94.6417 -90.1584 95.2775 -91.8186C97.992 -99.0786 87.7635 -102.237 83.176 -97.1236C82.3828 -96.1682 81.3823 -95.1008 80.5891 -94.1453C79.0028 -92.2345 79.0247 -90.4032 79.6682 -88.9081C76.5392 -81.424 72.5096 -74.5061 68.1153 -68.1809C67.1648 -67.9303 66.007 -67.5677 64.9708 -67.0074L62.3622 -65.8604C62.1549 -65.7483 62.1549 -65.7483 61.9476 -65.6363C52.7071 -60.9035 45.1962 -56.0526 38.4365 -48.1852C35.2638 -44.3636 32.7847 -39.8638 29.9767 -35.4494C28.3545 -34.0458 27.0612 -32.5566 26.254 -30.2772C25.8753 -29.5459 25.4966 -28.8146 25.118 -28.0833C22.86 -25.0195 20.2375 -22.5484 17.0431 -20.558C12.8123 -18.0073 11.0406 -14.1531 10.7913 -10.069C7.83991 -7.68341 5.21741 -5.21234 2.88779 -3.16294C0.315096 -1.50867 -1.92886 0.231137 -4.17276 1.97091C-5.0376 1.91192 -5.98816 2.16259 -7.02441 2.72287C-27.8849 15.0546 -45.5277 34.8617 -63.6644 50.7233C-80.2646 65.4908 -100.288 80.5296 -113.007 98.4643C-113.3 98.886 -113.593 99.3076 -113.764 99.9269C-118.702 103.123 -123.848 106.432 -128.664 109.826C-134.467 112.963 -140.27 116.101 -145.78 118.817C-149.425 120.524 -152.741 122.317 -156.264 124.222C-157.866 124.954 -159.445 125.691 -161.002 126.446L-148.073 212.133L-142.313 222.655C-139.373 220.699 -136.432 218.777 -133.467 216.948ZM2.10443 43.5995C-2.87579 50.768 -7.64868 57.8246 -12.4217 64.8811C-12.872 64.598 -13.1152 64.2028 -13.5655 63.9197C-8.67102 57.0608 -3.32614 50.485 2.10443 43.5995Z" fill="#9696FF"/>
<path d="M210.558 257.636C209.007 260.054 208.65 262.617 208.951 265.35C200.998 273.073 196.282 282.468 198.021 293.376C196.935 294.753 195.935 295.821 194.849 297.198C190.688 293.128 183.784 291.332 178.724 294.331C176.237 295.676 173.786 297.528 171.663 299.465C167.917 295.171 161.756 293.237 155.503 296.091C139.973 303.171 137.724 317.025 133.417 330.675C133.003 330.899 132.467 330.926 132.052 331.15C124.641 334.367 118.774 339.645 113.722 345.799C111.785 345.793 109.555 346.209 107.483 347.33C96.5844 352.959 93.27 362.386 91.7569 372.946C90.035 375.983 88.399 378.711 87.0059 381.834C86.9966 381.855 86.9893 381.874 86.9788 381.893L116.893 393.607L125.174 391.652L337.34 237.008L333.53 211.904C319.133 213.728 305.296 218.452 292.016 224.389C269.286 214.826 219.811 243.945 210.558 257.636ZM137.383 360.916C133.381 365.186 129.587 369.344 125.914 373.699C128.443 368.382 131.423 363.349 135.01 359.303C135.91 359.869 137.018 360.323 137.883 360.382C137.676 360.495 137.59 360.804 137.383 360.916ZM270.775 264.835C267.044 266.852 263.192 268.672 259.669 270.577C258.854 269.701 258.16 269.022 257.467 268.344C258.954 268.067 260.44 267.79 262.012 267.203C266.072 265.272 270.253 263.538 274.433 261.804C274.555 262.002 274.676 262.199 274.884 262.087C273.554 263.069 272.104 263.853 270.775 264.835Z" fill="#9696FF"/>
<path d="M-248.721 479.888C-278.519 486.931 -302.275 505.044 -316.459 528.452C-328.063 547.598 -333.234 570.286 -330.055 593.379C-319.441 591.171 -308.845 589.046 -298.522 586.593C-239.688 572.687 -180.647 558.669 -121.691 544.961C-64.8438 531.865 -9.89144 514.792 45.9476 499.61C74.0136 491.807 101.715 483.412 129.695 475.919C155.567 469.04 181.726 466.219 208.07 461.453C264.146 451.145 319.156 436.41 375.511 427.004C403.585 422.357 429.913 411.282 458.073 406.325C482.101 402.285 503.248 394.011 526.597 387.969C554.163 380.701 583.088 377.437 611.068 369.944C637.355 362.841 663.735 358.583 690.894 354.694C719.746 350.415 749.815 348.113 777.759 340.113C801.902 333.115 827.781 329.391 850.515 319.206C866.045 312.126 878.135 334.025 862.727 341.302L860.119 342.449C859.082 343.009 858.132 343.26 857.181 343.511C835.62 352.009 812.749 355.686 790.508 362.182C762.563 370.182 733.31 373.36 704.457 377.639C674.861 382.056 645.472 386.361 616.541 394.104C590.876 400.871 564.389 403.607 538.931 410.263C524.88 413.91 511.788 420.462 497.737 424.11C486.538 427.006 474.988 427.984 463.545 430.485C438.102 435.816 414.053 445.659 388.538 449.976C332.39 459.27 277.588 473.892 221.512 484.201C192.73 489.494 163.563 492.363 135.289 500.277C109.868 507.439 84.6893 514.997 59.3534 521.85C3.51441 537.033 -51.3165 554.303 -107.628 567.372C-166.583 581.08 -225.417 594.986 -284.251 608.892C-296.999 611.901 -310.382 614.416 -323.764 617.173C-303.924 666.689 -247.139 695.822 -192.1 682.815L314.188 563.34C319.128 561.148 324.149 559.257 329.238 557.712C339.873 554.479 350.77 552.658 361.668 552.137L837.945 439.741C896.779 425.835 932.125 368.811 916.561 312.983C900.997 257.156 840.159 222.91 781.325 236.816L-248.721 479.888Z" fill="#6439FF"/>
<path d="M-107.629 567.369C-51.3183 554.301 3.51264 537.03 59.3517 521.847C84.6875 514.994 109.866 507.437 135.288 500.274C163.561 492.36 192.729 489.491 221.51 484.198C277.586 473.89 332.389 459.267 388.536 449.973C414.051 445.656 438.1 435.813 463.543 430.482C474.986 427.982 486.536 427.003 497.735 424.107C511.786 420.46 524.878 413.908 538.929 410.26C564.387 403.605 590.874 400.869 616.539 394.101C645.47 386.358 674.859 382.053 704.455 377.636C733.308 373.358 762.561 370.179 790.506 362.179C812.747 355.683 835.618 352.006 857.179 343.508C858.13 343.257 859.081 343.007 860.117 342.447L862.725 341.299C878.134 334.022 866.043 312.124 850.513 319.204C827.78 329.389 801.9 333.113 777.758 340.11C749.813 348.11 719.745 350.413 690.892 354.691C663.733 358.58 637.353 362.838 611.066 369.941C583.086 377.434 554.161 380.698 526.596 387.967C503.247 394.009 482.099 402.283 458.071 406.322C429.911 411.279 403.583 422.355 375.509 427.002C319.154 436.408 264.144 451.142 208.068 461.451C181.724 466.216 155.565 469.038 129.694 475.917C101.713 483.41 74.0118 491.805 45.9457 499.607C-9.89327 514.79 -64.8457 531.863 -121.693 544.958C-180.648 558.666 -239.69 572.684 -298.524 586.59C-308.846 589.044 -319.443 591.168 -330.057 593.376C-329.45 597.793 -328.571 602.22 -327.338 606.645C-326.334 610.247 -325.134 613.755 -323.765 617.17C-310.384 614.414 -297.002 611.897 -284.253 608.89C-225.419 594.984 -166.585 581.078 -107.629 567.369Z" fill="#06083F"/>
<path d="M283.17 762.337L213.537 715.022C211.418 718.356 209.165 721.58 206.765 724.655C172.338 768.808 119.375 800.339 65.1523 818.598C16.4902 834.968 -33.2725 839.431 -83.6637 844.852C-79.6 859.152 -74.1478 873.339 -67.1665 887.242C-43.3919 934.417 -8.75295 983.091 -3.38152 1036.27C-0.889302 1060.27 -4.42125 1081.98 -11.844 1102.45L133.532 1201.24C144.675 1193.63 155.33 1185.45 165.339 1176.74C182.468 1161.87 198.54 1145.22 212.59 1127.14C196.18 1109.45 181.483 1090.39 168.726 1070.91C144.475 1033.73 111.014 978.893 127.937 933.673C143.124 892.814 190.422 878.563 231.18 898.126C322.423 941.988 287.943 1052.56 240.777 1124.38C254.155 1138 268.778 1150.93 284.572 1161.83L387.633 1024.93C342.621 972.912 316.6 905.627 341.958 839.81C345.78 829.829 350.588 820.544 356.195 811.957L309.778 780.417C303.234 777.052 296.973 773.133 291.058 768.704C288.357 766.684 285.715 764.576 283.17 762.337Z" fill="#06083F"/>
<path d="M260.747 1028.79C267.588 997.712 269.559 955.573 242.866 931.039C222.621 912.496 182.5 898.908 160.577 922.082C118.938 966.185 176.434 1047.52 205.717 1084.35C212.028 1092.29 218.793 1100.43 225.975 1108.51C242.229 1083.94 254.546 1057.14 260.747 1028.79Z" fill="#06083F"/>
<path d="M210.151 1163.83C193.342 1181.74 173.874 1198.84 152.527 1214.14L213.836 1255.8L271.963 1178.59C256.271 1167.97 241.544 1155.86 227.857 1142.7C221.923 1150.52 215.953 1157.64 210.151 1163.83Z" fill="#06083F"/>
<path d="M176.282 727.182C183.118 719.797 189.217 711.22 194.299 701.949L75.8808 621.483L-76.5992 824.029C-52.8474 821.829 -29.1008 819.495 -5.65777 815.285C60.2034 803.369 131.421 775.923 176.282 727.182Z" fill="#06083F"/>
<path d="M-34.2287 1003.18C-52.3559 953.395 -85.3578 909.357 -103.171 859.324L-193.351 979.114L-29.9626 1090.14C-29.5597 1088.79 -29.1535 1087.44 -28.8012 1086.08C-21.5023 1058.44 -24.4599 1030.29 -34.2287 1003.18Z" fill="#06083F"/>
<path d="M355.962 879.633C352.247 927.188 370.65 970.993 400.837 1007.4L483.068 898.17L374.193 824.19C363.962 840.408 357.562 859.216 355.962 879.633Z" fill="#06083F"/>
<path d="M387.635 1024.94L400.836 1007.4C370.649 970.991 352.245 927.189 355.96 879.634C357.56 859.217 363.961 840.409 374.192 824.191L356.195 811.96C350.587 820.547 345.779 829.832 341.957 839.812C316.601 905.627 342.623 972.914 387.635 1024.94Z" fill="#6439FF"/>
<path d="M231.18 898.126C190.422 878.563 143.124 892.814 127.937 933.673C111.014 978.893 144.475 1033.73 168.726 1070.91C181.483 1090.39 196.18 1109.45 212.59 1127.14C198.54 1145.22 182.468 1161.87 165.339 1176.74C155.33 1185.45 144.674 1193.62 133.532 1201.24L152.524 1214.14C173.873 1198.84 193.341 1181.74 210.147 1163.83C215.95 1157.64 221.92 1150.53 227.852 1142.7C241.539 1155.86 256.265 1167.97 271.958 1178.59L284.572 1161.84C268.776 1150.94 254.154 1138.01 240.777 1124.38C287.943 1052.56 322.423 941.988 231.18 898.126ZM205.716 1084.35C176.433 1047.52 118.937 966.184 160.576 922.082C182.499 898.907 222.62 912.496 242.865 931.038C269.558 955.573 267.587 997.712 260.746 1028.79C254.545 1057.14 242.228 1083.93 225.974 1108.5C218.792 1100.43 212.027 1092.29 205.716 1084.35Z" fill="#6439FF"/>
<path d="M-3.38152 1036.27C-8.75295 983.091 -43.3919 934.417 -67.1665 887.242C-74.1478 873.339 -79.6 859.152 -83.6637 844.852C-33.2738 839.429 16.489 834.966 65.1523 818.598C119.375 800.339 172.338 768.808 206.765 724.655C209.166 721.582 211.418 718.356 213.537 715.022L194.299 701.949C189.217 711.22 183.118 719.797 176.282 727.182C131.421 775.923 60.204 803.369 -5.65627 815.281C-29.0993 819.492 -52.8461 821.826 -76.5979 824.025L-103.171 859.324C-85.3578 909.357 -52.3559 953.395 -34.2287 1003.18C-24.4599 1030.29 -21.5023 1058.44 -28.8012 1086.08C-29.1535 1087.44 -29.5597 1088.79 -29.9626 1090.14L-11.844 1102.45C-4.42125 1081.98 -0.889302 1060.27 -3.38152 1036.27Z" fill="#6439FF"/>
<path d="M286.404 598.662C291.283 591.316 293.545 582.405 295.534 573.497C290.496 576.805 285.791 580.413 281.415 584.276C281.556 588.523 282.096 592.718 283.13 596.482C284.445 596.824 285.467 597.588 286.404 598.662Z" fill="#311B92"/>
<path d="M273.283 607.861C271.576 604.44 270.307 600.568 269.408 596.484C268.162 597.947 266.953 599.43 265.785 600.944C266.148 608.402 265.693 616.741 268.633 622.75C270.991 618.052 272.241 612.901 273.283 607.861Z" fill="#311B92"/>
<path d="M382.888 788.721C380.021 783.162 380.37 777.444 381.791 771.673C377.754 775.436 373.802 778.889 370.093 782.737C366.345 786.633 362.902 790.707 359.623 794.872C367.893 795.633 376.249 795.644 384.585 794.873C385.144 793.793 385.7 792.716 386.321 791.607C384.761 790.867 383.617 789.906 382.888 788.721Z" fill="#311B92"/>
<path d="M402.107 792.066C402.22 792.039 402.334 792.014 402.447 791.987C402.516 791.726 402.572 791.467 402.644 791.202C402.469 791.496 402.284 791.775 402.107 792.066Z" fill="#311B92"/>
<path d="M313.87 563.479C313.036 563.852 312.198 564.21 311.372 564.599C310.398 568.856 309.716 573.211 309.008 577.488C310.625 572.917 312.261 568.204 313.87 563.479Z" fill="#311B92"/>
<path d="M329.193 558.676C329.008 560.619 328.494 562.477 328.101 564.532C331.339 566.204 333.527 569.76 331.097 573.443C323.895 584.183 321.174 595.922 316.066 607.372C314.673 610.495 313.037 613.223 311.315 616.26C310.422 618.849 309.201 621.353 308.308 623.942C308.437 627.295 308.481 630.957 307.66 634.561C305.796 643.204 303.032 651.28 298.295 658.844C297.416 660.109 296.294 660.979 295.136 661.342C294.293 663.114 293.657 664.774 292.607 666.658C290.799 670.005 284.61 670.719 282.129 667.584C275.259 658.661 275.964 650.381 277.27 639.933C277.749 637.568 277.777 634.92 277.719 632.582C276.669 634.466 275.29 636.265 273.789 637.866C271.996 639.889 267.829 640.298 265.663 638.573C257.865 632.721 255.516 625.887 254.531 618.508C236.179 653.696 236.351 696.877 259.05 733.773C260.711 736.474 262.493 739.065 264.333 741.604C264.406 741.075 264.454 740.543 264.547 740.016C266.254 730.668 268.289 721.406 270.981 712.315C273.16 705.081 283.681 707.818 283.94 714.524C283.876 716.665 284.141 718.891 284.284 720.92C285.899 716.361 287.549 712.309 288.649 709.608C289.921 706.288 293.065 705.114 296.11 705.574C297.381 702.254 299.103 699.216 302.14 696.521C305.263 693.516 310.731 694.773 312.59 698.244C317.888 707.754 316.132 717.918 313.268 727.629C309.804 739.506 307.655 751.726 303.984 763.716C302.663 767.854 297.667 768.712 294.221 767.152C293.362 767.896 292.245 768.455 291.06 768.706C296.973 773.133 303.235 777.054 309.78 780.419C320.697 786.03 332.367 790.136 344.411 792.626C348.012 787.823 351.806 783.144 356.041 778.75C365.166 769.34 379.152 760.199 385.904 749.177C389.383 743.609 391.376 738.319 396.9 734.279C400.888 731.333 408.986 733.274 408.016 739.328C408.137 739.525 408.051 739.835 407.966 740.145C408.516 738.794 409.066 737.444 409.616 736.093C412.33 728.833 424.946 732.28 422.268 740.047C421.889 740.779 421.839 741.596 421.46 742.327C422.839 740.528 424.219 738.729 425.598 736.931C429.649 731.844 439.427 734.719 437.749 741.419C440.83 742.386 443.518 745.409 442.282 749.236C441.732 750.587 441.511 752.023 440.961 753.374C437.841 763.338 434.374 772.979 429.988 782.307C431.766 781.448 433.535 780.558 435.284 779.612C451.385 770.907 464.647 759.35 474.845 746.006C474.284 745.317 473.853 744.515 473.622 743.613C473.1 742.316 473.236 741.189 473.042 739.977C466.753 742.324 459.747 734.528 466.1 730.04C470.173 726.784 470.108 721.291 472.173 717.015C474.409 712.12 477.496 708.608 482.227 705.523C486.043 703.197 490.339 706.14 491.662 709.637C492.357 708.877 493.234 708.35 494.185 707.991C499.04 691.533 500.214 674.079 497.391 656.799C493.906 660.956 484.374 658.858 485.591 652.626C486.634 647.586 487.884 642.435 489.376 637.678C488.512 637.62 487.732 637.251 486.953 636.882C486.074 638.147 485.11 639.722 484.231 640.987C481.301 645.204 472.982 644.699 472.137 638.837C472.344 638.725 472.223 638.528 472.223 638.528C470.429 640.55 467.992 641.078 465.691 640.48C461.318 648.636 456.045 656.226 449.214 663.079C445.383 666.73 437.092 663.577 438.013 658.34C440.483 643.051 450.694 632.264 455.172 617.995C457.805 609.052 459.902 600.633 465.822 593.514C455.246 582.253 442.767 573.152 429.164 566.348C428.388 572.854 426.168 578.87 423.459 584.85C424.309 586.233 424.539 587.953 423.817 589.922C421.017 597.492 418.545 605.147 415.988 613.112C417.325 615.285 417.09 618.045 414.432 620.009C414.224 620.121 413.81 620.345 413.517 620.767C410.017 632.138 405.86 643.337 399.987 653.095C396.921 658.438 386.729 655.787 387.785 649.423C387.885 647.79 388.399 645.932 388.792 643.877C387.17 645.28 384.976 646.203 382.917 646C379.567 654.92 375.766 663.557 371.101 672.135C369 675.904 364.469 675.721 361.524 673.627C360.609 674.385 359.366 675.057 358.122 675.73C355.428 677.186 350.41 676.213 348.966 672.518C344.146 660.643 349.312 651.531 352.897 639.851C356.447 627.664 359.082 616.234 368.207 606.824C369.708 605.223 371.73 604.919 373.582 605.235C373.888 603.489 374.317 601.941 374.953 600.281C375.76 598.002 377.918 596.571 380.148 596.156C382.299 591.57 385.021 587.466 387.572 583.98C388.279 583.334 388.779 582.8 389.608 582.352C391.101 577.596 393.373 573.208 397.496 569.136C400.412 566.243 406.087 567.387 407.946 570.858C408.225 571.76 408.59 572.353 408.869 573.255C410.304 568.545 411.945 564.164 414.409 559.999C397.634 553.975 379.655 551.268 361.667 552.129C350.769 552.65 339.873 554.473 329.237 557.704C329.242 558.023 329.245 558.337 329.193 558.676Z" fill="#311B92"/>
<path d="M438.011 658.341C437.09 663.578 445.381 666.731 449.211 663.08C456.043 656.227 461.316 648.637 465.689 640.481C467.99 641.079 470.427 640.551 472.221 638.529C472.221 638.529 472.342 638.726 472.135 638.838C472.98 644.7 481.299 645.205 484.229 640.988C485.108 639.723 486.072 638.148 486.951 636.883C487.73 637.252 488.509 637.621 489.374 637.68C487.881 642.436 486.632 647.588 485.589 652.627C484.374 658.858 493.903 660.957 497.389 656.8C496.75 652.888 495.907 648.989 494.851 645.11C492.268 640.233 490.627 635.275 489.888 630.541C487.49 624.802 484.606 619.158 481.219 613.653C476.719 606.337 471.544 599.614 465.818 593.516C459.898 600.635 457.8 609.054 455.168 617.997C450.692 632.265 440.481 643.052 438.011 658.341Z" fill="#9696FF"/>
<path d="M440.961 753.374C441.511 752.023 441.732 750.587 442.282 749.236C443.518 745.409 440.83 742.386 437.749 741.419C439.427 734.719 429.649 731.844 425.598 736.931C424.219 738.729 422.839 740.528 421.46 742.327C421.839 741.596 421.889 740.779 422.268 740.047C424.946 732.28 412.33 728.833 409.616 736.093C409.066 737.444 408.516 738.794 407.966 740.145C408.051 739.835 408.137 739.525 408.016 739.328C408.986 733.274 400.888 731.333 396.9 734.279C391.376 738.319 389.383 743.609 385.904 749.177C379.152 760.199 365.166 769.34 356.041 778.75C351.808 783.142 348.011 787.821 344.411 792.626C349.426 793.664 354.507 794.403 359.623 794.872C362.904 790.705 366.345 786.633 370.093 782.737C373.802 778.889 377.754 775.436 381.791 771.673C380.37 777.444 380.021 783.162 382.888 788.721C383.617 789.906 384.761 790.867 386.319 791.605C385.7 792.716 385.144 793.793 384.584 794.871C390.453 794.328 396.305 793.394 402.106 792.066C402.283 791.775 402.466 791.495 402.644 791.204C402.571 791.467 402.517 791.725 402.448 791.989C411.833 789.813 421.073 786.619 429.988 782.309C434.374 772.98 437.841 763.338 440.961 753.374Z" fill="#9696FF"/>
<path d="M407.945 570.861C406.086 567.39 400.41 566.246 397.495 569.139C393.372 573.211 391.1 577.599 389.607 582.355C388.778 582.804 388.278 583.337 387.57 583.983C385.019 587.469 382.297 591.573 380.147 596.159C377.917 596.575 375.759 598.005 374.951 600.284C374.316 601.944 373.887 603.492 373.58 605.238C371.729 604.923 369.706 605.226 368.206 606.828C359.08 616.237 356.446 627.667 352.896 639.854C349.31 651.535 344.145 660.646 348.964 672.521C350.409 676.216 355.426 677.19 358.121 675.733C359.364 675.061 360.608 674.388 361.522 673.63C364.468 675.724 368.999 675.907 371.099 672.138C375.765 663.56 379.566 654.923 382.916 646.003C384.974 646.206 387.168 645.284 388.791 643.88C388.398 645.935 387.884 647.793 387.784 649.427C386.727 655.79 396.92 658.441 399.985 653.098C405.858 643.34 410.016 632.141 413.516 620.77C413.809 620.348 414.223 620.124 414.43 620.012C417.089 618.048 417.324 615.288 415.987 613.115C418.544 605.15 421.016 597.495 423.816 589.925C424.537 587.956 424.308 586.237 423.457 584.854C426.165 578.871 428.387 572.857 429.162 566.351C424.371 563.955 419.451 561.815 414.409 560.004C411.945 564.17 410.303 568.549 408.868 573.261C408.588 572.356 408.224 571.763 407.945 570.861Z" fill="#9696FF"/>
<path d="M265.663 638.573C267.829 640.298 271.996 639.889 273.789 637.866C275.29 636.265 276.669 634.466 277.719 632.582C277.777 634.92 277.749 637.568 277.27 639.933C275.964 650.381 275.259 658.661 282.129 667.584C284.61 670.719 290.799 670.005 292.607 666.658C293.657 664.774 294.293 663.114 295.136 661.342C296.294 660.979 297.416 660.109 298.295 658.844C303.032 651.28 305.796 643.204 307.66 634.561C308.481 630.957 308.437 627.295 308.308 623.942C309.201 621.353 310.422 618.849 311.315 616.26C313.037 613.223 314.673 610.495 316.066 607.372C321.174 595.922 323.895 584.183 331.097 573.443C333.527 569.76 331.339 566.204 328.101 564.532C328.494 562.477 329.008 560.619 329.193 558.676C329.245 558.337 329.242 558.023 329.237 557.71C324.146 559.256 319.125 561.147 314.187 563.338C314.08 563.385 313.977 563.432 313.87 563.479C312.261 568.204 310.626 572.917 309.006 577.489C309.717 573.213 310.398 568.856 311.37 564.6C309.223 565.613 307.093 566.675 304.987 567.814C301.711 569.585 298.573 571.498 295.534 573.497C293.547 582.407 291.283 591.316 286.404 598.662C285.467 597.588 284.445 596.824 283.13 596.482C282.096 592.718 281.558 588.522 281.415 584.276C277.079 588.106 273.071 592.186 269.406 596.487C270.305 600.57 271.574 604.441 273.282 607.865C272.239 612.904 270.99 618.056 268.632 622.753C265.694 616.743 266.146 608.405 265.784 600.947C261.488 606.511 257.723 612.388 254.53 618.511C255.516 625.887 257.865 632.721 265.663 638.573Z" fill="#9696FF"/>
<path d="M294.221 767.152C297.667 768.712 302.663 767.854 303.984 763.716C307.655 751.726 309.804 739.506 313.268 727.629C316.132 717.918 317.888 707.754 312.59 698.244C310.731 694.773 305.263 693.516 302.14 696.521C299.103 699.216 297.381 702.254 296.11 705.574C293.065 705.114 289.921 706.288 288.649 709.608C287.549 712.309 285.899 716.361 284.284 720.92C284.141 718.891 283.876 716.665 283.94 714.524C283.681 707.818 273.16 705.081 270.981 712.315C268.289 721.406 266.254 730.668 264.547 740.016C264.452 740.544 264.406 741.075 264.333 741.604C269.893 749.276 276.211 756.216 283.17 762.337C285.715 764.576 288.357 766.684 291.06 768.706C292.245 768.455 293.362 767.896 294.221 767.152Z" fill="#9696FF"/>
<path d="M491.662 709.637C490.339 706.14 486.043 703.197 482.227 705.523C477.496 708.608 474.409 712.12 472.173 717.015C470.108 721.291 470.173 726.784 466.1 730.04C459.747 734.528 466.753 742.324 473.042 739.977C473.236 741.189 473.1 742.316 473.622 743.613C473.853 744.515 474.284 745.317 474.845 746.006C483.67 734.46 490.179 721.571 494.185 707.991C493.234 708.35 492.357 708.877 491.662 709.637Z" fill="#9696FF"/>
</g>
<defs>
<clipPath id="clip0_2321_21742">
<rect width="371" height="808" fill="white"/>
</clipPath>
</defs>
</svg>
