<svg width="360" height="54" viewBox="0 0 360 54" fill="none" xmlns="http://www.w3.org/2000/svg">
<mask id="mask0_482_11772" style="mask-type:alpha" maskUnits="userSpaceOnUse" x="0" y="0" width="360" height="54">
<rect x="359.752" width="54" height="359.752" transform="rotate(90 359.752 0)" fill="#E5E5FF"/>
</mask>
<g mask="url(#mask0_482_11772)">
<mask id="mask1_482_11772" style="mask-type:alpha" maskUnits="userSpaceOnUse" x="-2" y="-77" width="362" height="167">
<path d="M359.752 -76.875L359.752 89.163L-1.86179 89.163L-1.86179 -76.875L359.752 -76.875Z" fill="#E5E5FF"/>
</mask>
<g mask="url(#mask1_482_11772)">
<mask id="mask2_482_11772" style="mask-type:alpha" maskUnits="userSpaceOnUse" x="-31" y="-77" width="391" height="167">
<path d="M-30.5051 89.1638L-30.5051 -76.8742L359.751 -76.8741L359.751 89.1639L-30.5051 89.1638Z" fill="#E5E5FF"/>
</mask>
<g mask="url(#mask2_482_11772)">
<path d="M305.582 49.2654C304.914 47.6639 304.246 46.0625 303.503 44.5069C303.277 43.9048 303.167 43.3363 303.058 42.7679C302.803 43.0308 302.548 43.2938 302.219 43.6026C302.95 44.9534 303.65 46.4295 304.424 47.8597C304.799 48.3701 305.101 48.9262 305.476 49.4366C305.433 49.3571 305.508 49.3112 305.582 49.2654Z" fill="#6D56FE"/>
<path d="M358.785 61.3156C358.052 61.9792 357.029 62.2913 355.991 61.6589C354.515 60.7669 353.632 58.7682 352.219 57.6255C350.602 56.2903 348.868 54.9215 347.209 53.5069C346.395 52.7369 346.188 51.8047 346.291 50.8937C344.717 49.638 343.144 48.3822 341.602 47.0012C337.773 47.4518 335.906 42.3509 337.728 39.1103C336.149 39.1291 334.641 38.3625 333.652 36.5349C333.308 35.8993 332.921 35.1841 332.502 34.5944C327.919 30.5306 323.548 26.1244 319.526 21.0793C318.657 20.0251 318.855 18.7382 319.459 17.8363C319.275 17.3136 319.092 16.791 319.026 16.302C315.601 13.6439 312.381 9.16395 309.904 6.2396C303.867 -1.06064 298.873 -9.00317 293.612 -16.8875C292.345 -18.8616 293.903 -21.3044 295.525 -21.2438C295.439 -21.4028 295.353 -21.5616 295.267 -21.7206C294.955 -22.4816 294.599 -23.322 294.286 -24.083C293.859 -24.1379 293.495 -24.4434 293.12 -24.9537C289.662 -30.2405 286.743 -36.9183 284.744 -42.9973C284.658 -43.1562 284.604 -43.4404 284.517 -43.5993C284.268 -44.611 284.531 -45.4089 285.159 -45.9012C284.534 -47.4232 283.951 -48.8657 283.252 -50.3418C282.736 -51.2953 282.988 -52.298 283.56 -53.0746C281.794 -57.072 280.612 -61.6413 279.869 -65.9509C279.845 -66.3605 279.897 -66.8159 279.991 -67.1919C279.519 -68.8737 279.046 -70.5559 278.533 -72.2257L259.585 -22.6542C259.593 -22.6506 259.6 -22.6477 259.607 -22.6437C260.794 -22.1031 261.832 -21.4707 262.987 -20.8048C266.99 -20.1979 270.569 -18.9061 272.731 -14.7285C273.161 -13.9339 273.325 -13.0811 273.328 -12.3414C275.673 -10.3952 277.688 -8.14004 278.927 -5.30085C279.013 -5.14193 279.024 -4.93717 279.11 -4.77825C284.292 -3.09582 289.545 -2.19894 292.269 3.7514C293.367 6.14742 292.651 8.49518 291.036 9.91401C291.775 10.7299 292.483 11.671 292.999 12.6245C294.149 14.5651 293.488 17.1971 291.958 18.7749C292.483 19.1934 292.89 19.5784 293.414 19.997C297.54 19.3629 301.112 21.1895 304.058 24.2482C305.093 24.1409 306.064 24.2842 306.984 24.883C312.195 28.4544 323.359 47.4292 319.8 56.0838C322.085 61.1719 323.912 66.4689 324.643 71.9723L363.15 66.352C362.998 66.2031 362.859 66.0438 362.741 65.8709C361.528 64.1818 360.178 62.7884 358.785 61.3156Z" fill="#6D56FE"/>
<path d="M430.189 9.18474C429.163 8.75716 428.329 8.31733 427.526 7.75213C424.342 6.6406 420.986 5.21123 419.237 2.89796C418.615 2.11567 418.526 1.21705 418.715 0.465051C416.887 -0.52773 415.058 -1.52051 413.527 -2.69679C411.269 -4.48415 409.042 -6.39681 406.846 -8.43484C406.364 -8.77396 405.765 -9.14666 405.241 -9.56525C404.782 -9.49478 404.312 -9.62913 403.905 -10.0141C398.958 -14.3834 392.564 -17.7558 388.17 -22.5715C387.43 -23.3874 387.372 -24.4113 387.785 -25.3009C386.939 -25.9456 386.168 -26.6362 385.323 -27.2809C384.595 -27.8919 383.792 -28.4571 383.021 -29.1476C382.213 -28.4382 380.912 -28.2727 380.032 -29.5317C379.109 -30.8702 378.068 -32.2423 376.996 -33.489C376.675 -33.7151 376.472 -33.9076 376.225 -34.1796C370.277 -40.5812 365.157 -48.0223 359.315 -54.5952C353.891 -60.5782 346.026 -66.1172 342.038 -73.302C341.694 -73.9377 341.691 -74.6774 341.892 -75.2246C341.344 -76.0527 340.765 -76.7555 340.217 -77.5837C338.968 -77.8736 337.844 -78.665 337.102 -80.2205C337.059 -80.3 336.973 -80.4589 336.887 -80.6178C335.97 -80.4769 334.987 -80.825 334.385 -81.9374C331.953 -86.7966 328.679 -91.5608 325.938 -96.4413C323.055 -96.9966 321.578 -100.643 322.463 -103.412C322.139 -104.378 321.772 -105.423 321.448 -106.389C320.747 -107.526 320.011 -108.655 319.262 -109.783L294.726 -96.3618C294.811 -96.0018 294.902 -95.6434 294.981 -95.2822C297.087 -96.8969 300.256 -96.7298 301.785 -93.5392C302.086 -92.983 302.355 -92.3015 302.582 -91.6994C304.899 -86.1341 306.608 -80.4065 307.742 -74.6421C309.124 -70.62 310.699 -66.6103 311.74 -62.4842C312.942 -58.245 313.239 -53.6602 313.759 -49.2129C315.904 -43.9654 317.911 -38.4214 317.87 -32.9928C318.744 -33.2132 319.704 -33.2747 320.687 -32.9266C323.871 -31.815 325.373 -29.7737 326.279 -27.3654C328.103 -25.098 329.596 -22.5218 330.953 -19.649C332.028 -17.6625 332.954 -15.5843 333.806 -13.4603C334.224 -12.8705 334.611 -12.1553 335.073 -11.4861C336.369 -10.377 337.495 -8.84599 338.473 -7.22325C339.049 -7.26012 339.668 -7.21756 340.298 -6.97019C343.012 -5.99299 345.239 -4.08029 347.255 -1.82518C348.077 -1.5901 348.837 -1.10436 349.416 -0.401534C358.672 11.3786 371.967 24.3801 377.215 39.582C378.35 40.578 379.454 41.6994 380.515 42.7414C381.317 43.3066 382.194 43.8259 383.071 44.3452C386.416 45.5698 389.697 47.045 392.893 48.3613C399.327 51.0734 405.655 53.9568 411.147 58.4145C411.442 58.6574 411.702 58.9339 411.932 59.2328L412.996 59.078L431.968 9.54151C431.395 9.57041 430.808 9.46733 430.189 9.18474Z" fill="#6D56FE"/>
<path d="M392.893 48.3625C389.698 47.0462 386.416 45.571 383.072 44.3464C382.195 43.8271 381.318 43.3077 380.515 42.7425C379.455 41.7006 378.351 40.5792 377.216 39.5831C371.967 24.3812 358.673 11.3798 349.416 -0.400395C348.837 -1.10322 348.078 -1.58897 347.255 -1.82405C345.24 -4.07916 343.013 -5.99186 340.299 -6.96906C339.668 -7.21643 339.049 -7.259 338.473 -7.22212C337.496 -8.84486 336.369 -10.3759 335.074 -11.485C334.612 -12.1542 334.225 -12.8693 333.806 -13.4591C332.955 -15.5832 332.028 -17.6614 330.953 -19.6478C329.597 -22.5206 328.103 -25.0968 326.28 -27.3642C325.374 -29.7725 323.872 -31.8139 320.688 -32.9254C319.705 -33.2735 318.745 -33.212 317.871 -32.9916C317.912 -38.4202 315.904 -43.9643 313.759 -49.2118C313.239 -53.659 312.943 -58.2439 311.741 -62.4831C310.699 -66.6092 309.125 -70.6189 307.743 -74.641C306.609 -80.4054 304.899 -86.1329 302.582 -91.6983C302.356 -92.3003 302.086 -92.9819 301.785 -93.5381C300.257 -96.7287 297.087 -96.8957 294.982 -95.2811C294.902 -95.643 294.812 -96.0007 294.727 -96.3607L285.917 -91.5409L278.533 -72.2254C279.046 -70.5556 279.519 -68.8734 279.992 -67.1916C279.897 -66.8156 279.846 -66.3602 279.869 -65.9506C280.612 -61.641 281.794 -57.0718 283.561 -53.0743C282.988 -52.2977 282.736 -51.295 283.252 -50.3415C283.952 -48.8654 284.534 -47.4229 285.159 -45.9009C284.532 -45.4086 284.268 -44.6107 284.518 -43.599C284.604 -43.4401 284.658 -43.1559 284.744 -42.997C286.743 -36.918 289.663 -30.2402 293.12 -24.9534C293.496 -24.4431 293.86 -24.1376 294.287 -24.0827C294.599 -23.3217 294.955 -22.4812 295.267 -21.7202C295.353 -21.5613 295.439 -21.4025 295.525 -21.2435C293.904 -21.3041 292.345 -18.8613 293.613 -16.8872C298.873 -9.00286 303.868 -1.06033 309.905 6.2399C312.381 9.16426 315.601 13.6442 319.026 16.3023C319.092 16.7913 319.276 17.3139 319.459 17.8366C318.855 18.7385 318.657 20.0254 319.526 21.0796C323.548 26.1247 327.919 30.5309 332.503 34.5947C332.921 35.1845 333.308 35.8996 333.652 36.5352C334.642 38.3628 336.149 39.1295 337.728 39.1106C335.906 42.3512 337.774 47.4521 341.602 47.0015C343.144 48.3825 344.717 49.6383 346.291 50.894C346.188 51.805 346.395 52.7372 347.209 53.5072C348.868 54.9218 350.603 56.2906 352.219 57.6258C353.632 58.7685 354.515 60.7672 355.992 61.6592C357.029 62.2916 358.052 61.9795 358.785 61.3159C360.178 62.7888 361.529 64.1821 362.741 65.872C362.86 66.0445 362.998 66.2041 363.151 66.3531L411.933 59.2339C411.703 58.9358 411.443 58.6586 411.147 58.4157C405.656 53.9579 399.328 51.0746 392.893 48.3625Z" fill="#9696FF"/>
<path d="M321.448 -106.389C321.772 -105.423 322.139 -104.378 322.463 -103.412C321.579 -100.643 323.056 -96.9967 325.938 -96.4413C328.679 -91.5608 331.953 -86.7966 334.385 -81.9374C334.987 -80.825 335.97 -80.4769 336.887 -80.6179C336.973 -80.4589 337.059 -80.3 337.102 -80.2206C337.845 -78.665 338.968 -77.8737 340.218 -77.5837C340.765 -76.7556 341.344 -76.0527 341.892 -75.2246C341.691 -74.6774 341.695 -73.9377 342.039 -73.302C346.027 -66.1172 353.892 -60.5782 359.315 -54.5952C365.157 -48.0224 370.277 -40.5812 376.225 -34.1796C376.472 -33.9077 376.676 -33.7151 376.997 -33.4891C378.069 -32.2423 379.109 -30.8702 380.032 -29.5317C380.912 -28.2727 382.213 -28.4382 383.021 -29.1476C383.792 -28.4571 384.595 -27.8919 385.323 -27.2809C386.168 -26.6362 386.94 -25.9456 387.785 -25.301C387.373 -24.4113 387.43 -23.3874 388.17 -22.5715C392.564 -17.7558 398.958 -14.3834 403.906 -10.0141C404.313 -9.62915 404.783 -9.4948 405.241 -9.56526C405.766 -9.14668 406.365 -8.77397 406.846 -8.43485C409.042 -6.39683 411.269 -4.48416 413.528 -2.6968C415.058 -1.52052 416.887 -0.527743 418.715 0.465039C418.527 1.21704 418.616 2.11566 419.238 2.89794C420.986 5.21122 424.342 6.64059 427.526 7.75211C428.329 8.31732 429.163 8.75715 430.189 9.18473C430.809 9.46732 431.395 9.5704 431.968 9.5415L441.285 -14.7841C440.659 -15.5608 439.982 -16.3157 439.234 -17.0443C438.58 -17.7012 437.852 -18.3123 437.124 -18.9234C437.754 -18.676 438.385 -18.4286 439.015 -18.1812C441.772 -17.1246 442.94 -21.0222 440.991 -22.7883C440.627 -23.0938 440.22 -23.4788 439.856 -23.7844C439.128 -24.3955 438.435 -24.3921 437.87 -24.1505C435.027 -25.366 432.396 -26.924 429.989 -28.6196C429.891 -28.9833 429.75 -29.4265 429.535 -29.8238L429.094 -30.8231C429.051 -30.9026 429.051 -30.9026 429.008 -30.9821C427.19 -34.5241 425.332 -37.4059 422.334 -40.0091C420.878 -41.2312 419.167 -42.1904 417.487 -43.275C416.951 -43.8983 416.384 -44.3964 415.518 -44.7109C415.24 -44.8575 414.962 -45.0042 414.684 -45.1508C413.518 -46.0215 412.575 -47.0299 411.812 -48.2553C410.834 -49.8781 409.37 -50.5653 407.822 -50.6718C406.911 -51.8055 405.968 -52.8138 405.185 -53.7092C404.551 -54.6962 403.886 -55.558 403.221 -56.4197C403.241 -56.7498 403.144 -57.1135 402.929 -57.5108C398.201 -65.5115 390.651 -72.3038 384.594 -79.2739C378.955 -85.6543 373.205 -93.3428 366.377 -98.2494C366.217 -98.3624 366.056 -98.4755 365.821 -98.5426C364.597 -100.437 363.33 -102.411 362.031 -104.26C360.827 -106.485 359.623 -108.71 358.579 -110.822C357.922 -112.218 357.234 -113.49 356.503 -114.84C356.222 -115.454 355.938 -116.059 355.648 -116.656L323.231 -111.954L319.262 -109.783C320.011 -108.655 320.747 -107.526 321.448 -106.389ZM387.473 -54.1372C384.744 -56.0588 382.058 -57.9011 379.373 -59.7433C379.479 -59.9145 379.628 -60.0063 379.734 -60.1775C382.345 -58.2894 384.85 -56.2301 387.473 -54.1372Z" fill="#9696FF"/>
<path d="M306.984 24.8833C306.064 24.2845 305.093 24.1412 304.058 24.2485C301.111 21.1898 297.54 19.3632 293.414 19.9973C292.89 19.5787 292.483 19.1937 291.958 18.7751C293.488 17.1974 294.149 14.5654 292.999 12.6248C292.483 11.6713 291.775 10.7302 291.036 9.91429C292.651 8.49546 293.367 6.1477 292.269 3.75167C289.545 -2.19866 284.292 -3.09554 279.11 -4.77797C279.024 -4.93689 279.013 -5.14165 278.927 -5.30056C277.688 -8.13975 275.673 -10.3949 273.328 -12.3412C273.325 -13.0809 273.161 -13.9336 272.731 -14.7282C270.569 -18.9058 266.99 -20.1976 262.986 -20.8045C261.831 -21.4705 260.794 -22.1028 259.607 -22.6434C259.599 -22.647 259.592 -22.6498 259.585 -22.6539L255.231 -11.2618L255.994 -8.0937L315.146 73.3587L324.642 71.9726C323.912 66.4692 322.085 61.1722 319.8 56.0841C323.359 47.4295 312.195 28.4547 306.984 24.8833ZM267.668 -3.34661C266.04 -4.88659 264.455 -6.34713 262.796 -7.76178C264.816 -6.78128 266.731 -5.62958 268.273 -4.24851C268.061 -3.90609 267.892 -3.48423 267.872 -3.15411C267.829 -3.23357 267.711 -3.26714 267.668 -3.34661ZM304.423 47.8609C303.649 46.4306 302.95 44.9545 302.219 43.6037C302.548 43.2949 302.803 43.0319 303.058 42.769C303.167 43.3375 303.276 43.9059 303.503 44.508C304.245 46.0636 304.913 47.6651 305.582 49.2665C305.507 49.3124 305.433 49.3582 305.476 49.4377C305.1 48.9274 304.799 48.3712 304.423 47.8609Z" fill="#9696FF"/>
<path d="M227.669 -125.709L221.548 -151.129C218.799 -162.529 211.874 -171.651 202.969 -177.132C195.686 -181.616 187.08 -183.654 178.342 -182.503C179.208 -178.444 180.041 -174.391 180.999 -170.442C186.427 -147.935 191.899 -125.348 197.253 -102.795C202.369 -81.0489 208.986 -60.0154 214.89 -38.6485C217.922 -27.9085 221.178 -17.3061 224.092 -6.59972C226.769 3.29978 227.91 13.2976 229.787 23.3716C233.845 44.8156 239.577 65.8647 243.294 87.4127C245.131 98.147 249.398 108.232 251.353 119C252.949 128.188 256.141 136.287 258.494 145.221C261.322 155.768 262.638 166.824 265.553 177.53C268.315 187.588 270 197.675 271.548 208.057C273.248 219.088 274.203 230.578 277.309 241.272C280.026 250.511 281.507 260.405 285.427 269.115C288.151 275.065 279.891 279.623 277.093 273.718L276.651 272.719C276.436 272.322 276.338 271.958 276.241 271.594C272.963 263.336 271.508 254.592 268.986 246.08C265.879 235.386 264.595 224.205 262.895 213.174C261.141 201.859 259.43 190.624 256.418 179.553C253.784 169.733 252.675 159.61 250.084 149.87C248.664 144.493 246.147 139.475 244.727 134.099C243.599 129.814 243.197 125.401 242.218 121.024C240.129 111.292 236.335 102.081 234.63 92.3246C230.956 70.8561 225.267 49.8864 221.209 28.4425C219.125 17.4362 217.958 6.2891 214.883 -4.53031C212.1 -14.2586 209.169 -23.8952 206.504 -33.5899C200.6 -54.9568 193.908 -75.9445 188.804 -97.4859C183.45 -120.039 178.021 -142.546 172.593 -165.053C171.418 -169.93 170.429 -175.048 169.348 -180.166C150.65 -172.725 139.772 -151.119 144.85 -130.064L191.492 63.6181C192.335 65.5108 193.065 67.4335 193.665 69.3813C194.918 73.4519 195.638 77.6183 195.865 81.7817L239.743 263.983C245.172 286.49 266.865 300.146 287.966 294.355C309.066 288.565 321.869 265.425 316.44 242.918L255.993 -8.09423L255.23 -11.2623L227.669 -125.709Z" fill="#6439FF"/>
<path d="M188.805 -97.4856C193.91 -75.9441 200.601 -54.9565 206.505 -33.5896C209.17 -23.8949 212.102 -14.2583 214.884 -4.52999C217.96 6.28942 219.126 17.4366 221.21 28.4428C225.268 49.8867 230.957 70.8563 234.632 92.3249C236.337 102.081 240.131 111.292 242.22 121.024C243.198 125.401 243.601 129.814 244.728 134.099C246.148 139.476 248.666 144.494 250.086 149.87C252.676 159.61 253.786 169.734 256.419 179.554C259.431 190.624 261.143 201.859 262.897 213.174C264.597 224.205 265.881 235.386 268.988 246.08C271.509 254.592 272.964 263.336 276.242 271.594C276.34 271.958 276.437 272.322 276.652 272.719L277.094 273.718C279.893 279.623 288.153 275.066 285.429 269.115C281.509 260.405 280.027 250.511 277.311 241.272C274.204 230.578 273.249 219.089 271.549 208.058C270.002 197.675 268.317 187.589 265.554 177.53C262.639 166.824 261.324 155.768 258.495 145.221C256.143 136.287 252.951 128.188 251.355 119C249.4 108.233 245.133 98.1472 243.296 87.4129C239.578 65.8649 233.847 44.8159 229.788 23.372C227.911 13.2979 226.77 3.30009 224.094 -6.59941C221.179 -17.3058 217.924 -27.9082 214.891 -38.6482C208.988 -60.0151 202.37 -81.0486 197.254 -102.795C191.9 -125.348 186.429 -147.934 181.001 -170.442C180.043 -174.391 179.209 -178.443 178.344 -182.503C176.673 -182.283 174.999 -181.96 173.326 -181.501C171.965 -181.128 170.639 -180.679 169.35 -180.166C170.431 -175.048 171.421 -169.93 172.595 -165.053C178.023 -142.546 183.451 -120.039 188.805 -97.4856Z" fill="#06083F"/>
<path d="M116.041 51.2252L133.769 24.7625C132.501 23.9439 131.273 23.0747 130.102 22.1495C113.286 8.88032 101.198 -11.4331 94.134 -32.1913C87.8 -50.8206 85.973 -69.8374 83.7813 -89.0969C78.3766 -87.5843 73.0186 -85.5411 67.7725 -82.9132C49.9712 -73.9634 31.6325 -60.8686 11.508 -58.9636C2.42466 -58.0778 -5.80778 -59.4864 -13.5803 -62.3776L-50.593 -7.12988C-47.6802 -2.85312 -44.5547 1.23854 -41.2284 5.08475C-35.5488 11.6676 -29.2003 17.8512 -22.315 23.2667C-15.6582 17.0483 -8.4823 11.4881 -1.13823 6.66971C12.8746 -2.4897 33.5519 -15.1176 50.7245 -8.53027C66.2406 -2.61792 71.768 15.4846 64.4711 30.9964C48.1107 65.7218 6.13924 52.2495 -21.1902 34.0392C-26.3134 39.1108 -31.1704 44.6594 -35.2548 50.6614L16.8761 90.3975C36.4545 73.3504 61.8655 63.5981 86.8621 73.4633C90.6526 74.9504 94.1821 76.8121 97.4496 78.9772L109.267 61.3373C110.523 58.8472 111.99 56.467 113.652 54.2203C114.409 53.1943 115.2 52.1912 116.041 51.2252Z" fill="#06083F"/>
<path d="M15.0659 41.9276C26.8558 44.6256 42.8203 45.4943 52.0387 35.3676C59.0056 27.687 64.0415 12.4021 55.2044 3.96571C38.3871 -12.0575 7.74041 9.67649 -6.12574 20.7585C-9.1159 23.1466 -12.1792 25.7079 -15.2188 28.4285C-5.86899 34.7036 4.31224 39.4814 15.0659 41.9276Z" fill="#06083F"/>
<path d="M129.062 10.5012C131.877 13.1322 135.142 15.4852 138.668 17.4513L168.816 -27.5515L91.6875 -86.3415C92.5859 -77.2645 93.5351 -68.1892 95.1941 -59.2247C99.8881 -34.0393 110.479 -6.76548 129.062 10.5012Z" fill="#06083F"/>
<path d="M16.8752 90.3982L23.5533 95.4879C37.2589 84.0598 53.7974 77.1516 71.8179 78.7013C79.5547 79.3685 86.6953 81.8647 92.8658 85.8166L97.4483 78.9771C94.1807 76.8121 90.6512 74.9503 86.8607 73.4632C61.8653 63.5984 36.4536 73.3511 16.8752 90.3982Z" fill="#6439FF"/>
<path d="M64.4708 30.9956C71.7677 15.4837 66.2403 -2.61876 50.7242 -8.5311C33.5516 -15.1184 12.8744 -2.49053 -1.13849 6.66888C-8.48257 11.4872 -15.6585 17.0474 -22.3153 23.2658C-29.2006 17.8503 -35.549 11.6667 -41.2286 5.08392C-44.555 1.2377 -47.6797 -2.85441 -50.5932 -7.13071L-55.4288 0.0870624C-49.5756 8.28244 -43.0458 15.7644 -36.2177 22.2322C-33.857 24.4652 -31.1452 26.7649 -28.1652 29.052C-33.1118 34.2426 -37.6589 39.8334 -41.6367 45.7973L-35.2569 50.6607C-31.1718 44.6583 -26.3148 39.1096 -21.1923 34.0385C6.13898 52.2487 48.1104 65.7209 64.4708 30.9956ZM-6.12611 20.7586C7.74003 9.67664 38.3867 -12.0574 55.204 3.96586C64.0411 12.4022 59.0052 27.6871 52.0384 35.3678C42.8199 45.4945 26.8554 44.6258 15.0656 41.9277C4.31186 39.4815 -5.86937 34.7037 -15.2192 28.4286C-12.1796 25.7081 -9.11628 23.1468 -6.12611 20.7586Z" fill="#6439FF"/>
<path d="M11.5088 -58.9632C31.6333 -60.8683 49.9721 -73.9631 67.7733 -82.9129C73.0194 -85.5408 78.3774 -87.584 83.7822 -89.0966C85.9746 -69.8376 87.8016 -50.8207 94.1348 -32.191C101.199 -11.4327 113.286 8.88062 130.103 22.1498C131.273 23.0754 132.501 23.9442 133.77 24.7628L138.668 17.4514C135.143 15.4853 131.878 13.1323 129.062 10.5013C110.479 -6.76534 99.8884 -34.0391 95.1956 -59.2241C93.5366 -68.1887 92.5873 -77.2641 91.6889 -86.3411L78.2473 -96.5864C59.3475 -89.9212 42.7601 -77.4389 23.9535 -70.6531C13.7158 -66.9969 3.06183 -65.9448 -7.4271 -68.8083C-7.94396 -68.9467 -8.45502 -69.1055 -8.9664 -69.2631L-13.5794 -62.3773C-5.80694 -59.4861 2.42551 -58.0775 11.5088 -58.9632Z" fill="#6439FF"/>
<path d="M178.039 52.911C180.834 54.7947 184.215 55.6831 187.595 56.4669C186.328 54.5338 184.949 52.7271 183.473 51.0454C181.865 51.0875 180.278 51.282 178.855 51.6666C178.729 52.168 178.443 52.5563 178.039 52.911Z" fill="#311B92"/>
<path d="M174.518 47.8747C175.809 47.2321 177.272 46.7583 178.816 46.4259C178.259 45.9461 177.694 45.4804 177.117 45.0302C174.294 45.1481 171.134 44.9517 168.867 46.0579C170.652 46.9712 172.607 47.4627 174.518 47.8747Z" fill="#311B92"/>
<path d="M193.3 69.3626C192.564 69.2865 191.859 69.085 191.079 68.9293C190.455 70.1614 189.114 70.9871 187.713 70.0492C183.625 67.2691 179.172 66.1977 174.821 64.2154C173.635 63.6748 172.597 63.0425 171.442 62.3765C170.459 62.0284 169.508 61.5549 168.525 61.2068C167.255 61.247 165.868 61.2536 164.501 60.93C161.223 60.1945 158.156 59.1166 155.279 57.2866C154.797 56.9475 154.465 56.5166 154.324 56.0735C153.651 55.7466 153.02 55.4993 152.304 55.093C151.031 54.3935 150.744 52.0277 151.924 51.0889C155.285 48.4897 158.423 48.782 162.383 49.3094C163.28 49.4986 164.283 49.5166 165.168 49.501C164.452 49.0948 163.767 48.5631 163.156 47.9857C162.385 47.2951 162.219 45.7027 162.866 44.8802C165.061 41.9182 167.643 41.0401 170.435 40.6842C157.058 33.5785 140.704 33.5255 126.793 42.0927C125.775 42.7198 124.798 43.3931 123.842 44.089C124.043 44.1181 124.244 44.1381 124.444 44.1751C127.989 44.8524 131.502 45.6551 134.953 46.7085C137.698 47.5603 136.691 51.5709 134.152 51.6513C133.341 51.621 132.499 51.716 131.731 51.7652C133.462 52.3943 135.001 53.0357 136.027 53.4633C137.288 53.958 137.741 55.1621 137.575 56.3237C138.836 56.8185 139.991 57.4844 141.02 58.6517C142.167 59.8526 141.706 61.9373 140.396 62.6378C136.809 64.635 132.955 63.9363 129.269 62.8158C124.761 61.4602 120.128 60.6059 115.577 59.1709C114.006 58.6548 113.667 56.7445 114.249 55.433C113.965 55.1026 113.75 54.6745 113.651 54.2213C111.991 56.4675 110.523 58.8482 109.267 61.3383C107.172 65.4921 105.649 69.9378 104.739 74.5304C106.568 75.919 108.351 77.3809 110.026 79.0103C113.615 82.5212 117.115 87.8874 121.309 90.4963C123.427 91.8405 125.436 92.6162 126.981 94.737C128.107 96.268 127.395 99.3554 125.099 98.968C125.025 99.0139 124.907 98.9803 124.79 98.9467C125.303 99.1605 125.816 99.3743 126.329 99.5881C129.086 100.645 127.815 105.453 124.866 104.409C124.588 104.262 124.279 104.241 124.001 104.094C124.686 104.626 125.371 105.158 126.056 105.689C127.993 107.251 126.931 110.977 124.389 110.318C124.031 111.491 122.894 112.51 121.441 112.027C120.928 111.813 120.384 111.725 119.871 111.511C116.088 110.292 112.427 108.942 108.882 107.241C109.213 107.922 109.555 108.6 109.918 109.271C113.259 115.444 117.672 120.541 122.754 124.472C123.013 124.259 123.316 124.097 123.657 124.012C124.147 123.816 124.574 123.871 125.032 123.8C124.126 121.392 127.06 118.738 128.777 121.176C130.021 122.741 132.101 122.731 133.726 123.531C135.587 124.399 136.925 125.587 138.106 127.403C138.998 128.866 137.895 130.499 136.574 130.995C136.864 131.262 137.066 131.599 137.204 131.963C143.451 133.862 150.064 134.359 156.601 133.328C155.017 131.985 155.786 128.351 158.149 128.833C160.061 129.245 162.015 129.737 163.821 130.32C163.841 129.99 163.978 129.693 164.115 129.397C163.634 129.057 163.035 128.685 162.553 128.346C160.948 127.215 161.116 124.039 163.334 123.733C163.377 123.812 163.452 123.766 163.452 123.766C162.681 123.076 162.474 122.144 162.695 121.266C159.593 119.574 156.704 117.539 154.09 114.911C152.697 113.439 153.868 110.281 155.854 110.647C161.651 111.632 165.765 115.562 171.181 117.311C174.575 118.341 177.77 119.165 180.482 121.446C184.718 117.438 188.13 112.697 190.67 107.52C188.203 107.206 185.919 106.342 183.647 105.291C183.125 105.612 182.475 105.695 181.727 105.414C178.852 104.324 175.946 103.359 172.923 102.36C172.103 102.865 171.057 102.767 170.306 101.747C170.263 101.667 170.177 101.508 170.017 101.395C165.701 100.027 161.448 98.4088 157.736 96.139C155.704 94.9537 156.68 91.0684 159.093 91.4894C159.712 91.532 160.417 91.7335 161.196 91.8891C160.66 91.2657 160.305 90.4253 160.376 89.6397C156.989 88.3357 153.707 86.8604 150.445 85.0551C149.012 84.2425 149.069 82.5124 149.854 81.3934C149.565 81.042 149.306 80.5653 149.048 80.0885C148.489 79.0556 148.844 77.142 150.239 76.6005C154.724 74.7925 158.189 76.7903 162.622 78.1918C167.248 79.581 171.584 80.6188 175.172 84.1296C175.783 84.7071 175.904 85.4804 175.789 86.1865C176.451 86.3086 177.039 86.4765 177.669 86.7239C178.535 87.0384 179.082 87.8666 179.246 88.7193C180.988 89.5532 182.55 90.6041 183.877 91.5879C184.124 91.8599 184.327 92.0524 184.5 92.3702C186.305 92.9534 187.973 93.8331 189.527 95.419C190.63 96.5404 190.213 98.7046 188.903 99.405C188.562 99.5091 188.339 99.6467 187.998 99.7508C189.785 100.312 191.449 100.951 193.033 101.903C195.269 95.5134 196.244 88.6545 195.869 81.7823C195.642 77.6188 194.921 73.4529 193.668 69.3818C193.548 69.383 193.429 69.3832 193.3 69.3626Z" fill="#311B92"/>
<path d="M162.866 44.8788C162.219 45.7013 162.385 47.2937 163.156 47.9843C163.767 48.5618 164.452 49.0934 165.168 49.4997C164.283 49.5152 163.28 49.4972 162.383 49.308C158.423 48.7806 155.285 48.4883 151.924 51.0875C150.744 52.0263 151.031 54.3921 152.304 55.0916C153.02 55.4979 153.651 55.7453 154.324 56.0721C154.465 56.5152 154.797 56.9461 155.279 57.2852C158.156 59.1152 161.223 60.1931 164.501 60.9286C165.868 61.2522 167.255 61.2456 168.525 61.2054C169.508 61.5535 170.459 62.027 171.442 62.3751C172.597 63.0411 173.635 63.6734 174.821 64.214C179.172 66.1963 183.625 67.2677 187.712 70.0478C189.114 70.9857 190.455 70.16 191.079 68.9279C191.859 69.0836 192.564 69.2851 193.3 69.3612C193.429 69.3818 193.548 69.3816 193.666 69.3806C193.066 67.4319 192.337 65.5093 191.493 63.6173C191.475 63.5766 191.457 63.537 191.439 63.4962C189.645 62.8687 187.856 62.2311 186.12 61.5998C187.741 61.8833 189.393 62.1552 191.008 62.5381C190.618 61.7155 190.21 60.899 189.773 60.0917C189.093 58.8355 188.36 57.6319 187.594 56.4654C184.215 55.6821 180.834 54.7932 178.039 52.9095C178.443 52.5548 178.729 52.1665 178.855 51.6652C180.278 51.2806 181.865 51.0869 183.473 51.044C182.011 49.3774 180.454 47.8358 178.815 46.4243C177.272 46.7562 175.809 47.2301 174.517 47.8731C172.606 47.4611 170.651 46.9696 168.866 46.0563C171.134 44.9509 174.293 45.1465 177.116 45.0286C174.997 43.3725 172.761 41.9187 170.434 40.6825C167.643 41.0387 165.061 41.9168 162.866 44.8788Z" fill="#9696FF"/>
<path d="M114.247 55.4322C113.666 56.7437 114.005 58.654 115.575 59.17C120.126 60.6051 124.76 61.4593 129.268 62.8149C132.954 63.9354 136.808 64.6341 140.395 62.6369C141.705 61.9365 142.165 59.8517 141.019 58.6508C139.99 57.4836 138.835 56.8176 137.574 56.3229C137.739 55.1613 137.286 53.9571 136.025 53.4624C134.999 53.0348 133.46 52.3934 131.729 51.7643C132.497 51.7152 133.34 51.6201 134.151 51.6504C136.69 51.5701 137.697 47.5595 134.952 46.7076C131.501 45.6542 127.988 44.8516 124.443 44.1742C124.242 44.1365 124.041 44.1172 123.841 44.0881C120.95 46.1904 118.34 48.5843 116.04 51.2249C115.2 52.1909 114.409 53.1939 113.65 54.2204C113.748 54.6737 113.963 55.1018 114.247 55.4322Z" fill="#9696FF"/>
</g>
</g>
</g>
</svg>
